<svg  viewBox="0 0 1325 801" fill="none" xmlns="http://www.w3.org/2000/svg">
<rect  fill="#FCFCFC"/>
<path d="M1111.15 800.871C1103.49 800.871 1095.8 800.562 1088.02 799.805C1058.3 796.921 1028.17 795.48 998.594 791.364C930.719 781.912 862.814 781.355 794.445 781.355C767.298 781.355 740.157 781.091 713.015 781.091C673.498 781.091 633.994 781.65 594.555 784.395C533.017 788.677 471.377 789.36 409.728 789.36C400.441 789.36 391.153 789.344 381.866 789.322C381.262 789.321 380.658 789.321 380.054 789.321C345.932 789.321 311.943 791.508 277.873 793.052C243.643 794.604 210.36 797.152 176.328 797.152C173.26 797.152 170.18 797.131 167.098 797.086C133.094 796.6 81.3195 786.298 57.0605 760.04C42.6578 744.439 44.6105 706.905 59.0348 691.863C65.3364 685.292 75.4943 680.144 83.7915 677.015C107.43 668.093 131.486 668.073 156.186 667.887C156.486 667.884 156.786 667.883 157.086 667.883C174.133 667.883 191.858 671.456 208.194 676.42C223.057 680.936 238.241 682.52 253.357 685.331C265.724 687.632 278.957 688.733 292.042 688.733C300.561 688.733 309.017 688.265 317.13 687.359C339.077 684.908 361.18 683.768 383.19 681.836C410.523 679.436 437.271 674.233 464.509 671.444C478.143 670.048 491.462 666.587 505.068 665.013C541.149 660.84 577.294 659.936 613.44 659.824C616.366 659.815 619.292 659.811 622.217 659.811C639.429 659.811 656.642 659.945 673.845 659.945C687.829 659.945 701.803 659.901 715.781 659.901C763.628 659.901 811.433 660.412 859.151 664.924C873.938 666.323 888.627 665.476 903.207 668.804C917.845 672.144 932.622 675.193 947.621 675.788C960.459 676.297 973.335 676.465 986.227 676.465C1009.14 676.465 1032.09 675.935 1054.92 675.849C1057.21 675.84 1060.39 675.825 1064.34 675.825C1115.47 675.825 1293.57 678.268 1280.8 727.695C1275.89 746.688 1247.35 771.408 1231.34 779.364C1211.11 789.415 1189 795.363 1166.73 797.367C1147.97 799.057 1129.67 800.871 1111.15 800.871Z" fill="#F7F7F7"/>
<path d="M294.426 91.5268L296.454 69.8374L287.222 68.5667L282.545 83.112L278.457 80.4854L278.984 99.2561L288.402 101.872L294.426 91.5268Z" fill="#F4D0C1"/>
<path d="M157.283 200.565L253.939 164.177L278.106 96.5907L290.279 101.027L288.494 184.889L198.022 250.703L157.283 200.565Z" fill="#8BC34A"/>
<path d="M673.851 276.936L672.803 287.776L652.855 292.25L642.949 282.509L644.565 269.943L655.244 270.722L655.933 268L659.693 266.217L673.851 276.936Z" fill="#E4D2B8"/>
<path d="M1142.31 445.599L1146.57 544.425L1134.08 712.463L1115.39 713.791L1092.68 561.173L1061.27 432.028L1142.31 445.599Z" fill="#8BC34A"/>
<path d="M1116.06 721.664L1136.99 730.333L1146.38 719.509L1135.55 710.123L1115.34 711.559L1116.06 721.664Z" fill="#AED580"/>
<path d="M1010.01 410.629L1005.9 485.329L1018.07 707.443L1036.79 708.379L1064.84 562.7L1089.57 402.947L1010.01 410.629Z" fill="#8BC34A"/>
<path d="M1036.29 716.264L1015.54 725.371L1005.93 714.748L1016.55 705.135L1036.79 706.145L1036.29 716.264Z" fill="#AED580"/>
<path d="M1118.82 190.567L1060.42 184.311C1060.42 184.311 1027.93 187.781 1005.89 264.933C993.625 307.857 989.892 375.484 988.993 427.043C990.372 434.397 998.385 466.613 1032.27 461.148C1090.45 451.763 1121.42 442.379 1146.76 447.072C1168.34 451.763 1166.51 422.047 1164.14 399.368L1155.54 329.201L1118.82 190.567Z" fill="#688942"/>
<path d="M1107.54 117.876C1092.82 114.632 1077.67 111.724 1062.94 114.641C1059.71 115.281 1056.24 116.404 1054.49 119.191C1053.82 120.269 1053.46 121.515 1053.13 122.745C1049.41 136.567 1044.69 157.056 1053.79 169.791C1055.52 172.22 1057.86 174.147 1060.36 175.712C1063.71 177.805 1067.41 179.227 1071.25 179.984C1070.45 183.42 1069.35 186.785 1067.95 190.023C1071.32 195.103 1087.04 195.712 1089.94 190.841C1090.11 186.627 1090.27 182.411 1090.43 178.196C1092.35 177.423 1094.2 176.484 1095.93 175.34C1102.65 170.916 1107.08 164.201 1109.65 156.691C1112.45 148.511 1116.38 140.736 1118.94 132.4C1119.88 129.363 1120.61 125.896 1119.01 123.151C1117.31 120.228 1113.64 119.233 1110.34 118.497C1109.41 118.291 1108.47 118.083 1107.54 117.876Z" fill="#C1755D"/>
<path d="M1058.55 125.779C1065.82 121.1 1076.74 119.085 1083.58 119.583C1104.26 121.08 1111.84 136.268 1112.94 155.283C1118.64 148.043 1129.33 138.933 1129.98 129.615C1130.5 121.988 1129.45 111.588 1125.18 105C1121.18 98.8374 1110.95 95.452 1104.87 91.8814C1099.14 88.5147 1093.41 85.148 1087.68 81.7813C1086.49 81.0814 1085.26 80.3681 1083.9 80.1321C1082.29 79.8521 1080.65 80.264 1079.07 80.6733C1065.52 84.1733 1051.97 87.6747 1038.43 91.176C1035.83 91.848 1032.86 92.8307 1031.9 95.3414C1031.32 96.8694 1031.66 98.576 1032.01 100.172C1033.55 107.204 1036.5 114.392 1037.23 121.515C1038.06 125.653 1040.53 146.865 1047.86 144.417C1050.01 140.899 1050.33 136.565 1052.01 132.797C1053.24 130.012 1055.6 127.676 1058.55 125.779Z" fill="#2E3644"/>
<path d="M861.773 686.844C863.766 684.648 866.094 683.449 868.725 683.863C871.25 684.26 873.522 685.972 874.564 688.263C875.274 689.824 875.425 691.565 875.565 693.269C876.294 702.084 876.228 723.016 864.484 726.028C859.549 727.295 855.468 723.788 854.149 719.357C852.165 712.681 855.104 694.187 861.773 686.844Z" fill="#AED580"/>
<path d="M857.596 553.851L858.21 607.623C857.496 631.507 861.225 655.525 860.51 679.411C860.345 684.903 858.916 690.695 860.298 696.139C861.652 701.465 865.98 702.407 870.421 699.709C876.372 696.096 875.412 687.66 876.402 681.505C879.125 664.591 882.318 647.756 885.162 630.863C886.556 622.581 883.684 610.973 884.309 602.592L892.994 557.528L857.596 553.851Z" fill="#EFC4B1"/>
<path d="M919.034 466.968L895.63 570.925L890.658 669.099L853.55 668.267L843.459 393.659L915.396 394.965L919.034 466.968Z" fill="#8BC34A"/>
<path d="M808.694 684.889C810.776 682.809 813.148 681.749 815.75 682.317C818.252 682.863 820.442 684.711 821.382 687.064C822.024 688.669 822.098 690.42 822.166 692.135C822.516 700.999 821.554 721.943 809.722 724.265C804.75 725.241 800.83 721.492 799.706 716.979C798.014 710.18 801.734 691.844 808.694 684.889Z" fill="#AED580"/>
<path d="M828.254 561.4L825.105 615.084C824.848 630.003 822.86 644.805 821.316 659.625C819.88 673.389 822.113 687.725 814.92 700.245C812.664 704.171 808.104 706.784 804.918 702.016C802.462 698.339 803.922 692.208 803.45 688.037C801.528 671.017 799.132 654.051 797.088 637.044C796.085 628.705 799.502 617.247 799.273 608.844L792.72 563.424L828.254 561.4Z" fill="#EFC4B1"/>
<path d="M781.294 460.609L778.272 561.525L794.11 663.575L831.858 664.703L830.191 554.26L850.166 462.671L856.871 402.719L796.976 395.653L781.294 460.609Z" fill="#8BC34A"/>
<path d="M828.676 189.128L893.205 187.587L930.617 257.168L917.32 322.34L914.952 400.333L822.904 401.589L792.617 396.673L800.658 313.339L796.048 202.02L828.676 189.128Z" fill="#688942"/>
<path d="M818.512 234.971L795.212 306.397L760.436 318.883L665.3 293.251L678.09 273.472L761.76 276.195L796.177 205.131L818.512 234.971Z" fill="#688942"/>
<path d="M832.716 135.063C842.444 106.781 879.78 117.38 887.478 142.563C892.498 158.989 879.813 180.305 862.792 185.024C862.716 185.671 862.66 186.275 862.657 186.787C862.646 189.424 862.321 192.024 861.93 194.659C861.785 195.64 846.889 192.777 845.228 192.451C844.646 192.336 843.997 192.179 843.685 191.692C843.085 190.756 844.061 188.001 844.17 186.963C844.3 185.736 844.428 184.509 844.557 183.281C836.161 179.184 830.864 170.455 829.384 161.569C827.897 152.641 829.793 143.561 832.716 135.063Z" fill="#EFC4B1"/>
<path d="M857.074 109.507C859.077 111.539 859.863 114.375 860.441 117.096C860.785 118.723 861.082 120.404 860.734 122.015C859.347 128.435 852.979 128.099 848.055 130.168C841.982 132.72 836.745 137.419 833.345 142.83C828.019 151.303 830.415 162.206 832.575 171.552C833.335 174.846 834.867 179.743 832.314 182.68C829.717 185.666 823.718 185.204 820.609 183.668C817.769 182.265 815.435 179.67 812.315 179.147C809.015 178.594 804.554 180.046 803.018 177.016C802.591 176.174 802.55 175.144 802.011 174.372C800.187 171.764 795.649 174.819 793.079 172.98C791.498 171.85 791.51 169.439 792.043 167.531C792.579 165.624 793.479 163.692 793.106 161.751C792.786 160.084 791.585 158.767 790.841 157.25C789.371 154.252 789.879 150.351 792.066 147.82C796.131 143.116 803.997 144.008 808.353 139.584C810.622 137.279 811.502 133.953 812.347 130.807C813.194 127.66 814.209 124.343 816.634 122.211C819.631 119.576 823.957 120.024 826.914 116.9C828.65 115.064 829.809 112.675 831.758 111.078C834.327 108.972 839.351 107.354 842.546 106.279C847.615 104.576 853.286 105.66 857.074 109.507Z" fill="#2E3644"/>
<path d="M880.692 154.639C880.866 163.948 876.241 174.011 880.53 182.206C884.857 190.475 895.645 191.966 904.838 192.396C906.352 192.468 925.756 194.143 925.837 193.776C927.29 187.292 928.793 180.679 932.181 174.986C935.57 169.292 941.236 164.575 947.725 164.171C945.853 163.846 944.909 161.554 945.125 159.622C945.341 157.69 946.342 155.946 946.921 154.09C948.342 149.527 946.958 144.203 943.518 140.998C936.654 134.6 924.209 137.256 918.325 129.91C914.677 125.352 915.112 118.744 913.201 113.182C909.502 102.426 897.728 100.175 888.926 95.3175C879.634 90.1909 870.885 87.3802 860.161 89.1669C846.869 91.3829 836.986 104.918 842.113 117.652C848.69 133.988 874.98 132.579 879.901 149.164C880.429 150.944 880.657 152.778 880.692 154.639Z" fill="#2E3644"/>
<path d="M874.114 188.759L854.096 217.052L844.686 216.282L829.001 187.587L874.114 188.759Z" fill="#E3E3E4"/>
<path d="M356.225 700.511L354.756 711.936L376.136 726.299L389.031 716.343L379.073 703.449L357.693 689.085L356.225 700.511Z" fill="#AED580"/>
<path d="M355.501 696.676L371.99 550.971L352.151 387.855L356.613 353.157L445.223 349.791L448.421 406.265L433.545 551.195L377.581 704.121L355.501 696.676Z" fill="#8BC34A"/>
<path d="M510.242 366.119L510.476 513.153L480.88 702.436L459.577 702.224L447.868 527.181L420.461 351.983L510.242 366.119Z" fill="#8BC34A"/>
<path d="M459.61 711.207L482.532 722.956L494.165 711.552L482.761 699.919L459.725 699.689L459.61 711.207Z" fill="#AED580"/>
<path d="M342.982 416.127C343.185 409.753 343.54 404.436 343.59 402.537C344.045 385.445 345.569 368.392 347.709 351.42C349.626 336.212 352.046 298.457 354.649 283.343C356.798 270.864 364.286 239.715 369.697 228.139C383.152 199.353 378.994 196.693 438.098 188.147C464.001 184.4 470.124 200.544 491.301 219.108C493.389 220.939 493.274 231.84 493.758 234.727C494.613 239.811 495.526 244.885 496.574 249.937C497.4 253.908 498.308 257.865 499.328 261.797L499.326 261.796C499.326 261.796 517.104 342.7 528.861 359.883C540.617 377.065 564.906 401.087 524.277 415.753C517.077 418.083 509.832 420.297 502.337 421.48C502.337 421.48 469.109 417.788 452.021 417.916C436.282 418.032 420.48 419.627 405.008 422.295C394.661 424.024 384.102 426.536 374.848 431.371C366.017 435.983 359.645 442.768 350.685 447.544C349.836 447.996 348.906 448.464 347.942 448.331C342.796 447.617 342.554 429.536 342.982 416.127Z" fill="#688942"/>
<path d="M438.166 196.264C435.183 197.738 428.145 198.266 420.802 195.39C419.323 194.81 418.325 193.383 418.345 191.795C418.403 187.334 418.762 182.879 419.418 178.467C413.911 176.531 407.547 173.627 406.589 167.868C406.286 166.055 406.599 164.202 406.913 162.39C408.206 154.9 409.501 147.41 410.795 139.919C411.243 137.33 411.719 134.663 413.127 132.443C415.599 128.548 420.398 126.844 424.943 126.056C436.541 124.042 449.181 126.555 458.174 134.151C460.566 136.172 462.731 138.603 463.786 141.554C465.413 146.102 464.197 151.119 462.97 155.791C461.838 160.104 460.705 164.416 459.573 168.73C458.27 173.69 456.39 179.328 451.61 181.188C449.073 182.176 446.077 181.888 443.779 183.348C439.727 185.925 440.274 191.95 438.166 196.264Z" fill="#F4D0C1"/>
<path d="M505.107 121.567C506.246 119.696 507.474 117.891 508.846 116.197C511.82 112.532 515.486 109.389 517.878 105.319C520.271 101.249 521.114 95.7321 518.242 91.9841C516.39 89.5654 513.382 88.3561 510.459 87.4961C500.827 84.6615 490.432 84.4694 480.703 86.9454C471.435 89.3054 463.142 93.2121 453.812 89.7268C445.047 86.4548 438.715 87.7881 429.555 91.0561C419.642 94.5934 406.332 95.4281 397.359 100.421C393.612 102.507 390.622 105.765 388.291 109.365C380.216 121.837 380.171 139.033 388.18 151.547C389.979 154.355 392.128 156.92 394.388 159.371C399.064 164.444 404.66 170.708 411.094 172.588C411.247 166.832 406.004 148.684 410.424 143.967C417.439 136.48 433.299 139.092 442 140.935C451.492 142.945 459.954 149.667 469.363 151.104C476.135 152.137 484.778 148.816 490.536 145.316C497.642 140.995 500.95 128.393 505.107 121.567Z" fill="#2E3644"/>
<path d="M389.03 199.209L352.151 231.523L311.01 317.977L362.974 379.796L371.912 345.225L389.03 199.209Z" fill="#688942"/>
<path d="M149.447 447.15L66.5566 421.914L91.3878 563.192L88.6745 686.452L88.4598 687.284L88.6558 687.296L88.6492 687.564L104.753 688.18L104.756 688.163L105.355 688.195L134.893 576.834L147.195 459.302L149.447 447.15Z" fill="#688942"/>
<path d="M104.237 693.819L87.6032 694.344L84.1592 708.601L84.5845 708.701L84.4792 708.72L112.867 723.428L126.007 724.137L126.817 709.12L123.142 706.737L104.237 693.819Z" fill="#AED580"/>
<path d="M213.346 446.206L202.841 691.12L186.81 692.764L163.181 562.189L127.738 432.824L213.346 446.206Z" fill="#688942"/>
<path d="M203.121 696.776L225.095 707.635L223.672 717.792L185.311 714.224L186.724 699.625L203.121 696.776Z" fill="#AED580"/>
<path d="M46.0991 491.088C43.2183 449.819 76.413 317.384 76.413 317.384L76.4076 317.381C79.961 304.925 82.5836 292.283 84.0103 279.643C85.0276 270.644 109.01 168.017 107.225 167.939C125.764 168.767 161.313 163.385 175.388 176.139C175.789 176.503 176.176 176.883 176.541 177.277C187.569 189.16 193.816 213.672 199.296 228.713C206.494 248.472 212.169 268.784 216.236 289.416C219.79 307.457 222.116 325.715 223.912 344.007C225.454 359.732 225.025 375.425 226 390.911C227.077 408.052 232.75 426.511 237.06 443.093C241.4 459.797 246.777 476.268 254.014 491.953C235.876 500.601 215.48 503.375 195.394 504.02C175.31 504.663 155.194 503.292 135.12 504.167C118.142 504.908 101.002 507.244 84.2649 504.307C70.9559 501.972 58.572 496.427 46.098 491.089L46.0991 491.088Z" fill="#8BC34A"/>
<path d="M169.345 122.945C177.906 126.879 187.011 137.384 186.75 147.411C186.625 152.239 184.065 156.059 184.134 161.232C184.234 171.432 169.082 182.539 178.818 192.103C183.823 197.019 191.451 197.795 198.449 198.297C199.297 198.359 200.186 198.412 200.961 198.06C202.234 197.479 202.819 195.932 202.751 194.533C202.682 193.135 202.103 191.82 201.642 190.499C196.81 176.669 203.053 160.209 203.442 145.971C203.831 131.76 200.039 116.535 188.147 107.617C180.414 110.216 174.694 113.675 171.063 120.98L169.345 122.945Z" fill="#2E3644"/>
<path d="M165.808 183.648C175.392 182.166 183.368 174.836 187.606 166.112C191.843 157.389 192.807 147.423 192.579 137.727C191.82 105.462 151.839 104.412 136.442 127.895C123.022 148.362 137.939 187.96 165.808 183.648Z" fill="#F4D0C1"/>
<path d="M1262.51 579.187H944.844V374.204H1262.51V579.187Z" fill="white"/>
<path d="M1220.19 304.801H987.157L936.453 364.535H1270.9L1220.19 304.801Z" fill="white"/>
<path d="M1270.9 386.068H936.453V364.535H1270.9V386.068Z" fill="#CCCDCE"/>
<path d="M1040.89 324.996L1032.68 334.668H1165.65L1157.44 324.996H1040.89Z" fill="#9D9D9E"/>
<path d="M944.844 386.068L1262.51 415.679V386.068H944.844Z" fill="#EAEAEA"/>
<path d="M967.708 437.773L1236.45 429.449L1230.48 437.773L1241.03 447.817L1232.36 462.705L1241.03 471.171L1234.62 476.82L1247.39 497.915L1228.98 513.101L1238.02 522.436L970.204 529.931L975.853 519.668H967.708L976.23 496.785L962.293 485.784L970.58 474.328L967.19 468.463L973.97 458.335L962.293 444.427L967.708 437.773Z" fill="#F7F7F7"/>
<path d="M1012.86 497.96C1011.63 500.196 1010.07 502.264 1008.22 504.028C1006.9 505.299 1005.45 506.385 1003.86 507.288C1003.36 507.437 1002.94 507.575 1002.56 507.703C999.882 490.901 996.689 474.2 992.929 457.607C1004.97 457.208 1014.77 472.167 1015.89 482.882C1016.44 488.095 1015.4 493.361 1012.86 497.96ZM1023.8 482.699C1022.25 465.675 1006.22 445.631 987.482 450.478C986.094 450.838 985.297 451.701 984.949 452.723C984.412 453.547 984.166 454.592 984.448 455.801C988.81 474.576 992.486 493.487 995.409 512.54C995.774 514.921 997.788 516.12 999.7 516.18C1005.71 518.178 1013.62 510.313 1016.81 506.251C1022.01 499.623 1024.57 491.092 1023.8 482.699Z" fill="#8BC34A"/>
<path d="M1049.71 505.928C1031.07 501.316 1033.47 453.076 1052.41 462.799C1058.62 465.983 1059.66 476.713 1060.03 482.803C1060.48 490.139 1060.96 508.712 1049.71 505.928ZM1051.04 454.188C1045.38 452.48 1039.21 453.748 1034.63 459.571C1027.87 468.175 1027.8 481.236 1030.22 491.393C1032.56 501.215 1038.69 512.864 1049.86 514.165C1065.94 516.035 1067.85 498.651 1067.99 486.696C1068.08 480.012 1066.94 473.023 1064.43 466.815C1061.94 460.661 1056.75 455.911 1051.04 454.188Z" fill="#8BC34A"/>
<path d="M1101.88 455.433C1101.84 455.913 1101.8 456.392 1101.76 456.871C1101.72 457.367 1101.78 457.797 1101.89 458.193C1101.93 467.248 1101.97 476.304 1102.01 485.36C1100.9 482.864 1099.72 480.391 1098.51 477.929C1094.11 469.019 1089.88 459.656 1082.91 452.435C1080.47 449.915 1076.18 452.071 1076.22 455.387C1076.44 473.085 1077.02 490.772 1077.95 508.448C1078.22 513.521 1086.13 513.36 1085.86 508.265C1085.14 494.697 1084.64 481.125 1084.35 467.544C1087.11 472.256 1089.42 477.312 1091.78 482.079C1096.33 491.303 1100.1 500.699 1102.28 510.772C1103.25 515.236 1110.04 513.877 1110.02 509.541C1109.94 491.445 1109.86 473.348 1109.78 455.251C1109.76 450.068 1102.27 450.464 1101.88 455.433Z" fill="#8BC34A"/>
<path d="M1130.3 481.346C1131.5 475.671 1132.86 470.028 1134.37 464.419C1136.21 469.872 1137.95 475.358 1139.62 480.862C1136.51 480.9 1133.4 481.063 1130.3 481.346ZM1154.08 503.112C1149.52 485.232 1144.1 467.622 1137.81 450.274C1136.46 446.554 1131.36 446.671 1130.18 450.451C1124.47 468.768 1120.43 487.452 1118.08 506.496C1117.46 511.49 1125.13 513.463 1125.75 508.42C1126.54 502.047 1127.53 495.716 1128.7 489.424C1133.11 488.956 1137.52 488.735 1141.96 488.759C1143.55 494.279 1145.08 499.818 1146.51 505.391C1147.76 510.32 1155.34 508.046 1154.08 503.112Z" fill="#8BC34A"/>
<path d="M1182.38 445.904C1170.81 447.591 1159.32 449.677 1147.91 452.219C1142.94 453.323 1145.23 460.897 1150.18 459.793C1155.05 458.709 1159.93 457.715 1164.83 456.792C1165.1 472.819 1165.79 488.827 1166.92 504.817C1167.28 509.877 1175.19 509.724 1174.83 504.636C1173.67 488.236 1172.96 471.817 1172.71 455.38C1175.99 454.823 1179.27 454.291 1182.57 453.809C1187.54 453.085 1187.42 445.171 1182.38 445.904Z" fill="#8BC34A"/>
<path d="M1219.25 500.78C1213 501.055 1206.75 501.33 1200.5 501.604L1200.13 484.244C1203.21 484.087 1206.3 484.098 1209.39 484.296C1211.52 484.432 1213.3 482.253 1213.25 480.251C1213.2 477.959 1211.35 476.527 1209.21 476.389C1206.12 476.192 1203.04 476.182 1199.95 476.336L1199.47 454.157C1204.93 454.231 1210.38 454.414 1215.84 454.775C1220.91 455.112 1220.7 447.203 1215.65 446.868C1210.28 446.512 1204.9 446.295 1199.52 446.219C1192.52 446.12 1191.47 450 1191.6 456.107C1191.72 461.68 1191.84 467.251 1191.97 472.823C1192.2 483.408 1192.43 493.994 1192.66 504.579C1192.66 504.748 1192.67 504.917 1192.67 505.085C1192.72 507.407 1193.6 509.823 1196.52 509.695C1204.16 509.359 1211.79 509.023 1219.43 508.688C1224.51 508.464 1224.34 500.556 1219.25 500.78Z" fill="#8BC34A"/>
<path d="M990.336 347.288L990.963 358.028L1004.29 373.677L1012.32 365.627L1005.92 351.405L1009.14 346.192L1003.82 340.403L990.336 347.288Z" fill="#C1755D"/>
<path d="M1060.42 184.311L1038.83 190.88L960.006 273.461L955.315 300.676L992.998 362.897L1003.17 340.091L987.221 294.107L1012.56 276.277L1046.34 200.264L1060.42 184.311Z" fill="#688942"/>
<path d="M735.168 180.383C700.488 173.055 653.978 186.483 639.6 215.551C632.93 183.824 581.532 158.324 546.116 156.796C452.656 152.763 408.064 253.575 438.345 328.981C454.644 369.568 480.77 406.555 510.085 440.507C534.634 468.936 599.404 530.841 599.645 530.688C599.84 530.896 678.017 487.052 708.886 465.624C745.753 440.035 780.285 410.712 806.2 375.46C854.346 309.96 826.688 199.721 735.168 180.383Z" fill="#8BC34A"/>
<path d="M599.175 530.363C599.174 530.363 599.173 530.363 599.173 530.361C599.171 530.361 599.171 530.363 599.171 530.363C598.905 530.363 569.897 502.717 543.378 475.913C543.455 475.943 543.531 475.971 543.609 475.999C568.459 501.127 595.581 527.067 599.23 530.343C599.201 530.356 599.182 530.363 599.175 530.363Z" fill="#699AA4"/>
<path d="M599.23 530.343C595.58 527.067 568.459 501.127 543.608 475.999C557.138 480.985 571.664 483.56 586.848 483.56C589.111 483.56 591.39 483.503 593.68 483.388C630.632 481.536 665.903 466.476 696.72 447.968C728.59 428.829 758.648 405.649 785.286 380.276C799.25 366.976 812.363 352.761 824.04 337.557C820.191 350.961 814.111 363.725 805.727 375.133C779.814 410.385 745.279 439.708 708.415 465.297C677.995 486.412 601.647 529.289 599.23 530.343Z" fill="#799C51"/>
<path d="M849.371 412.281C850.614 401.712 843.082 392.119 832.507 390.832C821.907 389.541 812.267 397.089 810.979 407.692L810.978 407.712L788.171 488.52C782.803 507.544 769.818 523.508 752.286 532.64L688.107 566.071L735.258 510.735C736.039 509.969 736.757 509.136 737.389 508.233L737.411 508.207L737.407 508.203C739.019 505.897 740.109 503.177 740.473 500.191C741.658 490.448 734.721 481.589 724.981 480.405C720.559 479.867 716.33 481.015 712.909 483.323L712.899 483.313L649.017 528.947C621.409 548.667 603.353 579.077 599.257 612.755L594.691 650.277C591.601 675.687 609.693 698.789 635.101 701.88C644.922 703.075 654.382 701.077 662.491 696.743C664.71 695.557 666.829 694.204 668.822 692.681L800.055 608.471C817.543 597.249 829.117 578.816 831.626 558.191L849.376 412.283L849.371 412.281Z" fill="#FFE4BB"/>
<path d="M386.179 355.933C387.509 345.373 397.121 337.865 407.695 339.152C418.297 340.441 425.845 350.081 424.555 360.681L424.551 360.703L427.317 444.62C427.969 464.377 436.746 482.989 451.577 496.059L505.87 543.901L473.362 478.873C472.786 477.943 472.29 476.963 471.893 475.935L471.877 475.904L471.881 475.901C470.87 473.276 470.463 470.373 470.827 467.387C472.011 457.644 480.87 450.708 490.611 451.893C495.031 452.431 498.862 454.559 501.631 457.621L501.643 457.613L552.721 517.232C574.795 542.996 585.034 576.848 580.935 610.528L576.371 648.048C573.281 673.457 550.177 691.548 524.769 688.459C514.947 687.263 506.242 683.055 499.409 676.904C497.538 675.22 495.806 673.399 494.237 671.441L387.021 558.224C372.733 543.137 365.917 522.467 368.426 501.84L386.177 355.933H386.179Z" fill="#FFE4BB"/>
<path d="M842.003 413.371L851.479 418.737L847.451 438.78L834.526 443.867L823.703 437.28L828.758 427.841L826.551 426.105L826.451 421.945L842.003 413.371Z" fill="#E4D2B8"/>
<path d="M895.968 202.212L918.073 239.533L917.044 331.392L859.348 423.146L838.701 412.499L884.164 331.375L875.829 268.222L895.968 202.212Z" fill="#688942"/>
<path d="M1113.59 196.471L1169.2 176.467L1204.1 93.8333L1223.32 95.08L1200.54 185.912L1180.34 208.905L1111.8 243.281L1113.59 196.471Z" fill="#2B292A"/>
<path d="M1219.21 94.8135L1224.16 85.2628L1220.71 65.0001L1209.7 67.8121L1207.92 83.3028L1202.49 86.1388L1204.1 93.8335L1219.21 94.8135Z" fill="#C1755D"/>
<path d="M1101.68 194.022C1101.57 132.36 1151.47 82.2868 1213.13 82.1802C1274.79 82.0735 1324.87 131.972 1324.97 193.635C1325.08 255.296 1275.18 305.369 1213.52 305.476C1151.86 305.584 1101.78 255.684 1101.68 194.022Z" fill="#8BC34A"/>
<path d="M1118.57 193.994C1118.48 141.662 1160.83 99.1655 1213.16 99.0735C1265.49 98.9828 1307.99 141.334 1308.08 193.664C1308.17 245.995 1265.82 288.492 1213.49 288.583C1161.16 288.674 1118.66 246.324 1118.57 193.994Z" fill="#CCCDCE"/>
<path d="M1262.76 112.869C1272.22 127.584 1277.72 145.089 1277.76 163.883C1277.84 216.213 1235.5 258.711 1183.17 258.801C1164.99 258.833 1148.01 253.741 1133.57 244.893C1150.45 271.155 1179.95 288.528 1213.49 288.471C1265.82 288.38 1308.17 245.884 1308.08 193.552C1308.01 159.395 1289.89 129.496 1262.76 112.869Z" fill="#9D9D9E"/>
<path d="M1135.19 202.634C1135.1 156.439 1172.49 118.926 1218.68 118.846C1245.69 118.799 1269.72 131.555 1285.04 151.386C1270.56 126.336 1243.46 109.503 1212.44 109.556C1166.25 109.638 1128.86 147.15 1128.94 193.346C1128.98 212.539 1135.48 230.207 1146.37 244.304C1139.28 232.043 1135.21 217.814 1135.19 202.634Z" fill="#F7F7F7"/>
<path d="M1221.04 132.657L1221.06 144.728C1225.91 145.5 1229.87 147.095 1232.96 149.512C1236.04 151.929 1238.98 155.64 1241.78 160.644L1229.79 167.379C1226.16 160.815 1221.43 157.537 1215.6 157.548C1211.99 157.555 1208.99 158.628 1206.62 160.767C1204.24 162.905 1203.05 165.577 1203.06 168.779C1203.06 171.695 1204.03 174.116 1205.97 176.041C1207.86 177.927 1211.68 180.159 1217.43 182.735C1222.4 184.985 1226.51 187.103 1229.76 189.088C1233.01 191.075 1235.45 192.989 1237.1 194.833C1241.75 199.836 1244.08 205.888 1244.09 212.991C1244.1 219.972 1242.02 226.135 1237.84 231.477C1233.7 236.781 1228.17 240.364 1221.23 242.223L1221.25 254.972L1210.48 254.991L1210.45 242.611C1202.4 241.311 1196.26 238.551 1192.03 234.329C1187.79 230.108 1184.66 223.584 1182.63 214.76L1196.17 211.903C1198.03 218.141 1200.3 222.592 1202.97 225.256C1205.77 227.799 1209.49 229.064 1214.13 229.056C1218.64 229.048 1222.42 227.584 1225.45 224.664C1228.44 221.784 1229.93 218.065 1229.93 213.508C1229.92 209.444 1228.66 206.181 1226.15 203.721C1224.88 202.533 1223 201.193 1220.51 199.697C1218.02 198.204 1214.85 196.577 1210.99 194.817C1203.01 191.26 1197.77 187.984 1195.26 184.991C1191.27 180.523 1189.27 175.168 1189.26 168.927C1189.26 165.971 1189.72 163.219 1190.66 160.671C1191.6 158.124 1192.97 155.812 1194.75 153.735C1196.53 151.659 1198.73 149.859 1201.36 148.335C1203.98 146.812 1206.96 145.615 1210.28 144.747L1210.26 132.675L1221.04 132.657Z" fill="#A9A9AA"/>
<path d="M347.115 404.629C341.34 391.837 331.287 382.243 318.892 377.44C318.963 375.625 318.999 373.817 318.999 372.027C318.999 353.331 315.335 335.188 308.106 318.099C301.127 301.599 291.141 286.785 278.423 274.069C265.709 261.352 250.894 251.365 234.394 244.387C217.306 237.159 199.162 233.493 180.466 233.493C161.771 233.493 143.627 237.159 126.539 244.387C110.039 251.365 95.2259 261.352 82.5085 274.069C69.7924 286.785 59.8065 301.599 52.8263 318.099C45.5987 335.188 41.9336 353.331 41.9336 372.027C41.9336 390.721 45.5987 408.865 52.8263 425.955C59.8049 442.453 69.7913 457.267 82.5085 469.984C95.2259 482.701 110.039 492.688 126.538 499.667C143.627 506.895 161.771 510.56 180.466 510.56C199.162 510.56 217.306 506.895 234.397 499.665C235.143 499.351 235.897 499.023 236.655 498.684L242.926 503.648C249.005 508.463 255.029 513.055 258.078 515.364C260.21 516.977 262.01 518.327 263.286 519.273C264.171 519.931 264.933 520.496 265.655 520.961C266.379 521.463 268.213 522.635 270.933 522.639H270.975C271.578 522.639 272.095 522.612 272.585 522.539L273.331 522.536L273.887 522.199C275.397 521.632 277.091 520.387 280.65 517.768C281.474 517.161 282.691 516.264 284.199 515.141L285.631 514.076C287.149 512.943 288.882 511.643 290.755 510.227C297.87 504.845 307.503 497.405 312.999 492.507C327.622 479.479 338.264 466.869 345.534 453.959C353.822 439.239 354.414 420.797 347.115 404.629Z" fill="white"/>
<path d="M181.486 255.667C150.406 255.667 121.185 267.771 99.2077 289.748C77.2317 311.725 65.1278 340.945 65.1278 372.027C65.1278 403.107 77.2317 432.327 99.2077 454.306C121.185 476.282 150.406 488.385 181.486 488.385C212.566 488.385 241.788 476.282 263.765 454.306C285.742 432.327 297.845 403.107 297.845 372.027C297.845 340.945 285.742 311.725 263.765 289.748C241.788 267.771 212.566 255.667 181.486 255.667ZM181.486 501.406C164.024 501.406 147.078 497.984 131.124 491.236C115.717 484.719 101.881 475.391 90.001 463.512C78.121 451.632 68.7945 437.796 62.2773 422.388C55.5289 406.433 52.1074 389.49 52.1074 372.027C52.1074 354.563 55.5289 337.619 62.2773 321.664C68.7945 306.256 78.121 292.422 90.001 280.542C101.881 268.662 115.717 259.334 131.124 252.816C147.078 246.068 164.024 242.647 181.486 242.647C198.95 242.647 215.894 246.068 231.849 252.816C247.256 259.334 261.092 268.662 272.972 280.542C284.852 292.422 294.178 306.256 300.696 321.664C307.444 337.619 310.866 354.563 310.866 372.027C310.866 389.49 307.444 406.433 300.696 422.388C294.178 437.796 284.852 451.632 272.972 463.512C261.092 475.391 247.256 484.719 231.849 491.236C215.894 497.984 198.95 501.406 181.486 501.406Z" fill="#AED580"/>
<path d="M187.997 494.896H174.977V249.157H187.997V494.896Z" fill="#AED580"/>
<path d="M299.253 338.373H65.7861V325.353H299.253V338.373Z" fill="#AED580"/>
<path d="M299.473 412.933H61.9443V399.913H299.473V412.933Z" fill="#AED580"/>
<path d="M175.737 500.053C175.017 499.552 157.882 487.529 140.63 465.315C130.485 452.251 122.394 438.339 116.581 423.964C109.282 405.912 105.582 387.095 105.582 368.037C105.582 348.941 109.297 330.509 116.625 313.253C122.471 299.483 130.614 286.448 140.825 274.509C158.193 254.203 175.474 244.124 176.202 243.704L182.703 254.986C182.549 255.075 166.343 264.587 150.415 283.331C141.147 294.236 133.771 306.107 128.495 318.611C121.93 334.168 118.602 350.799 118.602 368.037C118.602 385.415 121.983 402.588 128.653 419.084C134.014 432.347 141.505 445.213 150.914 457.329C166.958 477.988 183.007 489.249 183.167 489.361L175.737 500.053Z" fill="#AED580"/>
<path d="M188.957 500.053L181.522 489.364C181.685 489.251 197.997 477.753 214.041 456.992C223.386 444.901 230.82 432.067 236.14 418.844C242.744 402.423 246.093 385.329 246.093 368.037C246.093 350.699 242.726 333.98 236.086 318.343C230.76 305.799 223.32 293.899 213.976 282.972C198.046 264.35 182.15 255.078 181.992 254.986L188.493 243.704C189.221 244.124 206.502 254.203 223.87 274.509C234.081 286.448 242.222 299.483 248.07 313.253C255.398 330.509 259.113 348.941 259.113 368.037C259.113 387.095 255.413 405.912 248.113 423.964C242.301 438.339 234.21 452.251 224.065 465.315C206.813 487.529 189.678 499.552 188.957 500.053Z" fill="#AED580"/>
<path d="M304.943 383.292C292.316 382.189 276.388 388.964 272.539 399.901C268.803 388.928 249.457 382.096 236.82 383.083C203.472 385.688 191.999 423.396 206.003 448.855C213.54 462.556 224.411 474.556 236.283 485.341C246.224 494.372 271.887 513.549 271.965 513.484C272.043 513.549 297.899 494.612 307.931 485.673C319.911 474.997 330.903 463.099 338.579 449.468C352.839 424.139 338.261 386.204 304.943 383.292Z" fill="#F4BDB8"/>
<mask id="mask0_38_3" style="mask-type:luminance" maskUnits="userSpaceOnUse" x="249" y="496" width="23" height="18">
<path d="M271.784 513.388C271.784 513.388 271.784 513.388 271.783 513.388C271.672 513.388 260.191 504.835 249.628 496.472C249.657 496.479 249.685 496.485 249.713 496.492C259.619 504.337 270.364 512.373 271.803 513.379C271.792 513.385 271.787 513.388 271.784 513.388Z" fill="white"/>
</mask>
<g mask="url(#mask0_38_3)">
<path d="M249.628 513.388H271.802V496.472H249.628V513.388Z" fill="#E0E0E0"/>
</g>
<path d="M271.802 513.379C270.364 512.373 259.618 504.337 249.713 496.492C252.972 497.261 256.336 497.653 259.769 497.653C262.412 497.653 265.096 497.421 267.805 496.953C280.842 494.699 292.71 487.831 302.85 479.931C313.336 471.761 323.004 462.236 331.364 452.08C335.745 446.756 339.786 441.144 343.274 435.244C342.486 440.167 340.88 444.961 338.396 449.371C330.721 463.003 319.729 474.903 307.749 485.577C297.862 494.385 272.609 512.907 271.802 513.379Z" fill="#D6A6A2"/>
<path d="M50.9953 405.36C52.2015 410.129 60.5369 420.157 65.7859 420.924C77.9021 422.695 68.3989 409.625 66.1281 404.368C68.2072 404.132 70.2244 403.967 72.1787 403.344C73.9719 402.773 62.4495 389.357 60.1459 388.615C54.6156 386.833 52.4339 389.813 47.6719 392.4C48.8776 396.68 49.9041 401.036 50.9953 405.36Z" fill="#F4D0C1"/>
<path d="M105.487 179.252L0 312.945L45.9724 398.092L67.2531 392.34L44.4833 320.617L73.5239 283.205L131.449 238.173L105.487 179.252Z" fill="#8BC34A"/>
<path d="M117.592 188.947C122.506 187.395 127.37 185.7 131.088 181.407C137.097 174.466 138.588 161.671 141.272 153.16C144.097 144.187 147.465 134.484 155.405 129.439C160.592 126.144 165.908 126.236 171.717 127.11C175.694 127.707 175.596 129.232 179.305 127.663C182.149 126.46 185.158 121.955 186.228 119.204C188.032 114.566 186.948 109.176 184.397 104.902C180.473 98.3242 175.16 94.4962 167.822 93.1042C142.072 88.2162 120.11 100.3 108.606 124.335C103.077 135.888 103.413 149.834 97.7251 160.891C94.2131 167.718 88.7891 171.751 85.6344 179.118C77.4464 198.234 62.1795 221.879 59.5763 242.624C59.4799 243.392 59.4284 244.252 59.9154 244.854C60.9066 246.079 62.858 245.114 64.0684 244.106C71.1351 238.216 78.2011 232.327 85.2678 226.438C88.0424 224.124 90.8558 221.771 92.8851 218.783C97.9398 211.343 97.7638 200.599 104.672 194.839C108.441 191.696 113.038 190.384 117.592 188.947Z" fill="#2E3644"/>
<path d="M380.547 382.746L399.445 393.582L404.427 385.707L393.131 375.42L397.215 372.79L379.915 365.487L373.63 372.974L380.547 382.746Z" fill="#F4D0C1"/>
</svg>
