<svg  viewBox="0 0 1325 801" fill="none" xmlns="http://www.w3.org/2000/svg">
<rect  fill="#FCFCFC"/>
<path d="M948.174 732H635.369C633.763 732 632.46 730.725 632.46 729.151C632.46 727.575 633.763 726.3 635.369 726.3H948.174C949.78 726.3 951.084 727.575 951.084 729.151C951.084 730.725 949.78 732 948.174 732Z" fill="#3698AC"/>
<path d="M1094.13 714.778H240.159C238.552 714.778 237.251 713.5 237.251 711.926C237.251 710.353 238.552 709.075 240.159 709.075H1094.13C1095.74 709.075 1097.04 710.353 1097.04 711.926C1097.04 713.5 1095.74 714.778 1094.13 714.778Z" fill="#3698AC"/>
<path d="M563.334 731.88H282.336C280.729 731.88 279.427 730.606 279.427 729.031C279.427 727.456 280.729 726.18 282.336 726.18H563.334C564.94 726.18 566.243 727.456 566.243 729.031C566.243 730.606 564.94 731.88 563.334 731.88Z" fill="#3698AC"/>
<path d="M1029.14 708.71H320.015C241.323 634.049 201.024 520.329 213.115 413.645C225.208 306.962 289.982 207.212 383.473 151.295C408.756 136.173 437.861 123.817 467.193 127.845C496.525 131.871 524.218 157.801 520.191 186.559C517.296 207.239 499.399 226.152 504.851 246.331C509.804 264.67 532.904 273.287 551.89 269.584C570.876 265.88 586.632 253.424 601.926 241.795C648.919 206.066 699.706 174.298 755.537 154.207C811.371 134.115 872.69 126.141 930.879 138.208C1048.16 162.529 1137.49 269.444 1155.94 385.525C1174.4 501.606 1106.4 618.886 1029.14 708.71Z" fill="#CAEDED"/>
<path d="M412.43 708.71H539.69V519.435H412.43V708.71Z" fill="#BE3955"/>
<path d="M261.479 708.71H412.43V519.435H261.479V708.71Z" fill="#F7F7F7"/>
<path d="M321.148 542.661H346.264V519.435H321.148V542.661Z" fill="#EDACB0"/>
<path d="M476.047 542.661H490.63V519.435H476.047V542.661Z" fill="#E49BAD"/>
<path d="M321.148 708.71H346.264V688.4H321.148V708.71Z" fill="#EDACB0"/>
<path d="M412.43 559.437H421.073V519.435H412.43V559.437Z" fill="#A53454"/>
<path d="M527.46 708.71H654.72V559.437H527.46V708.71Z" fill="#F7F7F7"/>
<path d="M376.51 708.71H527.46V559.437H376.51V708.71Z" fill="#F57A5D"/>
<path d="M436.178 582.663H461.294V559.436H436.178V582.663Z" fill="#FABDB1"/>
<path d="M436.178 708.71H461.294V688.4H436.178V708.71Z" fill="#FABDB1"/>
<path d="M559.525 708.71H527.46V559.437H536.102V657.578C536.102 674.724 545.5 689.718 559.525 697.883V708.71Z" fill="#B84B5C"/>
<path d="M505.412 640.428L409.879 647.448L406.459 602.767L501.993 595.746L505.412 640.428Z" fill="#FEEFCC"/>
<path d="M428.723 621.96C428.459 620.788 427.351 619.818 425.399 619.051C425.506 622.207 425.722 625.542 426.05 629.058C428.058 626.771 428.988 624.666 428.84 622.747C428.82 622.484 428.781 622.221 428.723 621.96ZM431.029 624.83C430.869 625.276 430.721 625.723 430.581 626.17C430.388 626.695 430.17 627.118 429.925 627.44C429.385 628.217 428.845 628.987 428.305 629.745C427.659 630.663 427.061 631.313 426.512 631.694C426.337 631.935 426.143 632.186 425.931 632.446C425.719 632.708 425.499 632.848 425.268 632.866C425.153 632.872 425.016 632.856 424.859 632.809C424.7 632.764 424.528 632.711 424.339 632.649C424.149 632.587 424.011 632.475 423.922 632.312C423.803 631.524 423.71 630.679 423.641 629.774C423.57 628.852 423.503 627.475 423.44 625.644C423.378 623.811 423.312 622.434 423.24 621.512C423.147 620.289 423.013 619.169 422.839 618.162C422.818 618.144 422.59 617.943 422.156 617.558C421.887 617.332 421.745 617.115 421.729 616.909L421.765 616.62C421.843 616.389 422.046 616.241 422.369 616.179C422.616 616.123 422.863 616.076 423.111 616.04C424.752 616.26 426.509 617.021 428.386 618.322C428.877 618.666 429.281 619.033 429.601 619.425C430.626 620.694 431.183 621.911 431.272 623.08C431.317 623.683 431.237 624.266 431.029 624.83Z" fill="#3A476C"/>
<path d="M440.126 622.542C439.887 621.179 439.451 620.387 438.815 620.168L438.551 620.131C438.322 620.149 438.047 620.357 437.73 620.76C437.379 621.222 437.1 621.497 436.896 621.589C436.766 621.654 436.568 621.611 436.305 621.461C436.043 621.309 435.874 621.236 435.796 621.242L435.657 621.309C435.027 621.923 434.758 622.823 434.85 624.01C434.911 624.821 435.155 625.494 435.584 626.029C436.18 626.763 436.661 627.114 437.025 627.087C437.872 627.024 438.648 626.448 439.358 625.354C440.032 624.322 440.288 623.384 440.126 622.542ZM442.567 624.124C441.624 626.712 440.134 628.317 438.096 628.941C437.849 629.014 437.602 629.062 437.352 629.08C436.258 629.16 435.108 628.658 433.906 627.573C433.096 626.836 432.641 625.839 432.545 624.577C432.438 623.184 432.746 621.656 433.469 619.993C433.782 619.289 434.18 618.672 434.662 618.144C435.211 617.518 435.756 617.183 436.295 617.144C436.601 617.122 436.899 617.214 437.184 617.421C437.471 617.625 438.214 617.874 439.416 618.165C440.36 618.398 441.052 618.857 441.492 619.545C442.261 620.759 442.679 621.816 442.749 622.719C442.787 623.227 442.726 623.696 442.567 624.124Z" fill="#3A476C"/>
<path d="M455.211 612.119C455.134 614.662 455.069 617.213 455.014 619.773C454.918 622.81 454.947 625.334 455.101 627.35C455.151 628.009 455.22 628.656 455.308 629.293C455.349 629.594 455.259 629.866 455.037 630.11C454.814 630.353 454.548 630.486 454.242 630.507C453.645 630.552 453.116 630.193 452.652 629.432C451.243 627.169 449.432 623.592 447.223 618.699L447.065 618.54C446.932 618.549 446.854 618.687 446.837 618.954C446.715 621.67 446.77 624.517 446.998 627.491C447.107 628.921 447.257 630.379 447.447 631.86C447.509 632.404 447.374 632.793 447.043 633.025C446.92 633.167 446.779 633.244 446.627 633.254C446.491 633.264 446.314 633.22 446.096 633.124C445.797 633.012 445.608 632.941 445.528 632.91C445.272 632.853 445.101 632.638 445.016 632.265C444.973 631.966 444.931 631.657 444.886 631.338C444.747 630.287 444.635 629.189 444.548 628.041C444.394 626.045 444.319 623.541 444.32 620.531C444.336 615.948 444.345 613.409 444.346 612.918C444.333 612.502 444.673 612.267 445.365 612.218C445.689 612.155 446.186 612.355 446.86 612.817C447.562 613.922 448.463 615.73 449.565 618.241C450.617 620.646 451.548 622.461 452.358 623.689C452.454 621.162 452.616 617.347 452.843 612.236C452.872 611.855 453.136 611.645 453.636 611.609C453.809 611.597 454.013 611.611 454.246 611.65C454.561 611.702 454.747 611.736 454.806 611.751C455.003 611.813 455.139 611.935 455.211 612.119Z" fill="#3A476C"/>
<path d="M463.669 621.92C463.558 621.228 463.372 620.457 463.114 619.605C462.864 618.865 462.624 618.125 462.394 617.385C461.936 618.99 461.556 620.59 461.254 622.183C461.556 622.103 462.362 622.017 463.669 621.92ZM468.288 627.006C468.425 627.297 468.505 627.558 468.521 627.783C468.55 628.16 468.413 628.503 468.107 628.808C467.803 629.115 467.592 629.262 467.475 629.253C466.52 629.151 465.869 628.452 465.518 627.152C465.14 625.742 464.731 624.57 464.291 623.635C463.643 623.74 462.993 623.844 462.346 623.949C461.604 624.098 461.035 624.367 460.639 624.756C460.473 625.356 460.273 626.411 460.041 627.924C459.819 629.322 459.582 630.389 459.331 631.128C459.202 631.479 458.884 631.597 458.373 631.484C457.721 631.322 457.364 631.065 457.299 630.709C457.186 629.999 457.325 629.023 457.712 627.782C458.183 626.366 458.426 625.363 458.438 624.774C458.444 624.605 458.306 624.426 458.02 624.237C457.737 624.051 457.589 623.901 457.581 623.787L457.688 623.481C457.766 623.372 457.962 623.273 458.273 623.183C458.585 623.094 458.756 622.982 458.783 622.847C459.058 621.881 459.471 620.09 460.025 617.474C460.488 615.205 460.925 613.46 461.334 612.237C461.428 611.965 461.658 611.816 462.023 611.789C462.292 611.768 462.539 611.835 462.763 611.991C463.335 612.402 463.733 613.055 463.957 613.946C464.131 614.712 464.296 615.475 464.45 616.241C465.751 620.612 467.031 624.202 468.288 627.006Z" fill="#3A476C"/>
<path d="M482.579 609.625C482.458 610.316 482.161 610.735 481.689 610.884C480.464 611.276 478.323 611.831 475.267 612.548C475.241 617.263 475.349 621.184 475.589 624.311C475.679 625.496 475.787 626.662 475.914 627.809C475.96 628.164 475.961 628.439 475.92 628.633C475.845 628.94 475.665 629.094 475.375 629.097C474.816 629.12 474.337 628.922 473.938 628.508C473.539 628.091 473.299 627.613 473.22 627.069C473.127 626.377 473.054 625.643 472.994 624.87C472.9 623.627 472.834 621.655 472.802 618.948C472.776 616.357 472.703 614.382 472.581 613.029C472.059 613.029 471.342 613.13 470.43 613.328C469.385 613.559 468.66 613.687 468.258 613.716C467.315 613.784 466.528 613.595 465.895 613.145C465.626 612.669 465.492 612.421 465.491 612.402C465.48 612.269 465.536 612.122 465.658 611.959C466.258 611.705 467.501 611.424 469.391 611.113C471.049 610.82 472.274 610.424 473.067 609.926C473.757 610.102 474.533 610.159 475.398 610.095C476.263 610.032 477.081 609.868 477.853 609.603C478.082 609.569 478.658 609.392 479.581 609.077C480.26 608.857 480.832 608.76 481.297 608.781C481.642 608.757 481.798 608.887 481.762 609.174C482.28 609.137 482.553 609.285 482.579 609.625Z" fill="#3A476C"/>
<path d="M488.895 612.653C488.207 612.989 487.185 613.395 485.83 613.875C484.476 614.353 483.454 614.758 482.764 615.093C482.63 615.595 482.587 616.696 482.641 618.397C482.957 618.486 483.317 618.518 483.719 618.486C484.009 618.467 484.456 618.386 485.065 618.246C485.672 618.108 486.12 618.028 486.407 618.005C486.946 617.966 487.415 618.047 487.817 618.243C488.114 618.6 488.268 618.835 488.276 618.947L488.097 619.273C488.061 619.294 487.937 619.436 487.725 619.699C487.583 619.878 487.397 619.969 487.167 619.966C486.77 620.091 486.035 620.201 484.959 620.298C484.058 620.384 483.347 620.55 482.824 620.796C482.566 622.218 482.468 623.332 482.529 624.142C482.572 624.688 482.682 625.115 482.86 625.423C483.809 625.978 485.396 626.127 487.617 625.868C487.771 625.858 487.929 625.774 488.091 625.622C488.253 625.466 488.392 625.387 488.506 625.378C489.037 625.224 489.423 625.595 489.665 626.486C489.745 626.782 489.713 627.064 489.569 627.329C489.426 627.596 489.202 627.751 488.895 627.791C486.576 628.038 484.545 628.008 482.802 627.702C482.253 627.607 481.742 627.352 481.265 626.933C480.789 626.513 480.501 626.023 480.4 625.462C480.101 623.838 479.988 622.367 480.063 621.056C479.497 620.738 479.23 620.408 479.262 620.065C479.268 619.895 479.405 619.729 479.672 619.566C479.941 619.404 480.087 619.246 480.115 619.093C480.142 618.939 480.15 618.039 480.141 616.394C479.048 616.265 478.49 615.909 478.464 615.323C478.441 614.776 478.745 614.319 479.375 613.951C479.97 613.661 480.565 613.371 481.163 613.079C481.844 612.671 482.714 612.284 483.768 611.924C484.691 611.61 485.614 611.305 486.538 611.009L486.883 610.956C487.4 610.917 488.021 611.071 488.743 611.415C488.767 611.49 488.826 611.628 488.92 611.828C489.013 612.03 489.063 612.179 489.071 612.272C489.081 612.423 489.022 612.55 488.895 612.653Z" fill="#3A476C"/>
<path d="M791.415 127.982C776.588 170.199 741.201 165.489 725.187 136.889L731.304 180.568L797.532 171.661L791.415 127.982Z" fill="#8BC34A"/>
<path d="M810.376 146.092L808.095 134.336L795.638 156.194L765.212 181.784L728.876 165.172L710.869 147.411L711.905 159.336C714.559 189.884 709.088 220.585 696.025 248.442L695.711 249.11L773.181 238.691L850.651 228.273L850.162 227.711C829.926 204.333 816.218 176.211 810.376 146.092Z" fill="#8BC34A"/>
<path d="M820.263 148.819C820.045 150.723 818.692 153.094 815.594 153.511L708.92 167.856C705.82 168.273 703.866 166.348 703.134 164.573C702.4 162.797 702.438 160.081 704.961 158.269L756.709 121.063L816.772 143.231C819.699 144.311 820.48 146.916 820.263 148.819ZM818.051 139.902L758.079 117.769L756.593 107.155C756.185 104.252 753.446 102.214 750.483 102.612C745.703 103.255 741.267 100.115 740.33 95.5391C740.292 95.3582 739.483 89.622 739.456 89.4366C738.776 84.5675 742.263 80.0602 747.233 79.392L749.734 79.0556C754.703 78.3873 759.302 81.8063 759.984 86.6754L760.316 89.048C760.452 90.0212 761.369 90.7014 762.36 90.5683C763.354 90.4353 764.048 89.5382 763.91 88.565L763.579 86.1926C763.094 82.7332 761.193 79.8016 758.535 77.8716C755.955 76.0014 752.662 75.0715 749.24 75.5305L746.738 75.8668C739.787 76.8027 734.907 83.1069 735.862 89.9194C735.886 90.1063 736.695 95.844 736.728 96.0249C737.943 102.544 744.214 107.046 750.978 106.137C751.957 106.004 752.862 106.679 752.996 107.638L754.483 118.253L702.813 155.4C699.407 157.849 698.185 162.071 699.77 165.907C701.353 169.743 705.229 171.943 709.414 171.38L816.088 157.033C820.271 156.471 823.4 153.33 823.87 149.216C824.342 145.104 822.004 141.361 818.051 139.902Z" fill="#3A476C"/>
<path d="M850.651 228.273C804.771 206.202 801.882 181.421 808.097 134.336L791.416 127.982L789.213 146.798C787.819 158.716 778.363 168.192 766.235 169.823L763.587 170.181L760.937 170.536C748.812 172.166 737.098 165.537 732.479 154.43L725.187 136.889L710.869 147.411C729.797 191.116 733.827 215.744 695.711 249.11L712.891 341.718C716.869 363.167 719.165 384.881 719.757 406.673L720.236 424.246L797.705 413.826L875.175 403.406L870.805 386.359C865.385 365.216 861.626 343.698 859.564 321.992L850.651 228.273Z" fill="#F7F7F7"/>
<path d="M687.921 249.729C698.407 258.724 714.441 260.916 727.039 255.078C735.634 251.094 742.371 243.822 746.733 235.539C749.573 230.142 751.454 224.324 752.696 218.363C729.553 217.263 701.024 217.175 675.799 220.754C675.18 231.522 679.61 242.601 687.921 249.729Z" fill="#F89C46"/>
<path d="M682.206 255.084C694.907 265.981 714.333 268.636 729.591 261.563C740.006 256.737 748.166 247.928 753.449 237.895C756.622 231.866 758.804 225.402 760.306 218.768C757.845 218.623 755.305 218.487 752.695 218.363C751.453 224.324 749.572 230.142 746.732 235.539C742.371 243.822 735.633 251.094 727.039 255.078C714.44 260.916 698.406 258.724 687.92 249.729C679.609 242.601 675.18 231.522 675.799 220.754C674.455 220.945 673.117 221.142 671.793 221.355C670.321 221.589 668.872 221.896 667.435 222.244C667.391 234.56 672.719 246.948 682.206 255.084Z" fill="white"/>
<path d="M854.838 323.179C854.838 323.179 839.385 277.761 815.625 243.432C806.176 229.78 790.923 221.077 774.146 219.733C769.938 219.395 765.285 219.064 760.306 218.77C758.805 225.403 756.622 231.866 753.449 237.895C748.167 247.928 740.007 256.737 729.591 261.563C714.332 268.636 694.907 265.981 682.206 255.084C672.72 246.948 667.39 234.56 667.435 222.244C654.852 225.286 643.689 232.54 635.961 242.851C622.343 261.022 599.666 292.048 580.358 322.166C590.037 333.858 603.315 342.651 617.994 347.093C617.442 357.366 615.999 379.028 615.999 379.028L804.091 378.867C804.091 378.867 799.859 363.657 799.859 347.144C817.512 342.425 831.421 338.755 854.838 323.179Z" fill="#FCCD50"/>
<path d="M613.029 325.973C618.419 335.289 615.236 341.102 610.902 344.553C613.224 345.508 615.587 346.365 617.994 347.093C619.048 313.722 631.485 266.145 638.706 252.384C618.244 278.335 602.598 307.95 613.029 325.973Z" fill="#F89C46"/>
<path d="M793.172 229.973C764.286 229.185 760.46 281.087 775.211 355.4C781.136 356.58 785.95 355.4 785.95 355.4C785.67 362.887 787.282 371.948 788.881 378.88L804.091 378.867C804.091 378.867 799.859 363.657 799.859 347.144C791.968 349.896 783.142 350.289 783.142 350.289C776.723 292.883 765.088 245.307 793.172 229.973Z" fill="#F89C46"/>
<path d="M983.309 270.385C974.498 277.943 961.026 279.785 950.44 274.878C943.216 271.531 937.557 265.421 933.892 258.461C931.505 253.927 929.926 249.038 928.883 244.028C948.328 243.105 972.3 243.03 993.493 246.038C994.015 255.085 990.293 264.396 983.309 270.385Z" fill="#8BC34A"/>
<path d="M988.109 274.884C977.437 284.04 961.117 286.27 948.295 280.329C939.544 276.273 932.685 268.872 928.248 260.44C925.581 255.374 923.749 249.944 922.486 244.369C924.553 244.247 926.689 244.133 928.882 244.028C929.926 249.038 931.505 253.927 933.892 258.461C937.556 265.421 943.216 271.531 950.44 274.878C961.025 279.785 974.498 277.943 983.309 270.385C990.292 264.396 994.014 255.085 993.493 246.038C994.623 246.198 995.747 246.364 996.859 246.543C998.095 246.74 999.314 246.997 1000.52 247.29C1000.56 257.637 996.081 268.046 988.109 274.884Z" fill="#F57E5A"/>
<path d="M843.057 332.1C843.057 332.1 856.04 293.939 876.006 265.093C883.945 253.622 896.76 246.308 910.858 245.18C914.394 244.896 918.302 244.618 922.487 244.37C923.75 249.944 925.582 255.374 928.248 260.442C932.686 268.872 939.544 276.273 948.296 280.329C961.117 286.27 977.438 284.04 988.11 274.885C996.082 268.047 1000.56 257.637 1000.52 247.291C1011.1 249.847 1020.47 255.942 1026.97 264.605C1038.41 279.873 1057.47 305.942 1073.69 331.251C1065.56 341.073 1054.4 348.462 1042.06 352.194C1042.53 360.827 1043.74 379.028 1043.74 379.028L885.696 378.894C885.696 378.894 889.252 366.112 889.252 352.237C874.42 348.272 862.733 345.188 843.057 332.1Z" fill="#F7F7F7"/>
<path d="M1046.24 334.45C1041.71 342.276 1044.38 347.161 1048.02 350.06C1046.07 350.863 1044.09 351.582 1042.06 352.193C1041.18 324.154 1030.73 284.179 1024.66 272.615C1041.85 294.419 1055 319.304 1046.24 334.45Z" fill="#8BC34A"/>
<path d="M894.872 253.783C919.143 253.123 922.359 296.734 909.965 359.175C904.986 360.166 900.94 359.175 900.94 359.175C901.175 365.466 899.82 373.08 898.477 378.904L885.696 378.894C885.696 378.894 889.252 366.112 889.252 352.237C895.883 354.55 903.298 354.88 903.298 354.88C908.694 306.645 918.47 266.668 894.872 253.783Z" fill="#8BC34A"/>
<path d="M948.904 709.075H1064.66V379.028H948.904V709.075Z" fill="#F7F7F7"/>
<path d="M559.524 709.075H948.904V379.028H559.524V709.075Z" fill="#F57A5D"/>
<path d="M1064.66 709.075H948.904V379.028H1064.66V465.887H1028.28C1001.69 465.887 980.136 487.011 980.136 513.071V600.357C980.136 641.183 1013.91 674.278 1055.56 674.278H1064.66V709.075Z" fill="#F7F7F7"/>
<path d="M948.904 709.075H559.524V677.032H768.782C768.935 682.889 769.099 686.117 769.099 686.117H823.663C823.663 680.526 823.739 674.948 823.884 669.381C840.731 661.194 854.016 647.016 860.832 629.694C861.651 662.847 862.983 686.117 862.983 686.117H918.349C910.554 515.751 952.025 441.332 943.339 388.098L948.904 379.028V709.075ZM862.64 499.224C860.411 493.565 857.099 488.432 852.955 484.07C856.873 471.324 860.811 460.556 864.51 452.254H867.886C865.52 466.11 863.825 482.158 862.64 499.224ZM788.125 469.032H559.524V452.254H792.436C790.904 457.81 789.47 463.401 788.125 469.032Z" fill="#C45F5A"/>
<path d="M903.978 452.254H514.598L559.525 379.028H948.904L903.978 452.254Z" fill="#F68777"/>
<path d="M1108.52 452.254H992.77L948.904 379.028H1064.66L1108.52 452.254Z" fill="#F57A5D"/>
<path d="M641.641 366.327C629.045 366.327 617.452 373.561 612.619 384.959C607.317 397.462 604.93 411.328 604.275 424.937C603.27 445.817 605.938 466.697 606.101 487.603C606.264 508.505 603.699 530.098 593.156 548.273C604.882 559.32 623.418 560.654 639.685 560.741C655.953 560.829 672.904 559.63 687.803 566.034C693.769 534.48 681.013 502.056 679.593 469.995C678.099 436.279 691.54 402.779 716.005 379.028H730.048C723.811 371.024 714.123 366.327 703.846 366.327H641.641Z" fill="white"/>
<path d="M630.234 519.435C624.137 519.435 616.155 518.237 610.18 513.048C609.848 512.761 609.817 512.263 610.11 511.939C610.408 511.611 610.913 511.582 611.244 511.872C617.297 517.126 625.658 518.035 631.587 517.841C636.445 517.697 641.351 516.862 646.094 516.054C648.561 515.636 651.111 515.201 653.639 514.866C663.034 513.616 670.159 514.21 676.066 516.741C676.472 516.914 676.658 517.379 676.479 517.775C676.302 518.173 675.831 518.357 675.424 518.182C669.799 515.772 662.946 515.214 653.854 516.422C651.357 516.756 648.821 517.186 646.368 517.603C641.571 518.421 636.609 519.267 631.636 519.415C631.181 519.429 630.713 519.435 630.234 519.435Z" fill="#FCD7BF"/>
<path d="M628.851 505.077C632.672 497.392 634.837 487.423 635.115 476.806C635.455 466.176 633.969 454.92 632.297 443.947C630.67 432.987 629.37 422.013 630.908 411.883C632.399 401.788 636.637 392.638 642.956 386.7C641.2 387.958 639.481 389.432 637.874 391.134C636.297 392.857 634.837 394.796 633.534 396.91C630.93 401.145 629.056 406.092 627.89 411.348C625.572 421.955 626.613 433.493 628.249 444.514C629.933 455.566 631.704 466.446 632.049 476.815C632.439 487.153 631.39 496.903 628.851 505.077Z" fill="#FCD7BF"/>
<path d="M655.867 493.128C656.831 486.693 657.401 479.163 657.272 471.114C657.153 463.069 656.332 454.511 654.776 446.08C653.225 437.636 650.903 429.49 650.485 421.66C649.998 413.875 651.536 406.39 655.176 400.904C652.971 403.334 651.146 406.49 649.96 410.071C648.766 413.65 648.177 417.622 648.145 421.712C648.061 429.934 650.198 438.363 651.707 446.622C654.831 463.217 655.786 480.125 655.867 493.128Z" fill="#FCD7BF"/>
<path d="M972.646 379.028C993.87 391.107 999.758 420.156 999.046 444.198C998.831 451.425 997.813 458.647 998.274 465.864C998.736 473.081 1000.88 480.515 1006.04 485.685C1010.87 490.53 1017.9 492.853 1024.8 493.179C1032.33 493.533 1039.8 491.723 1047 489.615C1054.86 487.31 1062.62 484.65 1070.22 481.608C1079.4 477.933 1089.82 474.964 1096.13 466.824C1098.26 464.076 1099.68 460.81 1099.97 457.372C1100.91 446.455 1090.98 440.922 1081.73 440.254C1074.69 439.744 1067.69 441.438 1060.66 442.133C1053.63 442.826 1045.99 442.347 1040.37 438.143C1035.69 434.638 1033.12 429.03 1031.77 423.409C1030.43 417.788 1030.14 411.977 1029.02 406.311C1026.61 394.139 1020.22 382.767 1011.1 374.186C1008.6 371.84 1005.29 370.513 1001.83 370.513H985.119C979.554 370.513 974.575 373.911 972.646 379.028Z" fill="#3A476C"/>
<path d="M1004.9 397.883C1011.36 394.64 1019.15 394.085 1026.05 396.259C1024.65 392.707 1022.91 389.286 1020.87 386.048C1014.8 384.885 1008.33 385.7 1002.82 388.463C997.844 390.961 993.759 395.029 991.104 399.845C992.284 402.315 993.313 404.886 994.204 407.534C996.842 403.478 1000.53 400.074 1004.9 397.883Z" fill="white"/>
<path d="M1010.19 416.481C1016.32 413.406 1023.64 412.774 1030.27 414.569C1029.91 411.807 1029.56 409.042 1029.02 406.311C1028.95 405.972 1028.87 405.637 1028.8 405.298C1022.01 403.296 1014.43 403.894 1008.11 407.065C1003.45 409.406 999.542 413.124 996.885 417.552C997.585 420.96 998.111 424.42 998.468 427.877C1001.12 423.056 1005.21 418.981 1010.19 416.481Z" fill="white"/>
<path d="M789.571 670.136L620.469 657.453L626.647 578.363L795.747 591.045L789.571 670.136Z" fill="#FEEFCC"/>
<path d="M660.385 617.772C660.243 615.649 658.568 613.664 655.36 611.814C654.687 617.362 654.159 623.257 653.775 629.495C657.91 626.018 660.112 622.578 660.377 619.179C660.414 618.714 660.415 618.244 660.385 617.772ZM663.64 623.396C663.239 624.139 662.856 624.88 662.491 625.625C662.012 626.492 661.515 627.176 660.996 627.673C659.84 628.893 658.685 630.099 657.534 631.285C656.155 632.724 654.933 633.705 653.866 634.229C653.494 634.603 653.088 634.991 652.648 635.394C652.204 635.797 651.78 635.983 651.371 635.952C651.166 635.937 650.933 635.868 650.669 635.749C650.404 635.628 650.117 635.489 649.804 635.332C649.49 635.175 649.278 634.94 649.165 634.629C649.173 633.224 649.238 631.718 649.363 630.12C649.491 628.486 649.749 626.058 650.138 622.837C650.526 619.614 650.785 617.186 650.912 615.555C651.083 613.387 651.151 611.397 651.122 609.585C651.09 609.55 650.747 609.14 650.089 608.351C649.681 607.887 649.491 607.469 649.52 607.101C649.533 606.936 649.578 606.773 649.661 606.61C649.862 606.222 650.254 606.018 650.837 605.995C651.285 605.962 651.731 605.944 652.175 605.944C654.986 606.758 657.855 608.549 660.786 611.317C661.55 612.045 662.159 612.795 662.61 613.565C664.059 616.054 664.703 618.331 664.542 620.397C664.458 621.464 664.156 622.463 663.64 623.396Z" fill="#3A476C"/>
<path d="M680.185 621.771C680.138 619.32 679.587 617.821 678.536 617.274C678.37 617.195 678.219 617.15 678.085 617.139C677.677 617.109 677.14 617.404 676.477 618.024C675.736 618.739 675.174 619.15 674.79 619.255C674.544 619.337 674.21 619.211 673.792 618.878C673.373 618.546 673.096 618.373 672.959 618.362L672.698 618.443C671.429 619.355 670.714 620.859 670.549 622.959C670.438 624.393 670.682 625.635 671.284 626.686C672.131 628.124 672.875 628.866 673.522 628.914C675.019 629.026 676.535 628.218 678.072 626.49C679.534 624.856 680.237 623.284 680.185 621.771ZM684.025 625.176C681.671 629.458 678.626 631.878 674.889 632.436C674.439 632.501 673.992 632.52 673.55 632.486C671.612 632.342 669.737 631.162 667.927 628.948C666.711 627.449 666.188 625.583 666.362 623.349C666.555 620.883 667.51 618.29 669.228 615.568C669.968 614.418 670.831 613.444 671.817 612.645C672.952 611.693 673.995 611.251 674.947 611.321C675.49 611.363 675.986 611.6 676.43 612.037C676.875 612.472 678.108 613.101 680.132 613.924C681.723 614.58 682.807 615.565 683.389 616.882C684.405 619.205 684.85 621.165 684.725 622.765C684.655 623.665 684.42 624.469 684.025 625.176Z" fill="#3A476C"/>
<path d="M709.419 607.47C708.593 611.901 707.786 616.35 706.991 620.816C705.996 626.105 705.362 630.532 705.082 634.098C704.991 635.265 704.933 636.417 704.915 637.553C704.907 638.09 704.674 638.541 704.219 638.911C703.761 639.278 703.263 639.441 702.718 639.401C701.664 639.322 700.834 638.556 700.229 637.104C698.38 632.774 696.185 626.039 693.649 616.897C693.597 616.693 693.52 616.586 693.417 616.579C693.179 616.561 693.007 616.784 692.905 617.244C691.953 621.968 691.273 626.96 690.862 632.227C690.664 634.759 690.53 637.347 690.46 639.99C690.418 640.96 690.077 641.603 689.438 641.924C689.181 642.14 688.916 642.237 688.646 642.216C688.405 642.2 688.107 642.077 687.75 641.848C687.258 641.578 686.946 641.403 686.815 641.326C686.384 641.157 686.144 640.739 686.094 640.065C686.101 639.529 686.111 638.976 686.121 638.408C686.164 636.534 686.266 634.58 686.425 632.548C686.699 629.016 687.249 624.614 688.071 619.348C689.346 611.329 690.052 606.892 690.188 606.028C690.278 605.298 690.937 604.978 692.16 605.071C692.745 605.047 693.561 605.527 694.613 606.512C695.542 608.627 696.629 612.027 697.872 616.712C699.06 621.194 700.195 624.613 701.277 626.973C702.132 622.58 703.455 615.941 705.244 607.058C705.398 606.4 705.917 606.102 706.802 606.168C707.107 606.192 707.461 606.27 707.86 606.4C708.394 606.575 708.71 606.681 708.811 606.721C709.139 606.881 709.343 607.132 709.419 607.47Z" fill="#3A476C"/>
<path d="M721.551 626.835C721.546 625.595 721.432 624.195 721.212 622.636C720.976 621.279 720.756 619.92 720.555 618.564C719.318 621.255 718.218 623.955 717.255 626.663C717.806 626.604 719.238 626.662 721.551 626.835ZM728.252 636.941C728.414 637.49 728.481 637.965 728.449 638.363C728.397 639.031 728.062 639.593 727.445 640.048C726.828 640.505 726.419 640.708 726.219 640.661C724.573 640.236 723.623 638.842 723.363 636.475C723.086 633.906 722.689 631.748 722.176 629.998C721.011 630.012 719.849 630.025 718.685 630.039C717.345 630.108 716.276 630.429 715.478 631.005C715.024 632.011 714.388 633.807 713.57 636.394C712.801 638.781 712.096 640.589 711.454 641.815C711.135 642.396 710.543 642.519 709.68 642.186C708.586 641.734 708.031 641.19 708.013 640.551C708.01 639.278 708.515 637.606 709.532 635.537C710.743 633.182 711.439 631.491 711.622 630.464C711.678 630.168 711.483 629.818 711.036 629.414C710.588 629.012 710.373 628.711 710.389 628.511C710.402 628.345 710.493 628.176 710.659 628.004C710.827 627.833 711.196 627.708 711.767 627.635C712.336 627.56 712.664 627.409 712.749 627.179C713.494 625.56 714.705 622.533 716.383 618.1C717.814 614.252 719.051 611.312 720.102 609.277C720.341 608.829 720.784 608.627 721.431 608.675C721.905 608.709 722.32 608.89 722.669 609.22C723.559 610.09 724.079 611.336 724.227 612.956C724.323 614.339 724.404 615.719 724.466 617.099C725.552 625.089 726.815 631.704 728.252 636.941Z" fill="#3A476C"/>
<path d="M757.992 610.261C757.592 611.438 756.959 612.094 756.094 612.23C753.841 612.596 749.944 613.007 744.4 613.465C743.073 621.711 742.195 628.601 741.763 634.133C741.6 636.233 741.471 638.302 741.38 640.34C741.363 640.975 741.293 641.456 741.165 641.781C740.953 642.302 740.593 642.527 740.086 642.455C739.102 642.347 738.317 641.878 737.733 641.047C737.148 640.215 736.858 639.314 736.866 638.343C736.895 637.106 736.962 635.801 737.069 634.435C737.241 632.235 737.664 628.764 738.344 624.022C739.006 619.481 739.414 616.006 739.568 613.604C738.655 613.469 737.374 613.457 735.722 613.566C733.832 613.694 732.528 613.729 731.815 613.677C730.15 613.552 728.824 613.013 727.837 612.06C727.497 611.155 727.329 610.687 727.332 610.653C727.35 610.418 727.489 610.174 727.745 609.925C728.865 609.638 731.117 609.467 734.508 609.417C737.488 609.336 739.743 608.965 741.265 608.301C742.425 608.79 743.767 609.092 745.297 609.207C746.829 609.322 748.305 609.249 749.729 608.986C750.139 608.984 751.195 608.829 752.896 608.52C754.143 608.312 755.171 608.288 755.978 608.451C756.592 608.496 756.827 608.766 756.686 609.257C757.603 609.327 758.039 609.659 757.992 610.261Z" fill="#3A476C"/>
<path d="M768.224 617.212C766.926 617.617 765.028 618.061 762.526 618.544C760.026 619.029 758.127 619.473 756.83 619.876C756.457 620.721 756.085 622.637 755.714 625.626C756.243 625.867 756.862 626.015 757.578 626.068C758.089 626.106 758.893 626.082 759.996 625.996C761.097 625.913 761.903 625.889 762.412 625.926C763.364 625.998 764.165 626.261 764.813 626.709C765.237 627.412 765.442 627.864 765.426 628.064C765.408 628.297 765.274 628.472 765.025 628.586C764.955 628.615 764.699 628.831 764.258 629.233C763.962 629.512 763.611 629.622 763.207 629.557C762.479 629.67 761.163 629.673 759.256 629.562C757.654 629.475 756.362 629.58 755.383 629.876C754.544 632.293 754.068 634.219 753.957 635.651C753.882 636.618 753.957 637.394 754.185 637.98C755.697 639.202 758.432 639.876 762.389 640.004C762.661 640.025 762.961 639.921 763.286 639.695C763.611 639.467 763.876 639.362 764.081 639.376C765.048 639.248 765.623 639.995 765.806 641.619C765.866 642.158 765.733 642.644 765.408 643.073C765.083 643.501 764.648 643.711 764.101 643.703C759.977 643.527 756.431 642.942 753.465 641.951C752.532 641.646 751.705 641.063 750.985 640.206C750.263 639.347 749.893 638.414 749.868 637.406C749.789 634.485 749.99 631.884 750.479 629.608C749.575 628.903 749.199 628.254 749.348 627.662C749.405 627.366 749.688 627.11 750.202 626.895C750.713 626.684 751.015 626.447 751.104 626.185C751.194 625.923 751.453 624.351 751.883 621.468C750.006 620.957 749.127 620.189 749.241 619.157C749.351 618.193 750.006 617.472 751.206 616.991C752.329 616.64 753.45 616.288 754.573 615.936C755.88 615.399 757.505 614.949 759.45 614.593C761.149 614.285 762.848 613.994 764.546 613.717C764.719 613.698 764.923 613.696 765.162 613.714C766.079 613.783 767.124 614.213 768.294 615.004C768.315 615.14 768.383 615.397 768.489 615.773C768.598 616.151 768.645 616.423 768.631 616.589C768.611 616.856 768.474 617.063 768.224 617.212Z" fill="#3A476C"/>
<path d="M818.683 383.468C759.47 496.599 769.1 686.117 769.1 686.117H823.663C823.663 577.596 852.038 471.435 869.947 441.552C853.353 517.831 862.983 686.117 862.983 686.117H918.349C910.325 510.753 954.501 437.05 942.444 383.468H818.683Z" fill="#5D6456"/>
<path d="M911.14 680.349C910.726 680.349 910.374 680.037 910.342 679.627C903.102 591.743 916.329 516.762 925.99 462.012C931.445 431.09 935.754 406.664 935.025 388.865C935.008 388.431 935.353 388.067 935.794 388.047C936.259 388.053 936.613 388.369 936.63 388.802C937.365 406.767 933.044 431.265 927.57 462.281C917.925 516.947 904.716 591.813 911.94 679.5C911.976 679.934 911.648 680.314 911.205 680.346L911.14 680.349Z" fill="#CF3D75"/>
<path d="M929.688 428.795C929.485 428.795 929.281 428.719 929.125 428.568C924.364 423.973 920.975 417.348 919.326 409.41C917.858 402.36 917.831 395.093 917.802 388.062C917.8 387.629 918.159 387.274 918.603 387.273H918.606C919.047 387.273 919.405 387.624 919.407 388.056C919.436 395.009 919.463 402.2 920.9 409.096C922.485 416.727 925.719 423.073 930.249 427.447C930.567 427.753 930.57 428.251 930.26 428.561C930.103 428.716 929.895 428.795 929.688 428.795Z" fill="#CF3D75"/>
<path d="M941.918 338.435L932.793 234.34L920.942 223.724H880.701C880.701 223.724 864.589 243.121 849.691 223.724H808.227L816.015 341.497C816.296 345.756 815.569 350.021 813.889 353.959C810.341 362.283 811.152 371.78 816.067 379.409L818.684 383.468H942.445L946.078 375.907C950.087 367.565 949.82 357.853 945.358 349.734C943.436 346.238 942.264 342.392 941.918 338.435Z" fill="#8BC34A"/>
<path d="M894.041 378.825C907.541 372.785 917.252 360.751 920.138 346.484L935.829 268.954L895.095 254.004L865.196 323.595L815.819 338.528L816.016 341.497C816.297 345.756 815.569 350.021 813.889 353.959C810.341 362.283 811.153 371.78 816.068 379.409L818.684 383.468H883.663L894.041 378.825Z" fill="#45A9D3"/>
<path d="M818.683 383.468C813.183 393.975 808.28 405.144 803.906 416.753L851.749 407.344L859.773 394.157L883.663 383.468H818.683Z" fill="#3F244A"/>
<path d="M901.699 686.117H872.41L862.164 699.892C859.693 703.21 856.242 705.707 852.277 707.042L844.739 709.581C839.599 711.313 835.476 714.936 833.113 719.538H910.978C909.819 698.365 901.699 686.117 901.699 686.117Z" fill="#3A476C"/>
<path d="M910.978 719.538H890.665V726.026H911.126C911.164 723.767 911.092 721.625 910.978 719.538Z" fill="#3F244A"/>
<path d="M833.113 719.538C832.084 721.541 831.383 723.727 831.086 726.026H872.046L890.665 719.538H833.113Z" fill="#3F244A"/>
<path d="M804.559 686.117H775.272L765.024 699.892C762.555 703.21 759.102 705.707 755.139 707.042L747.599 709.581C742.46 711.313 738.338 714.936 735.974 719.538H813.84C812.681 698.365 804.559 686.117 804.559 686.117Z" fill="#3A476C"/>
<path d="M813.839 719.538H793.526V726.026H813.987C814.024 723.767 813.952 721.625 813.839 719.538Z" fill="#3F244A"/>
<path d="M735.974 719.538C734.944 721.541 734.244 723.727 733.946 726.026H774.908L793.527 719.538H735.974Z" fill="#3F244A"/>
<path d="M808.226 223.724C800.449 223.724 793.476 228.427 790.701 235.548L779.264 264.877H810.947L808.226 223.724Z" fill="#66CDE0"/>
<path d="M810.948 264.877L809.165 237.883L799.859 264.877H810.948Z" fill="#45A9D3"/>
<path d="M880.7 223.724L874.217 191.046L849.69 210.618V223.724C864.588 243.121 880.7 223.724 880.7 223.724Z" fill="#FAB590"/>
<path d="M874.217 191.046C873.013 206.161 861.912 220.186 849.69 218.088V210.618L874.217 191.046Z" fill="#F46F7C"/>
<path d="M818.897 166.626L820.886 183.245C821.91 191.796 825.647 199.818 831.572 206.176C836.456 211.421 843.533 214.168 850.757 213.629C856.92 213.17 862.653 210.353 866.716 205.789L869.201 202.998C875.067 196.41 878.636 188.162 879.391 179.449L880.587 165.66C882.125 147.927 867.851 132.701 849.692 132.701C831.137 132.701 816.735 148.565 818.897 166.626Z" fill="#FAB590"/>
<path d="M876.315 187.939C874.75 183.693 873.949 179.213 873.949 174.697V169.987C867.197 165.19 863.072 157.612 862.77 149.444L862.716 147.968C852.371 158.369 836.212 164.594 821.425 163.65C814 163.178 805.722 160.459 804.276 152.13C803.881 149.846 804.143 147.485 804.863 145.279C806.796 139.372 811.409 135.103 816.093 131.198C823.336 125.16 831.31 119.512 840.558 117.344C849.804 115.176 860.603 117.191 866.639 124.391C872.08 120.229 880.984 121.19 886.584 125.146C892.184 129.1 895.323 135.757 896.263 142.459C897.201 149.16 896.175 155.972 894.829 162.607C893.725 168.052 892.379 173.528 889.684 178.41C886.987 183.293 881.98 187.939 876.315 187.939Z" fill="#9F2E46"/>
<path d="M881.985 174.664C884.077 172.677 887.463 171.693 889.96 173.16C892.035 174.378 892.938 176.899 893.083 179.264C893.409 184.534 890.525 189.875 885.895 192.573C883.648 193.883 880.634 194.533 878.501 193.05C876.896 191.935 876.222 189.865 876.315 187.939C876.428 185.625 877.394 183.094 878.21 180.925C879.059 178.669 880.203 176.356 881.985 174.664Z" fill="#FAB590"/>
<path d="M889.555 181.156C889.234 180.363 888.902 179.557 888.364 178.884C887.829 178.211 887.044 177.676 886.173 177.63C885.345 177.586 884.541 177.993 883.955 178.572C883.371 179.15 882.981 179.887 882.647 180.632C881.773 182.583 881.237 184.68 881.068 186.806C880.988 187.825 881.114 189.063 882.041 189.533C883.017 190.027 884.171 189.314 884.935 188.541C886.003 187.464 886.9 186.087 886.872 184.584C886.843 183.082 885.566 181.553 884.039 181.68C884.036 180.567 885.281 179.237 886.408 179.098C887.536 178.959 889.278 180.078 889.555 181.156Z" fill="#F46F7C"/>
<path d="M862.037 171.004H844.643C845.079 169.026 847.045 167.416 849.001 166.776C850.958 166.135 853.115 166.31 855.095 166.88C857.539 167.584 860.211 169.26 862.037 171.004Z" fill="#9F2E46"/>
<path d="M850.953 182.278C849.844 182.278 848.947 181.397 848.947 180.312V178.155C848.947 177.069 849.844 176.189 850.953 176.189C852.061 176.189 852.958 177.069 852.958 178.155V180.312C852.958 181.397 852.061 182.278 850.953 182.278Z" fill="#3F244A"/>
<path d="M821.046 171.004H831.796C831.527 169.026 830.313 167.416 829.103 166.775C827.894 166.135 826.56 166.31 825.335 166.88C823.825 167.584 822.173 169.26 821.046 171.004Z" fill="#9F2E46"/>
<path d="M827.435 182.278C828.201 182.278 828.822 181.669 828.822 180.919V177.548C828.822 176.797 828.201 176.189 827.435 176.189C826.67 176.189 826.049 176.797 826.049 177.548V180.919C826.049 181.669 826.67 182.278 827.435 182.278Z" fill="#3F244A"/>
<path d="M841.832 189.763H829.131C829.967 191.088 831.639 192.194 833.61 192.315C835.004 192.4 836.403 192.095 837.646 191.62C838.892 191.146 840.727 190.4 841.832 189.763Z" fill="#F46F7C"/>
<path d="M832.418 199.534C839.89 199.41 847.364 199.284 854.837 199.16C852.27 202.593 848 205.067 843.659 205.146C839.318 205.225 835.11 202.871 832.418 199.534Z" fill="white"/>
<path d="M632.956 401.709H734.597V264.877H632.956V401.709Z" fill="#F57A5D"/>
<path d="M734.597 401.709H848.949V264.877H734.597V401.709Z" fill="#F7F7F7"/>
<path d="M722.972 331.63L644.67 342.467L639.392 305.844L717.696 295.007L722.972 331.63Z" fill="#FEEFCC"/>
<path d="M658.785 320.475C658.505 319.523 657.539 318.783 655.888 318.255C656.149 320.849 656.512 323.585 656.975 326.464C658.503 324.474 659.153 322.691 658.927 321.116C658.895 320.901 658.848 320.687 658.785 320.475ZM660.845 322.716C660.738 323.094 660.639 323.469 660.549 323.845C660.419 324.287 660.264 324.647 660.077 324.924C659.676 325.594 659.273 326.256 658.871 326.909C658.39 327.7 657.933 328.267 657.501 328.611C657.37 328.817 657.225 329.034 657.066 329.261C656.904 329.487 656.731 329.614 656.541 329.641L656.201 329.615C656.069 329.587 655.922 329.552 655.763 329.511C655.605 329.47 655.484 329.385 655.402 329.255C655.262 328.614 655.136 327.921 655.031 327.181C654.921 326.425 654.79 325.293 654.638 323.788C654.485 322.282 654.355 321.152 654.246 320.396C654.101 319.393 653.928 318.479 653.73 317.657C653.712 317.644 653.513 317.491 653.134 317.197C652.902 317.025 652.772 316.853 652.746 316.684L652.761 316.446C652.812 316.25 652.97 316.119 653.234 316.05C653.434 315.99 653.635 315.939 653.838 315.894C655.201 315.99 656.691 316.524 658.308 317.497C658.73 317.753 659.084 318.034 659.37 318.34C660.283 319.331 660.81 320.305 660.947 321.263C661.019 321.756 660.983 322.241 660.845 322.716Z" fill="#3A476C"/>
<path d="M668.213 320.351C667.94 319.24 667.536 318.612 667.002 318.464L666.782 318.448C666.593 318.475 666.378 318.662 666.14 319.01C665.876 319.408 665.663 319.65 665.498 319.735C665.394 319.796 665.229 319.772 665.005 319.662C664.781 319.551 664.636 319.5 664.574 319.509L664.462 319.572C663.979 320.112 663.806 320.867 663.947 321.838C664.043 322.502 664.281 323.043 664.662 323.463C665.194 324.036 665.609 324.301 665.908 324.259C666.601 324.163 667.21 323.646 667.734 322.707C668.232 321.82 668.392 321.036 668.213 320.351ZM670.309 321.524C669.676 323.706 668.537 325.106 666.892 325.728C666.694 325.803 666.493 325.854 666.287 325.882C665.39 326.006 664.415 325.655 663.364 324.824C662.658 324.26 662.229 323.462 662.079 322.427C661.915 321.285 662.084 320.012 662.589 318.603C662.807 318.007 663.102 317.478 663.469 317.017C663.887 316.471 664.317 316.168 664.758 316.107C665.01 316.072 665.26 316.132 665.507 316.288C665.754 316.442 666.38 316.608 667.385 316.782C668.177 316.926 668.772 317.268 669.171 317.811C669.871 318.769 670.276 319.617 670.382 320.358C670.442 320.774 670.418 321.164 670.309 321.524Z" fill="#3A476C"/>
<path d="M680.063 310.967C680.139 313.066 680.226 315.171 680.322 317.282C680.409 319.789 680.574 321.867 680.81 323.519C680.889 324.06 680.981 324.589 681.088 325.109C681.14 325.353 681.08 325.582 680.909 325.795C680.74 326.008 680.528 326.13 680.276 326.166C679.788 326.233 679.332 325.966 678.908 325.363C677.623 323.574 675.935 320.723 673.845 316.809L673.708 316.687C673.596 316.702 673.541 316.82 673.541 317.041C673.592 319.285 673.792 321.625 674.144 324.064C674.313 325.236 674.516 326.428 674.756 327.639C674.835 328.084 674.745 328.41 674.487 328.619L674.156 328.832C674.045 328.847 673.897 328.82 673.711 328.751C673.459 328.676 673.299 328.627 673.232 328.604C673.018 328.572 672.866 328.403 672.774 328.101C672.722 327.857 672.67 327.604 672.617 327.344C672.445 326.486 672.291 325.588 672.156 324.646C671.92 323.01 671.72 320.952 671.555 318.472C671.316 314.695 671.183 312.605 671.157 312.2C671.124 311.858 671.391 311.647 671.958 311.569C672.222 311.502 672.641 311.64 673.221 311.985C673.862 312.857 674.704 314.298 675.749 316.31C676.748 318.234 677.616 319.68 678.35 320.648C678.29 318.563 678.212 315.41 678.118 311.188C678.121 310.874 678.327 310.687 678.737 310.631C678.879 310.611 679.047 310.613 679.243 310.632C679.503 310.659 679.658 310.677 679.709 310.686C679.875 310.726 679.992 310.82 680.063 310.967Z" fill="#3A476C"/>
<path d="M687.569 318.593C687.439 318.029 687.244 317.403 686.985 316.715C686.737 316.12 686.498 315.522 686.269 314.924C685.981 316.271 685.755 317.609 685.593 318.937C685.839 318.856 686.496 318.743 687.569 318.593ZM691.652 322.538C691.784 322.771 691.861 322.981 691.889 323.166C691.933 323.476 691.837 323.763 691.604 324.032C691.37 324.301 691.204 324.434 691.108 324.431C690.315 324.399 689.739 323.857 689.379 322.804C688.989 321.664 688.589 320.719 688.176 319.973C687.647 320.094 687.119 320.214 686.589 320.335C685.987 320.496 685.534 320.749 685.229 321.09C685.125 321.592 685.018 322.472 684.911 323.73C684.806 324.893 684.669 325.785 684.503 326.407C684.416 326.703 684.159 326.817 683.732 326.75C683.188 326.652 682.878 326.46 682.806 326.169C682.674 325.591 682.733 324.781 682.985 323.737C683.294 322.546 683.439 321.707 683.417 321.223C683.412 321.081 683.288 320.942 683.044 320.801C682.799 320.662 682.669 320.547 682.655 320.454L682.727 320.196C682.786 320.101 682.942 320.009 683.194 319.919C683.445 319.829 683.578 319.728 683.595 319.616C683.767 318.805 684.01 317.307 684.321 315.123C684.579 313.231 684.841 311.77 685.111 310.74C685.175 310.513 685.355 310.377 685.654 310.335C685.876 310.305 686.081 310.347 686.275 310.462C686.769 310.771 687.132 311.287 687.367 312.011C687.552 312.631 687.729 313.252 687.9 313.873C689.212 317.406 690.463 320.294 691.652 322.538Z" fill="#3A476C"/>
<path d="M702.467 307.466C702.406 308.04 702.185 308.401 701.805 308.548C700.816 308.937 699.082 309.508 696.605 310.26C696.846 314.145 697.149 317.37 697.518 319.931C697.659 320.902 697.811 321.858 697.979 322.795C698.037 323.086 698.054 323.312 698.029 323.474C697.985 323.731 697.845 323.868 697.607 323.885C697.148 323.933 696.742 323.797 696.391 323.475C696.039 323.154 695.816 322.772 695.718 322.328C695.606 321.763 695.503 321.162 695.412 320.528C695.265 319.51 695.104 317.888 694.928 315.661C694.764 313.529 694.594 311.907 694.42 310.798C693.99 310.826 693.406 310.947 692.665 311.16C691.816 311.402 691.226 311.547 690.897 311.592C690.125 311.699 689.466 311.584 688.918 311.246C688.671 310.868 688.547 310.672 688.544 310.656C688.529 310.548 688.567 310.423 688.659 310.284C689.139 310.043 690.148 309.744 691.687 309.388C693.037 309.058 694.024 308.668 694.649 308.216C695.227 308.325 695.871 308.331 696.579 308.232C697.288 308.134 697.952 307.956 698.573 307.697C698.762 307.655 699.225 307.481 699.968 307.173C700.516 306.956 700.981 306.845 701.366 306.839C701.649 306.799 701.784 306.899 701.77 307.137C702.194 307.077 702.427 307.187 702.467 307.466Z" fill="#3A476C"/>
<path d="M707.838 309.626C707.288 309.938 706.47 310.327 705.379 310.792C704.292 311.258 703.471 311.647 702.922 311.958C702.838 312.38 702.866 313.289 703.003 314.686C703.268 314.745 703.566 314.751 703.897 314.704C704.133 314.671 704.496 314.582 704.99 314.435C705.483 314.289 705.848 314.197 706.083 314.165C706.524 314.103 706.916 314.145 707.257 314.287C707.523 314.565 707.66 314.751 707.674 314.843L707.546 315.12C707.517 315.139 707.422 315.263 707.262 315.491C707.155 315.646 707.007 315.73 706.816 315.74C706.498 315.863 705.897 315.994 705.018 316.13C704.28 316.249 703.703 316.423 703.285 316.654C703.151 317.838 703.132 318.762 703.227 319.425C703.293 319.872 703.406 320.218 703.57 320.463C704.383 320.869 705.697 320.908 707.514 320.578C707.639 320.56 707.765 320.485 707.89 320.349C708.015 320.213 708.124 320.14 708.22 320.126C708.647 319.972 708.986 320.257 709.234 320.979C709.315 321.218 709.306 321.453 709.201 321.678C709.098 321.905 708.922 322.045 708.671 322.094C706.774 322.418 705.1 322.502 703.648 322.341C703.192 322.294 702.756 322.11 702.339 321.79C701.924 321.47 701.66 321.082 701.546 320.624C701.21 319.303 701.037 318.098 701.026 317.014C700.542 316.782 700.304 316.524 700.31 316.24C700.306 316.098 700.411 315.954 700.622 315.806C700.834 315.66 700.947 315.522 700.96 315.393C700.974 315.266 700.931 314.525 700.832 313.169C699.926 313.121 699.447 312.856 699.394 312.377C699.343 311.927 699.569 311.533 700.066 311.197C700.542 310.926 701.017 310.656 701.493 310.385C702.031 310.013 702.725 309.648 703.575 309.295C704.316 308.988 705.061 308.689 705.807 308.396L706.086 308.334C706.511 308.274 707.03 308.369 707.645 308.614C707.668 308.674 707.724 308.784 707.813 308.944C707.899 309.106 707.95 309.225 707.96 309.301L707.838 309.626Z" fill="#3A476C"/>
<path d="M848.949 401.709H734.597V264.877H756.112V346.991C756.112 361.233 767.893 372.78 782.426 372.78H848.949V383.468V401.709Z" fill="#A9465B"/>
<path d="M900.579 238.052L870.204 326.346L851.56 338.078C842.403 343.84 832.245 347.906 821.591 350.075C812.658 351.895 805.737 358.837 804.091 367.634H797.454L810.294 396.205L814.037 391.487L827.8 394.483C832.907 395.595 838.251 394.923 842.906 392.583L889.062 369.372C900.606 363.566 909.272 353.437 913.09 341.283L941.476 250.979C945.732 237.436 935.399 223.721 920.94 223.723C911.718 223.723 903.526 229.489 900.579 238.052Z" fill="#8BC34A"/>
<path d="M799.765 372.781L788.762 376.481L774.116 369.206L760.49 363.056C758.17 362.008 755.423 363.034 754.401 365.33C753.507 367.339 754.232 369.686 756.111 370.873L763.43 375.497C766.307 377.315 767.935 380.531 767.672 383.873C767.436 386.875 765.706 389.571 763.047 391.079L744.328 401.693C741.621 403.229 740.916 406.751 742.832 409.174C744.342 411.083 747.019 411.681 749.223 410.6L753.455 408.527L766.135 413.955C770.966 416.024 776.596 415.039 780.398 411.455L796.584 396.205L808.229 391.614L799.765 372.781Z" fill="#FAB590"/>
<path d="M799.765 372.781L808.23 391.614L801.775 394.158L797.913 373.402L799.765 372.781Z" fill="#F46F7C"/>
<path d="M328.171 383.317C312.523 415.557 324.157 472.571 333.385 532.336L331.446 539.195C324.195 564.849 321.375 591.511 323.103 618.077L326.938 677.032H363.075C363.075 622.378 376.315 537.841 376.315 537.841L389.044 456.057L421.652 532.729C414.232 562.337 412.67 593.066 417.052 623.249L424.861 677.032H462.174L463.665 540.55C463.74 533.643 463.275 526.739 462.273 519.903L442.864 387.473L328.171 383.317Z" fill="#41444B"/>
<path d="M342.718 512.843C336.067 471.171 329.786 431.809 334.582 403.17C334.653 402.741 334.356 402.337 333.92 402.267C333.479 402.186 333.068 402.487 332.998 402.914C328.161 431.805 334.461 471.288 341.132 513.087C342.146 519.438 343.168 525.847 344.163 532.288L342.27 538.986C334.977 564.784 332.161 591.41 333.898 618.127L336.916 664.504C336.943 664.919 337.295 665.24 337.716 665.24L337.768 665.238C338.211 665.21 338.546 664.836 338.517 664.403L335.5 618.026C333.773 591.486 336.571 565.035 343.817 539.406L345.801 532.384L345.775 532.218C344.772 525.718 343.74 519.251 342.718 512.843Z" fill="#73769E"/>
<path d="M429.445 623.139C425.056 592.915 426.599 562.561 434.027 532.916L434.092 532.667L413.516 484.29C413.345 483.888 412.876 483.705 412.467 483.867C412.058 484.034 411.864 484.494 412.037 484.895L432.407 532.794C424.982 562.552 423.452 593.023 427.856 623.36L433.838 664.564C433.895 664.956 434.238 665.24 434.632 665.24L434.744 665.232C435.184 665.171 435.489 664.772 435.426 664.343L429.445 623.139Z" fill="#73769E"/>
<path d="M355.968 404.321C355.532 404.239 355.109 404.501 355.016 404.925C352.826 414.957 344.526 423.334 334.359 425.776C333.928 425.879 333.666 426.305 333.77 426.726C333.861 427.085 334.188 427.324 334.549 427.324L334.741 427.302C345.491 424.722 354.269 415.863 356.584 405.254C356.679 404.83 356.401 404.411 355.968 404.321Z" fill="#73769E"/>
<path d="M443.812 393.939L442.864 387.473L328.171 383.317C326.416 386.929 325.024 390.868 323.913 395.071C362.859 406.1 405.094 405.703 443.812 393.939Z" fill="#3F244A"/>
<path d="M469.869 701.83L455.889 693.937L454.819 677.032H431.482L432.083 694.332L427.946 709.863H464.063C465.353 706.88 467.384 704.087 469.869 701.83Z" fill="#F79484"/>
<path d="M502.428 725.787C499.826 715.626 491.358 707.925 480.825 706.137L480.796 706.133C477.67 705.603 474.664 704.538 471.915 702.986L469.868 701.83C467.383 704.087 465.352 706.88 464.062 709.863H427.945L423.703 725.787H502.428Z" fill="#F14984"/>
<path d="M431.482 677.032H454.819L455.199 683.03H431.69L431.482 677.032Z" fill="#8BC34A"/>
<path d="M372.508 701.83L358.528 693.937L357.458 677.032H334.122L334.723 694.332L330.586 709.863H366.701C367.993 706.88 370.023 704.087 372.508 701.83Z" fill="#F79484"/>
<path d="M405.07 725.787C402.467 715.626 393.999 707.925 383.468 706.137L383.439 706.133C380.312 705.603 377.306 704.538 374.556 702.986L372.509 701.83C370.024 704.087 367.994 706.88 366.702 709.863H330.587L326.343 725.787H405.07Z" fill="#F14984"/>
<path d="M334.122 677.032H357.458L357.838 683.03H334.331L334.122 677.032Z" fill="#8BC34A"/>
<path d="M427.374 191.097C434.703 186.515 440.762 179.768 443.662 171.735C446.562 163.703 446.082 154.389 441.638 147.067C437.193 139.745 428.466 133.479 419.785 133.956C410.606 123.862 395.977 118.829 382.375 121.082C368.771 123.335 356.643 132.799 351.358 145.288C346.072 157.777 347.803 172.876 355.786 183.903C350.825 197.522 340.953 210.51 334.036 223.285C327.12 236.056 322.955 251.823 329.483 264.791C333.559 272.886 341.386 278.766 349.986 281.996C358.587 285.227 367.947 286.028 377.157 285.929C387.744 285.816 398.509 284.499 408.138 280.184C417.768 275.868 426.196 268.244 429.625 258.427C432.909 249.028 431.398 238.748 429.851 228.93C428.03 217.369 429.195 202.657 427.374 191.097Z" fill="#6A3256"/>
<path d="M458.099 274.53L472.606 318.244L546.295 299.566C556.192 281.873 575.984 276.819 575.984 276.819C577.475 280.622 576.123 284.932 572.702 287.246C570.453 288.767 568.087 290.592 566.621 292.359C578.916 295.899 591.274 294.923 597.554 294.024C599.797 293.705 601.795 295.415 601.795 297.635C601.795 298.95 601.072 300.164 599.905 300.81L597.18 302.32C596.984 307.461 595.905 312.356 594.865 315.994C593.785 319.772 590.4 322.508 586.4 322.684C567.295 323.529 551.644 317.458 551.644 317.458L476.725 347.312C465.24 351.888 452.143 346.483 447.458 335.232L437.154 310.475L430.278 281.283L450.21 276.819L458.099 274.53Z" fill="#F46F7C"/>
<path d="M433.688 228.883C441.688 231.779 447.943 238.037 450.73 245.935L460.569 273.813L450.21 276.819L441.177 257.234L433.688 228.883Z" fill="#8BC34A"/>
<path d="M357.983 233.298C370.831 227.875 382.468 224.467 382.468 224.467H412.96C423.792 224.467 433.687 228.883 433.687 228.883L441.177 257.233L454.313 285.714C457.997 293.701 455.231 303.129 447.781 307.98C443.568 310.723 440.706 315.055 439.878 319.945C436.882 337.596 437.902 355.68 442.864 372.9L448.132 391.18C371.902 404.548 322.151 388.428 322.151 388.428L335.107 360.987C343.042 344.179 346.964 325.818 346.542 307.304C346.136 289.646 345.44 268.691 344.318 259.879C342.213 243.341 357.983 233.298 357.983 233.298Z" fill="#8BC34A"/>
<path d="M356.656 299.566L401.26 282.267L385.667 245.358C381.188 234.754 369.015 229.451 357.983 233.298C346.913 237.158 340.895 248.863 344.318 259.88L356.656 299.566Z" fill="#8BC34A"/>
<path d="M397.714 283.642L421.821 343.605L498.685 327.25C506.308 311.756 521.42 307.037 521.42 307.037C523.77 310.064 523.628 314.313 521.04 317.146C517.727 320.769 516.071 324.731 516.071 324.731C527.507 327.651 540.601 327.592 547.065 327.329C549.324 327.237 551.244 328.911 551.409 331.119C551.554 333.07 550.28 334.892 548.343 335.365C539.997 337.399 528.106 336.396 528.106 336.396C533.603 338.376 541.054 338.968 546.088 339.126C549.191 339.225 551.646 341.715 551.646 344.758V349.36C551.646 352.111 549.612 354.436 546.85 354.926C522.642 359.223 500.157 344.914 500.157 344.914L426.46 376.847C414.232 382.145 399.941 376.663 394.633 364.637L364.556 296.503L397.714 283.642Z" fill="#F79484"/>
<path d="M397.714 283.642L364.556 296.503L368.735 305.972L398.811 286.37L397.714 283.642Z" fill="#8BC34A"/>
<path d="M382.469 196.943V224.467C392.499 239.278 408.151 233.256 412.961 224.467V213.195L382.469 196.943Z" fill="#F79484"/>
<path d="M434.507 163.473C434.47 162.457 434.377 161.459 434.238 160.475C431.148 154.169 427.005 148.399 421.574 143.875C414.887 159.977 399.083 173.169 381.638 176.319C382.509 180.626 381.932 185.2 380.02 189.169C379.38 190.492 378.583 191.739 377.672 192.899C378.892 198.399 382.25 203.249 387.095 206.366L397.608 213.129C401.754 215.798 406.665 217.094 411.618 216.832C420.198 216.378 427.824 211.32 431.442 203.681C434.219 197.819 435.541 191.398 435.303 184.942L434.507 163.473Z" fill="#F79484"/>
<path d="M392.174 172.625H409.582C409.146 170.647 407.178 169.034 405.221 168.393C403.262 167.751 401.104 167.926 399.121 168.497C396.674 169.202 394 170.879 392.174 172.625Z" fill="#6A3256"/>
<path d="M403.267 183.909C404.376 183.909 405.275 183.027 405.275 181.94V179.783C405.275 178.696 404.376 177.814 403.267 177.814C402.158 177.814 401.26 178.696 401.26 179.783V181.94C401.26 183.027 402.158 183.909 403.267 183.909Z" fill="#3F244A"/>
<path d="M433.203 172.625H422.441C422.711 170.647 423.927 169.034 425.137 168.393C426.348 167.751 427.683 167.926 428.908 168.497C430.421 169.202 432.075 170.879 433.203 172.625Z" fill="#6A3256"/>
<path d="M426.807 183.909C426.04 183.909 425.419 183.299 425.419 182.549V179.174C425.419 178.424 426.04 177.814 426.807 177.814C427.573 177.814 428.194 178.424 428.194 179.174V182.549C428.194 183.299 427.573 183.909 426.807 183.909Z" fill="#3F244A"/>
<path d="M421.82 201.18C414.341 201.055 406.86 200.931 399.381 200.807C401.95 204.241 406.224 206.718 410.568 206.797C414.913 206.876 419.123 204.519 421.82 201.18Z" fill="white"/>
<path d="M372.488 182.305C369.614 180.765 365.587 180.983 363.507 183.463C362.251 184.961 361.877 187.015 362.016 188.95C362.385 194.145 366.453 198.885 371.614 200.134C373.377 200.56 375.36 200.576 376.883 199.606C378.361 198.663 379.157 196.928 379.349 195.209C379.889 190.415 376.819 184.628 372.488 182.305Z" fill="#F79484"/>
<path d="M365.644 186.208C366.374 185.528 367.422 185.232 368.429 185.286C369.436 185.338 370.401 185.712 371.266 186.22C374.001 187.824 375.794 190.869 375.841 193.992C375.859 195.257 375.484 196.698 374.333 197.271C373.555 197.657 372.581 197.531 371.828 197.1C371.074 196.668 370.514 195.97 370.086 195.224C369.451 194.121 369.067 192.789 369.465 191.583C369.864 190.378 371.262 189.452 372.476 189.886C372.02 188.691 371.083 187.634 369.996 186.935C368.908 186.235 366.943 186.142 365.644 186.208Z" fill="#8BC34A"/>
<path d="M548.158 67.9999C516.915 67.9999 491.587 92.8222 491.587 123.44C491.587 131.63 493.414 139.396 496.666 146.393L474.88 174.401L509.479 163.878C519.595 173.176 533.193 178.881 548.158 178.881C579.4 178.881 604.727 154.059 604.727 123.44C604.727 92.8222 579.4 67.9999 548.158 67.9999Z" fill="#FEEFCC"/>
<path d="M579.621 101.522C571.771 93.8285 559.045 93.8285 551.197 101.522L548.157 104.501L545.117 101.522C537.268 93.8285 524.543 93.8285 516.693 101.522C508.845 109.213 508.845 121.684 516.693 129.377L519.733 132.357L548.157 160.212L576.58 132.357L579.621 129.377C587.469 121.684 587.469 109.213 579.621 101.522Z" fill="#8BC34A"/>
</svg>
