<svg viewBox="0 0 1325 801" fill="none" xmlns="http://www.w3.org/2000/svg">
<rect fill="#FCFCFC"/>
<path fill-rule="evenodd" clip-rule="evenodd" d="M985.586 388.906C984.717 391.382 982.402 393.421 980.666 395.461C977.193 395.009 973.711 394.558 970.239 394.558C955.761 393.873 942.72 399.291 931.424 405.844C920.128 412.398 909.702 419.855 896.669 424.369C884.505 428.665 871.764 432.059 863.94 441.088C860.179 440.87 856.408 440.637 852.645 440.637C851.487 440.419 850.042 440.419 848.883 440.419C857.574 433.18 868.292 427.763 879.008 422.563C890.882 416.694 902.177 410.825 913.183 404.038C923.899 397.033 935.195 390.028 948.516 386.199C960.102 382.804 976.035 381.668 985.586 388.906ZM942.14 383.707C932.002 387.101 922.742 392.736 914.341 398.169C908.544 401.548 903.045 405.174 897.249 408.553C890.882 411.946 884.505 415.106 877.84 418.267C865.098 424.602 851.778 431.156 842.218 440.419C832.66 440.419 823.099 440.87 813.551 441.54C821.942 434.986 831.79 429.569 841.639 424.151C852.645 417.815 862.494 410.825 872.632 403.587C882.191 396.363 892.619 389.576 905.072 385.747C912.316 383.707 920.128 382.571 928.242 382.571C932.88 382.571 937.51 382.804 942.14 383.707ZM782.559 486.497C781.98 486.497 781.401 486.497 781.111 486.279C777.629 486.046 774.445 486.046 770.973 485.828L762.282 485.376C762.282 485.376 761.125 485.595 761.125 485.376C756.485 485.376 751.856 485.376 747.216 485.595L742.297 485.828C737.955 486.046 733.894 486.279 729.553 486.73C710.434 488.988 692.186 493.502 674.814 500.056C671.91 501.192 669.305 497.799 672.199 496.678C691.607 489.222 711.882 484.24 733.316 482.434C749.541 480.863 766.044 481.314 782.268 482.434C782.559 482.434 782.847 482.434 783.137 482.434C785.741 482.668 788.056 482.886 790.371 483.119C806.596 484.473 822.231 486.965 838.456 488.085C854.672 489.222 871.764 489.439 887.399 485.142C899.273 481.983 917.235 477.467 913.183 465.263C909.411 453.526 892.907 451.252 879.298 448.094C861.336 444.248 842.508 444.031 823.679 444.248C805.149 444.715 786.609 441.991 768.071 441.774C750.698 441.321 733.026 436.123 717.678 429.117C717.391 429.117 717.391 428.899 717.1 428.899C717.1 428.899 716.811 428.899 716.811 428.665C716.811 428.665 716.811 428.665 716.521 428.665C667.858 402.465 606.453 404.038 545.635 409.689C504.505 413.752 462.795 412.849 428.62 431.375C413.563 439.734 400.521 449.681 387.201 459.613C386.331 460.299 385.753 460.75 384.886 461.434L454.394 542.757C458.743 540.281 463.085 538.243 467.435 536.204C483.94 529.213 501.61 526.039 520.14 526.272C538.97 526.49 558.088 528.98 576.338 532.374C596.893 535.985 617.169 540.5 637.734 544.562C658.011 548.86 678.286 552.922 698.851 555.646C719.126 558.121 740.56 559.709 760.546 556.098C760.546 556.098 760.837 556.098 761.125 556.098C779.945 547.287 795.879 535.082 811.515 523.111C819.049 517.009 826.871 510.906 835.274 505.255C841.639 500.959 848.015 496.445 855.25 492.833C835.274 492.833 815.287 489.672 795.3 487.633L782.559 486.497ZM814.997 433.413H815.287V433.18L814.997 433.413ZM1000.94 408.553C995.435 413.301 988.779 417.364 982.692 421.661C975.158 426.86 967.634 431.826 960.102 436.807C945.912 446.07 931.713 454.88 917.524 464.143C914.631 458.492 908.544 453.745 902.177 450.584C892.907 445.617 881.323 443.127 869.738 441.774C876.683 434.535 888.847 431.608 899.273 427.996C911.157 423.918 920.707 417.364 931.133 411.043C941.272 404.941 952.278 399.291 965.609 398.62C977.772 397.936 992.83 400.644 1000.94 408.553Z" fill="#E7AC8C"/>
<path fill-rule="evenodd" clip-rule="evenodd" d="M377.642 432.277L324.058 460.299L429.199 582.531L482.783 554.511L377.642 432.277Z" fill="#929393"/>
<path fill-rule="evenodd" clip-rule="evenodd" d="M330.145 457.138L324.058 460.299L429.199 582.531L435.286 579.371L330.145 457.138Z" fill="#7A7B7C"/>
<path fill-rule="evenodd" clip-rule="evenodd" d="M820.495 299.209L718.548 145.796L617.169 299.209C596.894 352.76 662.65 395.227 718.837 395.227C775.024 395.227 843.955 353.43 820.495 299.209Z" fill="#EA1F2A"/>
<path d="M272.211 219.91V229.173H284.963C286.989 229.173 288.146 228.939 289.015 228.269C289.882 227.585 290.461 226.682 290.461 225.561V223.522C290.461 222.167 289.882 221.264 289.015 220.58C288.146 220.129 286.989 219.91 284.963 219.91H272.211ZM272.211 201.385V210.196H284.385C286.12 210.196 287.568 209.963 288.146 209.511C289.015 208.842 289.304 208.157 289.304 206.803V204.764C289.304 203.642 289.015 202.74 288.146 202.288C287.568 201.603 286.12 201.385 284.385 201.385H272.211ZM255.128 190.302H285.252C293.067 190.302 298.574 191.22 301.757 193.026C304.95 194.831 306.686 197.759 306.686 202.055V205.215C306.686 207.924 305.819 210.196 304.072 211.768C302.335 213.123 299.442 214.026 295.97 214.478C299.731 214.929 302.624 216.284 304.65 217.871C306.976 219.677 307.843 221.934 307.843 224.425V227.585C307.843 232.1 306.107 235.493 302.915 237.299C299.731 239.338 293.645 240.241 284.674 240.241H255.128V190.302Z" fill="#100F0D"/>
<path d="M319.139 240.241V190.302H336.512V228.721H364.901V240.241H319.139Z" fill="#100F0D"/>
<path d="M522.465 229.173H535.207C539.258 229.173 541.863 228.488 543.03 227.585C544.187 226.464 544.767 223.74 544.767 219.459V211.317C544.767 207.021 544.187 204.312 543.03 203.191C541.863 202.055 539.258 201.385 535.207 201.385H522.465V229.173ZM505.372 240.241V190.302H537.812C547.081 190.302 553.158 191.889 556.93 194.831C560.692 197.759 562.429 202.958 562.429 210.196V220.362C562.429 227.818 560.692 232.785 556.93 235.726C553.158 238.654 547.081 240.241 537.812 240.241H505.372Z" fill="#100F0D"/>
<path d="M437.021 209.744C437.021 202.055 438.758 196.855 442.52 193.928C445.414 191.437 450.054 190.084 456.43 189.398L440.205 213.807V214.26C435.286 226.682 449.764 238.654 465.69 238.654C481.625 238.654 496.682 226.916 491.184 214.026L490.895 213.807L474.67 189.398C481.335 189.851 485.966 191.437 488.869 193.928C492.631 196.855 494.367 202.055 494.367 209.744V220.129C494.367 227.585 492.631 232.785 488.869 235.944C485.387 238.887 479.02 240.46 469.751 240.46H461.35C452.369 240.46 446.002 238.887 442.52 235.944C438.758 233.003 437.021 227.585 437.021 220.129V209.744Z" fill="#100F0D"/>
<path fill-rule="evenodd" clip-rule="evenodd" d="M487.7 214.929L465.399 181.723L443.387 214.929C439.047 226.682 453.525 235.726 465.689 235.726C477.852 235.726 492.92 226.682 487.7 214.929Z" fill="#EA1F2A"/>
<path d="M370.408 209.744C370.408 202.055 372.432 196.855 375.906 193.928C378.799 191.437 383.438 190.084 389.805 189.398L373.88 213.807L373.59 214.26C368.95 226.682 383.438 238.654 399.076 238.654C415.009 238.654 430.068 226.916 424.569 214.026V213.807L408.345 189.398C414.721 189.851 419.64 191.437 422.533 193.928C426.017 196.855 428.042 202.055 428.042 209.744V220.129C428.042 227.585 426.017 232.785 422.533 235.944C418.773 238.887 412.396 240.46 403.425 240.46H395.024C386.043 240.46 379.666 238.887 375.906 235.944C372.432 233.003 370.408 227.585 370.408 220.129V209.744Z" fill="#100F0D"/>
<path fill-rule="evenodd" clip-rule="evenodd" d="M421.087 214.929L399.075 181.723L377.062 214.929C372.722 226.682 386.909 235.726 399.075 235.726C411.238 235.726 426.304 226.682 421.087 214.929Z" fill="#EA1F2A"/>
<path d="M516.668 172.462V129.98H554.905V134.509H522.466V148.503H553.747V152.801H522.466V168.165H554.905V172.462H516.668ZM416.746 129.98H423.113L440.495 168.165L457.876 129.98H464.243L444.255 172.462H436.443L416.746 129.98ZM359.112 172.462V129.98H365.188V172.462H359.112ZM257.444 143.99C257.444 138.572 258.89 134.96 261.793 132.703C264.689 130.664 269.606 129.528 277.141 129.528H283.806C290.751 129.528 295.681 130.431 298.863 132.252C302.046 134.058 303.494 136.766 303.494 140.611V142.417H297.416V141.733C297.416 138.79 296.259 136.766 294.523 135.631C292.487 134.509 289.015 134.058 283.516 134.058H278.876C275.115 134.058 272.212 134.058 270.764 134.509C269.028 134.727 267.582 135.412 266.424 136.082C265.556 136.766 264.689 137.67 264.398 139.023C263.819 140.145 263.819 142.184 263.819 145.345V157.315C263.819 160.491 263.819 162.514 264.398 163.651C264.689 164.771 265.556 165.909 266.424 166.593C267.582 167.262 269.028 167.714 270.764 168.165C272.212 168.399 274.826 168.616 278.876 168.616H283.516C286.989 168.616 289.593 168.399 291.041 168.165C292.487 167.948 293.645 167.496 294.523 166.811C295.681 166.142 296.259 165.222 296.838 164.103C297.127 162.965 297.416 161.159 297.416 158.234V155.743H282.06V151.446H303.494V158.452C303.494 163.869 302.046 167.714 299.153 169.971C296.259 172.011 291.33 173.131 283.806 173.131H277.141C269.606 173.131 264.689 172.011 261.793 169.971C258.89 167.714 257.444 163.869 257.444 158.452V143.99Z" fill="#100F0D"/>
<path d="M1002.39 669.956V600.822H1064.66V608.06H1012.24V630.648H1063.22V637.654H1012.24V662.733H1064.66V669.956H1002.39ZM912.604 600.822H923.032L951.41 662.733L979.799 600.822H990.225L957.787 669.956H945.044L912.604 600.822ZM838.167 669.956L870.897 600.822H887.11L920.128 669.956H909.991L901.598 652.116H856.706L848.305 669.956H838.167ZM859.89 645.328H898.406L880.745 608.06H877.551L859.89 645.328ZM758.222 647.369H768.071V648.722C768.071 652.784 768.359 655.728 769.228 657.767C770.106 659.79 771.263 661.145 773.288 661.83C774.735 662.498 776.76 662.95 779.654 663.184C782.848 663.402 788.925 663.636 798.194 663.636C803.123 663.636 807.175 663.402 810.068 662.95C812.672 662.282 814.709 661.596 816.155 660.475C817.024 659.79 817.312 658.67 817.891 657.315C818.181 655.728 818.469 653.688 818.469 651.212C818.469 646.014 817.602 642.853 816.445 641.499C814.997 640.145 812.383 639.46 808.332 639.241L781.111 637.421C773 636.97 767.201 635.397 764.019 632.688C760.837 629.964 759.389 625.45 759.389 619.129C759.389 615.065 759.967 611.89 760.837 609.415C761.994 606.925 763.729 604.9 766.044 603.313C767.78 601.958 770.395 601.056 773.578 600.604C776.76 600.152 782.268 599.919 790.371 599.919H793.564C802.834 599.919 809.201 600.152 812.962 600.822C816.734 601.507 819.627 602.861 822.231 604.433C823.968 605.57 825.135 607.158 826.004 609.182C826.872 611.221 827.16 613.93 827.16 616.871C827.16 617.775 827.16 618.444 827.16 618.896C827.16 619.347 827.16 619.798 827.16 620.25H817.312V618.444C817.312 615.969 817.024 614.163 816.734 612.794C816.155 611.439 815.577 610.318 814.997 609.633C813.552 608.73 811.515 608.06 808.332 607.609C805.149 607.376 799.064 607.158 790.371 607.158C781.111 607.158 775.315 607.827 773 609.415C770.685 611.221 769.516 614.381 769.516 619.129C769.516 623.193 770.395 625.901 771.842 627.489C773.288 628.843 776.182 629.746 780.524 629.964L808.621 631.785C815.866 632.455 821.074 634.042 823.968 636.518C826.872 639.241 828.318 643.757 828.318 649.859C828.318 654.373 828.03 657.767 827.16 660.024C826.583 662.282 825.135 664.321 823.389 665.675C821.364 667.698 818.469 669.052 814.709 669.738C811.225 670.407 804.571 670.858 795.012 670.858H790.371C782.268 670.858 776.472 670.641 773.288 669.956C769.806 669.286 766.913 668.149 764.597 666.578C762.571 664.989 760.837 662.95 759.679 660.475C758.8 657.985 758.222 654.59 758.222 650.761V647.369Z" fill="#100F0D"/>
<path d="M1006.73 749.488V685.554H1068.43V699.783H1028.74V710.85H1067.27V723.288H1028.74V735.26H1069.29V749.488H1006.73ZM914.92 749.488V685.554H969.95V699.783H936.932V712.205H968.213V726.215H936.932V749.488H914.92ZM852.935 749.488V685.554H874.946V749.488H852.935ZM760.837 749.488V685.554H782.848V734.575H819.338V749.488H760.837Z" fill="#100F0D"/>
</svg>
