<svg width="129" height="116" viewBox="0 0 129 116" fill="none" xmlns="http://www.w3.org/2000/svg">
<path d="M4.27775 56.4338C10.9427 54.7847 22.5922 50.5546 26.4643 44.3209C29.0156 40.2143 31.3039 34.6098 33.148 30.09C33.7644 28.5794 34.1955 24.9515 36.0923 24.5435C38.0964 24.113 37.9638 27.421 37.7742 28.5854C37.2414 31.8596 34.6223 36.5728 39.6169 37.2901C45.429 38.1241 55.9675 26.6894 59.7891 33.8534L47.5334 39.8748V40.6275C50.4964 40.3581 60.6759 35.7983 62.7298 38.7932C64.4773 41.3418 51.5295 44.5211 49.6961 45.1436V45.8963C51.2685 45.8963 63.9287 44.8207 61.9086 48.0572C60.0948 50.9633 51.355 50.1813 48.2543 51.165V51.9177L59.7891 54.1758V54.9284C47.3603 58.0182 33.1977 54.1584 21.58 61.2908C19.2247 62.7367 14.0766 64.9722 13.1495 67.8632C11.7927 72.0963 20.5707 78.7129 23.0219 81.272C32.2598 90.9169 42.2345 99.5524 52.5798 107.879C55.5068 110.234 60.3082 115.651 64.1147 115.987C67.9269 116.324 73.4802 109.975 76.3704 107.711C87.5303 98.969 100.706 89.5237 108.812 77.5087C98.9599 72.0346 89.763 68.8342 78.5331 67.8655C73.8644 67.4628 69.5815 68.6438 64.8356 67.724V66.2186L76.3704 63.9606V63.2079C71.218 62.9768 64.7065 63.0912 61.231 58.6918H74.9285V57.9391L60.51 53.4231C63.5956 47.5823 71.5726 52.5718 76.3704 53.4231L64.8356 43.6382L87.9052 49.6597L86.4633 36.1114C92.0916 37.9615 94.6617 50.4395 97.2167 55.651C99.8005 60.9228 109.725 66.385 115.298 67.1331C118.976 67.6269 120.966 62.9339 122.501 60.1972C126.804 52.5244 129.198 45.033 128.987 36.1114C128.265 5.40063 83.1067 -14.2277 64.8356 12.7784C46.6935 -6.11085 12.7667 -2.40691 2.44227 24.0686C-1.90348 35.2112 0.0747492 45.736 4.27775 56.4338Z" fill="#8BC34A"/>
</svg>
