<svg width="181" height="175" viewBox="0 0 181 175" fill="none" xmlns="http://www.w3.org/2000/svg">
<path d="M18.1591 157H16.0455C15.9205 156.392 15.7017 155.858 15.3892 155.398C15.0824 154.938 14.7074 154.551 14.2642 154.239C13.8267 153.92 13.3409 153.682 12.8068 153.523C12.2727 153.364 11.7159 153.284 11.1364 153.284C10.0795 153.284 9.12216 153.551 8.2642 154.085C7.41193 154.619 6.73295 155.406 6.22727 156.446C5.72727 157.486 5.47727 158.761 5.47727 160.273C5.47727 161.784 5.72727 163.06 6.22727 164.099C6.73295 165.139 7.41193 165.926 8.2642 166.46C9.12216 166.994 10.0795 167.261 11.1364 167.261C11.7159 167.261 12.2727 167.182 12.8068 167.023C13.3409 166.864 13.8267 166.628 14.2642 166.315C14.7074 165.997 15.0824 165.608 15.3892 165.148C15.7017 164.682 15.9205 164.148 16.0455 163.545H18.1591C18 164.437 17.7102 165.236 17.2898 165.94C16.8693 166.645 16.3466 167.244 15.7216 167.739C15.0966 168.227 14.3949 168.599 13.6165 168.855C12.8438 169.111 12.017 169.239 11.1364 169.239C9.64773 169.239 8.32386 168.875 7.16477 168.148C6.00568 167.42 5.09375 166.386 4.42898 165.045C3.7642 163.705 3.43182 162.114 3.43182 160.273C3.43182 158.432 3.7642 156.841 4.42898 155.5C5.09375 154.159 6.00568 153.125 7.16477 152.398C8.32386 151.67 9.64773 151.307 11.1364 151.307C12.017 151.307 12.8438 151.435 13.6165 151.69C14.3949 151.946 15.0966 152.321 15.7216 152.815C16.3466 153.304 16.8693 153.901 17.2898 154.605C17.7102 155.304 18 156.102 18.1591 157ZM23.3132 161.125V169H21.3018V151.545H23.3132V157.955H23.4837C23.7905 157.278 24.2507 156.741 24.8643 156.344C25.4837 155.94 26.3075 155.739 27.3359 155.739C28.228 155.739 29.0092 155.918 29.6797 156.276C30.3501 156.628 30.87 157.17 31.2393 157.903C31.6143 158.631 31.8018 159.557 31.8018 160.682V169H29.7905V160.818C29.7905 159.778 29.5206 158.974 28.9808 158.406C28.4467 157.832 27.7053 157.545 26.7564 157.545C26.0973 157.545 25.5064 157.685 24.9837 157.963C24.4666 158.241 24.0575 158.648 23.7564 159.182C23.4609 159.716 23.3132 160.364 23.3132 161.125ZM39.3338 169.307C38.5043 169.307 37.7514 169.151 37.0753 168.838C36.3991 168.52 35.8622 168.062 35.4645 167.466C35.0668 166.864 34.8679 166.136 34.8679 165.284C34.8679 164.534 35.0156 163.926 35.3111 163.46C35.6065 162.989 36.0014 162.619 36.4957 162.352C36.9901 162.085 37.5355 161.886 38.1321 161.756C38.7344 161.619 39.3395 161.511 39.9474 161.432C40.7429 161.33 41.3878 161.253 41.8821 161.202C42.3821 161.145 42.7457 161.051 42.973 160.92C43.206 160.79 43.3224 160.562 43.3224 160.239V160.17C43.3224 159.33 43.0923 158.676 42.6321 158.21C42.1776 157.744 41.4872 157.511 40.5611 157.511C39.6009 157.511 38.848 157.722 38.3026 158.142C37.7571 158.562 37.3736 159.011 37.152 159.489L35.2429 158.807C35.5838 158.011 36.0384 157.392 36.6065 156.949C37.1804 156.5 37.8054 156.187 38.4815 156.011C39.1634 155.83 39.8338 155.739 40.4929 155.739C40.9134 155.739 41.3963 155.79 41.9418 155.892C42.4929 155.989 43.0241 156.19 43.5355 156.497C44.0526 156.804 44.4815 157.267 44.8224 157.886C45.1634 158.506 45.3338 159.335 45.3338 160.375V169H43.3224V167.227H43.2202C43.0838 167.511 42.8565 167.815 42.5384 168.139C42.2202 168.463 41.7969 168.739 41.2685 168.966C40.7401 169.193 40.0952 169.307 39.3338 169.307ZM39.6406 167.5C40.4361 167.5 41.1065 167.344 41.652 167.031C42.2031 166.719 42.6179 166.315 42.8963 165.821C43.1804 165.327 43.3224 164.807 43.3224 164.261V162.42C43.2372 162.523 43.0497 162.616 42.7599 162.702C42.4759 162.781 42.1463 162.852 41.7713 162.915C41.402 162.972 41.0412 163.023 40.6889 163.068C40.3423 163.108 40.0611 163.142 39.8452 163.17C39.3224 163.239 38.8338 163.349 38.3793 163.503C37.9304 163.651 37.5668 163.875 37.2884 164.176C37.0156 164.472 36.8793 164.875 36.8793 165.386C36.8793 166.085 37.1378 166.614 37.6548 166.972C38.1776 167.324 38.8395 167.5 39.6406 167.5ZM49.005 169V155.909H50.9482V157.886H51.0845C51.3232 157.239 51.755 156.713 52.38 156.31C53.005 155.906 53.7095 155.705 54.4936 155.705C54.6413 155.705 54.826 155.707 55.0476 155.713C55.2692 155.719 55.4368 155.727 55.5504 155.739V157.784C55.4822 157.767 55.326 157.741 55.0817 157.707C54.843 157.668 54.5902 157.648 54.3232 157.648C53.6868 157.648 53.1186 157.781 52.6186 158.048C52.1243 158.31 51.7322 158.673 51.4425 159.139C51.1584 159.599 51.0163 160.125 51.0163 160.716V169H49.005ZM57.9347 169V155.909H59.946V169H57.9347ZM58.9574 153.727C58.5653 153.727 58.2273 153.594 57.9432 153.327C57.6648 153.06 57.5256 152.739 57.5256 152.364C57.5256 151.989 57.6648 151.668 57.9432 151.401C58.2273 151.134 58.5653 151 58.9574 151C59.3494 151 59.6847 151.134 59.9631 151.401C60.2472 151.668 60.3892 151.989 60.3892 152.364C60.3892 152.739 60.2472 153.06 59.9631 153.327C59.6847 153.594 59.3494 153.727 58.9574 153.727ZM69.3232 155.909V157.614H62.5391V155.909H69.3232ZM64.5163 152.773H66.5277V165.25C66.5277 165.818 66.6101 166.244 66.7749 166.528C66.9453 166.807 67.1612 166.994 67.4226 167.091C67.6896 167.182 67.9709 167.227 68.2663 167.227C68.4879 167.227 68.6697 167.216 68.8118 167.193C68.9538 167.165 69.0675 167.142 69.1527 167.125L69.5618 168.932C69.4254 168.983 69.2351 169.034 68.9908 169.085C68.7464 169.142 68.4368 169.17 68.0618 169.17C67.4936 169.17 66.9368 169.048 66.3913 168.804C65.8516 168.56 65.4027 168.188 65.0447 167.688C64.6925 167.188 64.5163 166.557 64.5163 165.795V152.773ZM73.6442 173.909C73.3033 173.909 72.9993 173.881 72.7322 173.824C72.4652 173.773 72.2805 173.722 72.1783 173.67L72.6896 171.898C73.1783 172.023 73.6101 172.068 73.9851 172.034C74.3601 172 74.6925 171.832 74.9822 171.531C75.2777 171.236 75.5476 170.756 75.7919 170.091L76.1669 169.068L71.326 155.909H73.5078L77.1214 166.341H77.2578L80.8714 155.909H83.0533L77.4964 170.909C77.2464 171.585 76.9368 172.145 76.5675 172.588C76.1982 173.037 75.7692 173.369 75.2805 173.585C74.7976 173.801 74.2521 173.909 73.6442 173.909ZM85.8445 163.818C85.8274 162.875 85.9808 162.116 86.3047 161.543C86.6286 160.969 87.049 160.551 87.5661 160.29C88.0888 160.028 88.6399 159.898 89.2195 159.898C89.799 159.898 90.3274 160.026 90.8047 160.281C91.2876 160.531 91.8388 160.926 92.4581 161.466C92.8786 161.83 93.2138 162.085 93.4638 162.233C93.7195 162.381 93.9979 162.455 94.299 162.455C94.7876 162.455 95.174 162.278 95.4581 161.926C95.7422 161.568 95.8786 161.051 95.8672 160.375H97.7081C97.7251 161.318 97.5717 162.077 97.2479 162.651C96.9297 163.224 96.5092 163.642 95.9865 163.903C95.4638 164.165 94.9126 164.295 94.3331 164.295C93.7536 164.295 93.2251 164.17 92.7479 163.92C92.2706 163.665 91.7195 163.267 91.0945 162.727C90.6797 162.364 90.3445 162.108 90.0888 161.96C89.8331 161.812 89.5547 161.739 89.2536 161.739C88.7933 161.739 88.4126 161.901 88.1115 162.224C87.8161 162.543 87.674 163.074 87.6854 163.818H85.8445ZM104.494 169L100.506 155.909H102.619L105.449 165.932H105.585L108.381 155.909H110.528L113.29 165.898H113.426L116.256 155.909H118.369L114.381 169H112.403L109.54 158.943H109.335L106.472 169H104.494ZM124.881 169.307C124.051 169.307 123.298 169.151 122.622 168.838C121.946 168.52 121.409 168.062 121.011 167.466C120.614 166.864 120.415 166.136 120.415 165.284C120.415 164.534 120.563 163.926 120.858 163.46C121.153 162.989 121.548 162.619 122.043 162.352C122.537 162.085 123.082 161.886 123.679 161.756C124.281 161.619 124.886 161.511 125.494 161.432C126.29 161.33 126.935 161.253 127.429 161.202C127.929 161.145 128.293 161.051 128.52 160.92C128.753 160.79 128.869 160.562 128.869 160.239V160.17C128.869 159.33 128.639 158.676 128.179 158.21C127.724 157.744 127.034 157.511 126.108 157.511C125.148 157.511 124.395 157.722 123.849 158.142C123.304 158.562 122.92 159.011 122.699 159.489L120.79 158.807C121.131 158.011 121.585 157.392 122.153 156.949C122.727 156.5 123.352 156.187 124.028 156.011C124.71 155.83 125.381 155.739 126.04 155.739C126.46 155.739 126.943 155.79 127.489 155.892C128.04 155.989 128.571 156.19 129.082 156.497C129.599 156.804 130.028 157.267 130.369 157.886C130.71 158.506 130.881 159.335 130.881 160.375V169H128.869V167.227H128.767C128.631 167.511 128.403 167.815 128.085 168.139C127.767 168.463 127.344 168.739 126.815 168.966C126.287 169.193 125.642 169.307 124.881 169.307ZM125.188 167.5C125.983 167.5 126.653 167.344 127.199 167.031C127.75 166.719 128.165 166.315 128.443 165.821C128.727 165.327 128.869 164.807 128.869 164.261V162.42C128.784 162.523 128.597 162.616 128.307 162.702C128.023 162.781 127.693 162.852 127.318 162.915C126.949 162.972 126.588 163.023 126.236 163.068C125.889 163.108 125.608 163.142 125.392 163.17C124.869 163.239 124.381 163.349 123.926 163.503C123.477 163.651 123.114 163.875 122.835 164.176C122.563 164.472 122.426 164.875 122.426 165.386C122.426 166.085 122.685 166.614 123.202 166.972C123.724 167.324 124.386 167.5 125.188 167.5ZM144.788 155.909L139.947 169H137.901L133.06 155.909H135.242L138.856 166.341H138.992L142.606 155.909H144.788ZM152.462 169.273C151.201 169.273 150.113 168.994 149.198 168.438C148.289 167.875 147.587 167.091 147.093 166.085C146.604 165.074 146.36 163.898 146.36 162.557C146.36 161.216 146.604 160.034 147.093 159.011C147.587 157.983 148.275 157.182 149.156 156.608C150.042 156.028 151.076 155.739 152.258 155.739C152.94 155.739 153.613 155.852 154.278 156.08C154.942 156.307 155.548 156.676 156.093 157.188C156.638 157.693 157.073 158.364 157.397 159.199C157.721 160.034 157.883 161.062 157.883 162.284V163.136H147.792V161.398H155.837C155.837 160.659 155.69 160 155.394 159.42C155.104 158.841 154.69 158.384 154.15 158.048C153.616 157.713 152.985 157.545 152.258 157.545C151.457 157.545 150.763 157.744 150.178 158.142C149.599 158.534 149.153 159.045 148.84 159.676C148.528 160.307 148.371 160.983 148.371 161.705V162.864C148.371 163.852 148.542 164.69 148.883 165.378C149.229 166.06 149.71 166.58 150.323 166.938C150.937 167.29 151.65 167.466 152.462 167.466C152.991 167.466 153.468 167.392 153.894 167.244C154.326 167.091 154.698 166.864 155.011 166.562C155.323 166.256 155.565 165.875 155.735 165.42L157.678 165.966C157.474 166.625 157.13 167.205 156.647 167.705C156.164 168.199 155.567 168.585 154.857 168.864C154.147 169.136 153.349 169.273 152.462 169.273Z" fill="#2C3A47" fill-opacity="0.5"/>
<path d="M18.1591 157V158H19.3519L19.1437 156.826L18.1591 157ZM16.0455 157L15.0659 157.201L15.2301 158H16.0455V157ZM15.3892 155.398L14.5571 155.952L14.5619 155.959L15.3892 155.398ZM14.2642 154.239L13.676 155.047L13.682 155.052L13.6879 155.056L14.2642 154.239ZM12.8068 153.523L12.5213 154.481L12.5213 154.481L12.8068 153.523ZM8.2642 154.085L7.73572 153.236L7.73319 153.238L8.2642 154.085ZM6.22727 156.446L5.32798 156.009L5.32606 156.013L6.22727 156.446ZM6.22727 164.099L5.32605 164.533L5.32799 164.537L6.22727 164.099ZM8.2642 166.46L7.73319 167.308L7.73572 167.309L8.2642 166.46ZM12.8068 167.023L12.5213 166.064L12.5213 166.064L12.8068 167.023ZM14.2642 166.315L14.8454 167.129L14.8474 167.128L14.2642 166.315ZM15.3892 165.148L14.5587 164.591L14.5572 164.593L15.3892 165.148ZM16.0455 163.545V162.545H15.2317L15.0663 163.342L16.0455 163.545ZM18.1591 163.545L19.1436 163.721L19.3532 162.545H18.1591V163.545ZM17.2898 165.94L16.4311 165.428L16.4311 165.428L17.2898 165.94ZM15.7216 167.739L16.3375 168.526L16.3419 168.523L15.7216 167.739ZM13.6165 168.855L13.3044 167.905L13.3023 167.906L13.6165 168.855ZM7.16477 168.148L6.63328 168.995L6.63328 168.995L7.16477 168.148ZM4.42898 165.045L5.32492 164.601L5.32492 164.601L4.42898 165.045ZM13.6165 151.69L13.3023 152.64L13.3044 152.64L13.6165 151.69ZM15.7216 152.815L15.1012 153.6L15.1057 153.603L15.7216 152.815ZM17.2898 154.605L16.4311 155.118L16.4329 155.121L17.2898 154.605ZM18.1591 156H16.0455V158H18.1591V156ZM17.025 156.799C16.8765 156.077 16.6111 155.417 16.2165 154.836L14.5619 155.959C14.7923 156.299 14.9644 156.707 15.0659 157.201L17.025 156.799ZM16.2213 154.843C15.8475 154.282 15.3864 153.806 14.8405 153.421L13.6879 155.056C14.0284 155.296 14.3173 155.593 14.5572 155.952L16.2213 154.843ZM14.8524 153.43C14.3204 153.043 13.7317 152.755 13.0923 152.564L12.5213 154.481C12.9501 154.609 13.333 154.798 13.676 155.047L14.8524 153.43ZM13.0923 152.564C12.4619 152.377 11.8087 152.284 11.1364 152.284V154.284C11.6231 154.284 12.0835 154.351 12.5213 154.481L13.0923 152.564ZM11.1364 152.284C9.90169 152.284 8.75971 152.599 7.73572 153.236L8.79269 154.934C9.48461 154.503 10.2574 154.284 11.1364 154.284V152.284ZM7.73319 153.238C6.69956 153.886 5.90308 154.826 5.32799 156.009L7.12656 156.883C7.56283 155.986 8.12431 155.353 8.79522 154.933L7.73319 153.238ZM5.32606 156.013C4.74413 157.223 4.47727 158.656 4.47727 160.273H6.47727C6.47727 158.867 6.71041 157.749 7.12849 156.879L5.32606 156.013ZM4.47727 160.273C4.47727 161.89 4.74413 163.323 5.32606 164.533L7.12849 163.666C6.71041 162.797 6.47727 161.679 6.47727 160.273H4.47727ZM5.32799 164.537C5.90308 165.719 6.69956 166.66 7.73319 167.308L8.79522 165.613C8.12431 165.192 7.56283 164.559 7.12656 163.662L5.32799 164.537ZM7.73572 167.309C8.75971 167.947 9.90169 168.261 11.1364 168.261V166.261C10.2574 166.261 9.48461 166.042 8.79269 165.611L7.73572 167.309ZM11.1364 168.261C11.8087 168.261 12.4619 168.169 13.0923 167.981L12.5213 166.064C12.0835 166.195 11.6231 166.261 11.1364 166.261V168.261ZM13.0923 167.981C13.7284 167.792 14.3148 167.508 14.8454 167.129L13.683 165.502C13.3386 165.748 12.9534 165.936 12.5213 166.064L13.0923 167.981ZM14.8474 167.128C15.3897 166.738 15.8486 166.261 16.2213 165.702L14.5572 164.593C14.3162 164.955 14.025 165.256 13.681 165.503L14.8474 167.128ZM16.2197 165.705C16.6108 165.122 16.8759 164.465 17.0246 163.749L15.0663 163.342C14.965 163.83 14.7926 164.242 14.5587 164.591L16.2197 165.705ZM16.0455 164.545H18.1591V162.545H16.0455V164.545ZM17.1746 163.37C17.0345 164.155 16.7834 164.837 16.4311 165.428L18.1485 166.453C18.637 165.634 18.9655 164.72 19.1436 163.721L17.1746 163.37ZM16.4311 165.428C16.071 166.031 15.6281 166.538 15.1013 166.954L16.3419 168.523C17.0651 167.951 17.6676 167.259 18.1485 166.453L16.4311 165.428ZM15.1057 166.951C14.5748 167.366 13.9766 167.684 13.3044 167.905L13.9285 169.805C14.8132 169.515 15.6184 169.089 16.3375 168.526L15.1057 166.951ZM13.3023 167.906C12.6389 168.125 11.919 168.239 11.1364 168.239V170.239C12.115 170.239 13.0486 170.096 13.9306 169.804L13.3023 167.906ZM11.1364 168.239C9.81859 168.239 8.68216 167.919 7.69626 167.301L6.63328 168.995C7.96557 169.831 9.47687 170.239 11.1364 170.239V168.239ZM7.69626 167.301C6.70801 166.681 5.91566 165.793 5.32492 164.601L3.53304 165.49C4.27184 166.98 5.30336 168.16 6.63328 168.995L7.69626 167.301ZM5.32492 164.601C4.74253 163.427 4.43182 161.994 4.43182 160.273H2.43182C2.43182 162.233 2.78588 163.983 3.53304 165.49L5.32492 164.601ZM4.43182 160.273C4.43182 158.551 4.74253 157.119 5.32492 155.944L3.53304 155.056C2.78588 156.563 2.43182 158.313 2.43182 160.273H4.43182ZM5.32492 155.944C5.91566 154.753 6.70801 153.865 7.69626 153.245L6.63328 151.551C5.30336 152.385 4.27184 153.566 3.53304 155.056L5.32492 155.944ZM7.69626 153.245C8.68216 152.626 9.81859 152.307 11.1364 152.307V150.307C9.47687 150.307 7.96557 150.715 6.63328 151.551L7.69626 153.245ZM11.1364 152.307C11.919 152.307 12.6389 152.42 13.3023 152.64L13.9306 150.741C13.0486 150.449 12.115 150.307 11.1364 150.307V152.307ZM13.3044 152.64C13.9743 152.86 14.5711 153.18 15.1013 153.6L16.3419 152.031C15.6221 151.462 14.8155 151.032 13.9285 150.74L13.3044 152.64ZM15.1057 153.603C15.6301 154.013 16.0717 154.515 16.4311 155.118L18.1485 154.093C17.667 153.286 17.0631 152.595 16.3375 152.028L15.1057 153.603ZM16.4329 155.121C16.7832 155.703 17.0342 156.383 17.1744 157.174L19.1437 156.826C18.9658 155.821 18.6372 154.905 18.1467 154.09L16.4329 155.121ZM23.3132 169V170H24.3132V169H23.3132ZM21.3018 169H20.3018V170H21.3018V169ZM21.3018 151.545V150.545H20.3018V151.545H21.3018ZM23.3132 151.545H24.3132V150.545H23.3132V151.545ZM23.3132 157.955H22.3132V158.955H23.3132V157.955ZM23.4837 157.955V158.955H24.128L24.3943 158.368L23.4837 157.955ZM24.8643 156.344L25.4082 157.183L25.4101 157.182L24.8643 156.344ZM29.6797 156.276L29.2087 157.158L29.2146 157.161L29.6797 156.276ZM31.2393 157.903L30.3463 158.353L30.3505 158.362L31.2393 157.903ZM31.8018 169V170H32.8018V169H31.8018ZM29.7905 169H28.7905V170H29.7905V169ZM28.9808 158.406L28.2488 159.088L28.2558 159.095L28.9808 158.406ZM24.9837 157.963L24.5136 157.08L24.5096 157.083L24.9837 157.963ZM23.7564 159.182L22.8853 158.691L22.8814 158.698L23.7564 159.182ZM22.3132 161.125V169H24.3132V161.125H22.3132ZM23.3132 168H21.3018V170H23.3132V168ZM22.3018 169V151.545H20.3018V169H22.3018ZM21.3018 152.545H23.3132V150.545H21.3018V152.545ZM22.3132 151.545V157.955H24.3132V151.545H22.3132ZM23.3132 158.955H23.4837V156.955H23.3132V158.955ZM24.3943 158.368C24.6234 157.863 24.9576 157.475 25.4082 157.183L24.3205 155.505C23.5438 156.008 22.9576 156.694 22.573 157.541L24.3943 158.368ZM25.4101 157.182C25.8151 156.918 26.4283 156.739 27.3359 156.739V154.739C26.1868 154.739 25.1522 154.963 24.3185 155.506L25.4101 157.182ZM27.3359 156.739C28.0923 156.739 28.7065 156.89 29.2087 157.158L30.1507 155.393C29.312 154.946 28.3637 154.739 27.3359 154.739V156.739ZM29.2146 157.161C29.6849 157.408 30.0625 157.79 30.3463 158.353L32.1324 157.453C31.6775 156.551 31.0154 155.848 30.1448 155.39L29.2146 157.161ZM30.3505 158.362C30.6303 158.904 30.8018 159.66 30.8018 160.682H32.8018C32.8018 159.454 32.5984 158.357 32.1282 157.445L30.3505 158.362ZM30.8018 160.682V169H32.8018V160.682H30.8018ZM31.8018 168H29.7905V170H31.8018V168ZM30.7905 169V160.818H28.7905V169H30.7905ZM30.7905 160.818C30.7905 159.608 30.4736 158.526 29.7058 157.718L28.2558 159.095C28.5676 159.423 28.7905 159.949 28.7905 160.818H30.7905ZM29.7128 157.725C28.9505 156.906 27.9199 156.545 26.7564 156.545V158.545C27.4907 158.545 27.943 158.759 28.2488 159.088L29.7128 157.725ZM26.7564 156.545C25.9522 156.545 25.1968 156.717 24.5136 157.08L25.4538 158.846C25.816 158.653 26.2424 158.545 26.7564 158.545V156.545ZM24.5096 157.083C23.8185 157.455 23.275 158 22.8853 158.691L24.6275 159.673C24.8401 159.296 25.1147 159.028 25.4578 158.844L24.5096 157.083ZM22.8814 158.698C22.486 159.412 22.3132 160.236 22.3132 161.125H24.3132C24.3132 160.492 24.4358 160.019 24.6314 159.666L22.8814 158.698ZM37.0753 168.838L36.6495 169.743L36.6557 169.746L37.0753 168.838ZM35.4645 167.466L34.63 168.017L34.6324 168.021L35.4645 167.466ZM35.3111 163.46L36.1556 163.996L36.1585 163.991L35.3111 163.46ZM38.1321 161.756L38.3461 162.733L38.3529 162.731L38.1321 161.756ZM39.9474 161.432L39.8199 160.44L39.8177 160.44L39.9474 161.432ZM41.8821 161.202L41.985 162.196L41.995 162.195L41.8821 161.202ZM42.973 160.92L42.4837 160.048L42.4745 160.054L42.973 160.92ZM42.6321 158.21L41.9163 158.909L41.9207 158.913L42.6321 158.21ZM38.3026 158.142L38.9131 158.934L38.9131 158.934L38.3026 158.142ZM37.152 159.489L36.8157 160.43L37.6748 160.737L38.059 159.91L37.152 159.489ZM35.2429 158.807L34.3238 158.413L33.9047 159.391L34.9066 159.749L35.2429 158.807ZM36.6065 156.949L37.2216 157.737L37.2226 157.737L36.6065 156.949ZM38.4815 156.011L38.7336 156.979L38.7392 156.978L38.4815 156.011ZM41.9418 155.892L41.7575 156.875L41.7691 156.877L41.9418 155.892ZM43.5355 156.497L43.021 157.355L43.0252 157.357L43.5355 156.497ZM44.8224 157.886L43.9464 158.369L43.9464 158.369L44.8224 157.886ZM45.3338 169V170H46.3338V169H45.3338ZM43.3224 169H42.3224V170H43.3224V169ZM43.3224 167.227H44.3224V166.227H43.3224V167.227ZM43.2202 167.227V166.227H42.5909L42.3186 166.795L43.2202 167.227ZM42.5384 168.139L43.2517 168.84L43.2517 168.84L42.5384 168.139ZM41.2685 168.966L40.8734 168.047L41.2685 168.966ZM41.652 167.031L41.1587 166.161L41.1549 166.164L41.652 167.031ZM42.8963 165.821L42.0293 165.323L42.025 165.33L42.8963 165.821ZM43.3224 162.42H44.3224V159.658L42.5542 161.78L43.3224 162.42ZM42.7599 162.702L43.0296 163.665L43.0421 163.661L42.7599 162.702ZM41.7713 162.915L41.9234 163.903L41.9357 163.901L41.7713 162.915ZM40.6889 163.068L40.8029 164.062L40.8169 164.06L40.6889 163.068ZM39.8452 163.17L39.9745 164.162L39.9756 164.162L39.8452 163.17ZM38.3793 163.503L38.6919 164.453L38.699 164.45L38.3793 163.503ZM37.2884 164.176L36.5541 163.497L36.5535 163.498L37.2884 164.176ZM37.6548 166.972L37.0856 167.794L37.096 167.801L37.6548 166.972ZM39.3338 168.307C38.6326 168.307 38.0252 168.175 37.4948 167.93L36.6557 169.746C37.4777 170.126 38.376 170.307 39.3338 170.307V168.307ZM37.5011 167.933C36.9824 167.689 36.5889 167.35 36.2965 166.911L34.6324 168.021C35.1355 168.775 35.8159 169.351 36.6495 169.743L37.5011 167.933ZM36.299 166.915C36.0275 166.504 35.8679 165.977 35.8679 165.284H33.8679C33.8679 166.296 34.106 167.223 34.63 168.017L36.299 166.915ZM35.8679 165.284C35.8679 164.658 35.9921 164.254 36.1556 163.996L34.4666 162.925C34.0392 163.599 33.8679 164.41 33.8679 165.284H35.8679ZM36.1585 163.991C36.3612 163.668 36.6273 163.418 36.971 163.232L36.0204 161.472C35.3755 161.821 34.8518 162.31 34.4637 162.929L36.1585 163.991ZM36.971 163.232C37.3764 163.013 37.8328 162.845 38.3461 162.733L37.9181 160.779C37.2382 160.928 36.6037 161.157 36.0204 161.472L36.971 163.232ZM38.3529 162.731C38.9253 162.601 39.5 162.499 40.0772 162.423L39.8177 160.44C39.1789 160.524 38.5434 160.637 37.9113 160.78L38.3529 162.731ZM40.075 162.424C40.8665 162.322 41.5023 162.246 41.985 162.196L41.7792 160.207C41.2733 160.259 40.6193 160.337 39.8199 160.44L40.075 162.424ZM41.995 162.195C42.5289 162.135 43.0609 162.023 43.4715 161.787L42.4745 160.054C42.4306 160.079 42.2353 160.155 41.7692 160.208L41.995 162.195ZM43.4623 161.793C44.0827 161.445 44.3224 160.833 44.3224 160.239H42.3224C42.3224 160.283 42.3143 160.256 42.3452 160.196C42.3607 160.166 42.3826 160.134 42.4103 160.106C42.4378 160.078 42.4643 160.059 42.4838 160.048L43.4623 161.793ZM44.3224 160.239V160.17H42.3224V160.239H44.3224ZM44.3224 160.17C44.3224 159.145 44.0371 158.21 43.3435 157.507L41.9207 158.913C42.1476 159.143 42.3224 159.515 42.3224 160.17H44.3224ZM43.3479 157.512C42.6375 156.784 41.6413 156.511 40.5611 156.511V158.511C41.3331 158.511 41.7176 158.705 41.9163 158.909L43.3479 157.512ZM40.5611 156.511C39.4654 156.511 38.4698 156.751 37.692 157.35L38.9131 158.934C39.2262 158.693 39.7364 158.511 40.5611 158.511V156.511ZM37.692 157.35C37.0573 157.839 36.5518 158.407 36.245 159.068L38.059 159.91C38.1953 159.616 38.4569 159.286 38.9131 158.934L37.692 157.35ZM37.4883 158.547L35.5792 157.865L34.9066 159.749L36.8157 160.43L37.4883 158.547ZM36.162 159.201C36.4498 158.529 36.8107 158.058 37.2216 157.737L35.9915 156.16C35.266 156.726 34.7178 157.493 34.3238 158.413L36.162 159.201ZM37.2226 157.737C37.6935 157.368 38.1955 157.119 38.7336 156.979L38.2294 155.044C37.4153 155.256 36.6673 155.632 35.9904 156.161L37.2226 157.737ZM38.7392 156.978C39.3429 156.817 39.9267 156.739 40.4929 156.739V154.739C39.7409 154.739 38.9838 154.842 38.2239 155.045L38.7392 156.978ZM40.4929 156.739C40.8355 156.739 41.2548 156.781 41.7575 156.875L42.126 154.909C41.5379 154.799 40.9912 154.739 40.4929 154.739V156.739ZM41.7691 156.877C42.1917 156.951 42.6078 157.107 43.021 157.355L44.05 155.64C43.4405 155.274 42.7941 155.026 42.1144 154.907L41.7691 156.877ZM43.0252 157.357C43.3637 157.558 43.6763 157.878 43.9464 158.369L45.6985 157.404C45.2868 156.656 44.7414 156.05 44.0458 155.637L43.0252 157.357ZM43.9464 158.369C44.1766 158.787 44.3338 159.43 44.3338 160.375H46.3338C46.3338 159.24 46.1501 158.225 45.6985 157.404L43.9464 158.369ZM44.3338 160.375V169H46.3338V160.375H44.3338ZM45.3338 168H43.3224V170H45.3338V168ZM44.3224 169V167.227H42.3224V169H44.3224ZM43.3224 166.227H43.2202V168.227H43.3224V166.227ZM42.3186 166.795C42.2458 166.946 42.0971 167.161 41.825 167.438L43.2517 168.84C43.616 168.469 43.9218 168.076 44.1217 167.66L42.3186 166.795ZM41.825 167.438C41.6185 167.649 41.3131 167.858 40.8734 168.047L41.6636 169.885C42.2806 169.619 42.8218 169.278 43.2517 168.84L41.825 167.438ZM40.8734 168.047C40.5031 168.207 40.0011 168.307 39.3338 168.307V170.307C40.1893 170.307 40.977 170.18 41.6636 169.885L40.8734 168.047ZM39.6406 168.5C40.565 168.5 41.4172 168.318 42.1491 167.899L41.1549 166.164C40.7959 166.369 40.3072 166.5 39.6406 166.5V168.5ZM42.1452 167.901C42.8356 167.51 43.3899 166.982 43.7676 166.312L42.025 165.33C41.8459 165.648 41.5707 165.928 41.1588 166.161L42.1452 167.901ZM43.7633 166.319C44.1304 165.681 44.3224 164.99 44.3224 164.261H42.3224C42.3224 164.624 42.2304 164.973 42.0293 165.323L43.7633 166.319ZM44.3224 164.261V162.42H42.3224V164.261H44.3224ZM42.5542 161.78C42.5989 161.727 42.6382 161.696 42.6557 161.684C42.6739 161.67 42.6811 161.668 42.6707 161.673C42.6609 161.678 42.6406 161.687 42.607 161.7C42.5737 161.712 42.5311 161.727 42.4778 161.742L43.0421 163.661C43.2213 163.608 43.4009 163.544 43.5651 163.462C43.7191 163.385 43.9236 163.261 44.0907 163.061L42.5542 161.78ZM42.4903 161.739C42.2491 161.806 41.956 161.87 41.6069 161.928L41.9357 163.901C42.3366 163.834 42.7027 163.756 43.0296 163.665L42.4903 161.739ZM41.6192 161.926C41.2575 161.982 40.9048 162.032 40.5609 162.076L40.8169 164.06C41.1776 164.013 41.5464 163.961 41.9234 163.903L41.6192 161.926ZM40.5749 162.075C40.2257 162.115 39.9383 162.15 39.7147 162.179L39.9756 164.162C40.1838 164.135 40.459 164.101 40.8029 164.062L40.5749 162.075ZM39.7158 162.179C39.1346 162.255 38.5816 162.379 38.0595 162.555L38.699 164.45C39.086 164.32 39.5103 164.223 39.9745 164.162L39.7158 162.179ZM38.0666 162.553C37.4813 162.746 36.9643 163.054 36.5541 163.497L38.0226 164.855C38.1693 164.696 38.3795 164.556 38.6919 164.453L38.0666 162.553ZM36.5535 163.498C36.0677 164.024 35.8793 164.694 35.8793 165.386H37.8793C37.8793 165.056 37.9636 164.919 38.0232 164.854L36.5535 163.498ZM35.8793 165.386C35.8793 166.371 36.2655 167.226 37.0856 167.794L38.224 166.149C38.0101 166.001 37.8793 165.8 37.8793 165.386H35.8793ZM37.096 167.801C37.8234 168.291 38.6942 168.5 39.6406 168.5V166.5C38.9848 166.5 38.5317 166.357 38.2137 166.142L37.096 167.801ZM49.005 169H48.005V170H49.005V169ZM49.005 155.909V154.909H48.005V155.909H49.005ZM50.9482 155.909H51.9482V154.909H50.9482V155.909ZM50.9482 157.886H49.9482V158.886H50.9482V157.886ZM51.0845 157.886V158.886H51.7818L52.0229 158.232L51.0845 157.886ZM52.38 156.31L51.8377 155.469L51.8377 155.469L52.38 156.31ZM55.5504 155.739H56.5504V154.834L55.6499 154.744L55.5504 155.739ZM55.5504 157.784L55.3079 158.754L56.5504 159.065V157.784H55.5504ZM55.0817 157.707L54.9173 158.694L54.9304 158.696L54.9435 158.698L55.0817 157.707ZM52.6186 158.048L53.086 158.932L53.0897 158.93L52.6186 158.048ZM51.4425 159.139L50.5933 158.611L50.5915 158.614L51.4425 159.139ZM51.0163 169V170H52.0163V169H51.0163ZM50.005 169V155.909H48.005V169H50.005ZM49.005 156.909H50.9482V154.909H49.005V156.909ZM49.9482 155.909V157.886H51.9482V155.909H49.9482ZM50.9482 158.886H51.0845V156.886H50.9482V158.886ZM52.0229 158.232C52.1806 157.804 52.4644 157.445 52.9223 157.15L51.8377 155.469C51.0456 155.981 50.4657 156.673 50.1462 157.541L52.0229 158.232ZM52.9223 157.15C53.3767 156.857 53.891 156.705 54.4936 156.705V154.705C53.5281 154.705 52.6332 154.956 51.8377 155.469L52.9223 157.15ZM54.4936 156.705C54.6297 156.705 54.8051 156.707 55.022 156.713L55.0732 154.713C54.8468 154.708 54.653 154.705 54.4936 154.705V156.705ZM55.022 156.713C55.2372 156.718 55.3751 156.726 55.4509 156.734L55.6499 154.744C55.4985 154.728 55.3012 154.719 55.0732 154.713L55.022 156.713ZM54.5504 155.739V157.784H56.5504V155.739H54.5504ZM55.793 156.814C55.6627 156.781 55.4493 156.749 55.2199 156.717L54.9435 158.698C55.0616 158.714 55.1533 158.728 55.2206 158.739C55.2966 158.751 55.3172 158.757 55.3079 158.754L55.793 156.814ZM55.2461 156.721C54.9479 156.671 54.6397 156.648 54.3232 156.648V158.648C54.5407 158.648 54.7382 158.664 54.9173 158.694L55.2461 156.721ZM54.3232 156.648C53.5429 156.648 52.8095 156.813 52.1475 157.166L53.0897 158.93C53.4277 158.75 53.8307 158.648 54.3232 158.648V156.648ZM52.1512 157.164C51.5035 157.507 50.9784 157.992 50.5933 158.611L52.2916 159.667C52.486 159.355 52.7451 159.113 53.086 158.932L52.1512 157.164ZM50.5915 158.614C50.2011 159.247 50.0163 159.957 50.0163 160.716H52.0163C52.0163 160.293 52.1157 159.952 52.2934 159.664L50.5915 158.614ZM50.0163 160.716V169H52.0163V160.716H50.0163ZM51.0163 168H49.005V170H51.0163V168ZM57.9347 169H56.9347V170H57.9347V169ZM57.9347 155.909V154.909H56.9347V155.909H57.9347ZM59.946 155.909H60.946V154.909H59.946V155.909ZM59.946 169V170H60.946V169H59.946ZM57.9432 153.327L57.2509 154.048L57.2583 154.055L57.9432 153.327ZM57.9432 151.401L57.2582 150.672L57.251 150.679L57.9432 151.401ZM59.9631 151.401L59.2708 152.122L59.2782 152.129L59.9631 151.401ZM59.9631 153.327L59.2781 152.598L59.2708 152.605L59.9631 153.327ZM58.9347 169V155.909H56.9347V169H58.9347ZM57.9347 156.909H59.946V154.909H57.9347V156.909ZM58.946 155.909V169H60.946V155.909H58.946ZM59.946 168H57.9347V170H59.946V168ZM58.9574 152.727C58.8183 152.727 58.7256 152.69 58.6281 152.598L57.2583 154.055C57.7289 154.498 58.3124 154.727 58.9574 154.727V152.727ZM58.6354 152.605C58.5472 152.52 58.5256 152.457 58.5256 152.364H56.5256C56.5256 153.02 56.7823 153.599 57.251 154.048L58.6354 152.605ZM58.5256 152.364C58.5256 152.27 58.5472 152.207 58.6354 152.122L57.251 150.679C56.7823 151.128 56.5256 151.707 56.5256 152.364H58.5256ZM58.6281 152.129C58.7256 152.038 58.8183 152 58.9574 152V150C58.3124 150 57.7289 150.23 57.2583 150.672L58.6281 152.129ZM58.9574 152C59.0961 152 59.182 152.037 59.2708 152.122L60.6553 150.679C60.1873 150.23 59.6028 150 58.9574 150V152ZM59.2782 152.129C59.3702 152.216 59.3892 152.277 59.3892 152.364H61.3892C61.3892 151.701 61.1241 151.12 60.648 150.672L59.2782 152.129ZM59.3892 152.364C59.3892 152.451 59.3702 152.512 59.2782 152.598L60.648 154.055C61.1241 153.608 61.3892 153.027 61.3892 152.364H59.3892ZM59.2708 152.605C59.182 152.69 59.0961 152.727 58.9574 152.727V154.727C59.6028 154.727 60.1873 154.497 60.6553 154.048L59.2708 152.605ZM69.3232 155.909H70.3232V154.909H69.3232V155.909ZM69.3232 157.614V158.614H70.3232V157.614H69.3232ZM62.5391 157.614H61.5391V158.614H62.5391V157.614ZM62.5391 155.909V154.909H61.5391V155.909H62.5391ZM64.5163 152.773V151.773H63.5163V152.773H64.5163ZM66.5277 152.773H67.5277V151.773H66.5277V152.773ZM66.7749 166.528L65.9098 167.03L65.9158 167.04L65.922 167.051L66.7749 166.528ZM67.4226 167.091L67.0759 168.029L67.0881 168.033L67.1003 168.038L67.4226 167.091ZM68.8118 167.193L68.9698 168.181L68.9889 168.178L69.0079 168.174L68.8118 167.193ZM69.1527 167.125L70.128 166.904L69.9127 165.953L68.9566 166.144L69.1527 167.125ZM69.5618 168.932L69.9129 169.868L70.7297 169.562L70.5371 168.711L69.5618 168.932ZM68.9908 169.085L68.7859 168.106L68.7751 168.109L68.7643 168.111L68.9908 169.085ZM66.3913 168.804L65.979 169.715L65.9826 169.717L66.3913 168.804ZM65.0447 167.688L64.2272 168.263L64.2316 168.27L65.0447 167.688ZM68.3232 155.909V157.614H70.3232V155.909H68.3232ZM69.3232 156.614H62.5391V158.614H69.3232V156.614ZM63.5391 157.614V155.909H61.5391V157.614H63.5391ZM62.5391 156.909H69.3232V154.909H62.5391V156.909ZM64.5163 153.773H66.5277V151.773H64.5163V153.773ZM65.5277 152.773V165.25H67.5277V152.773H65.5277ZM65.5277 165.25C65.5277 165.882 65.6136 166.519 65.9098 167.03L67.6399 166.027C67.6066 165.969 67.5277 165.754 67.5277 165.25H65.5277ZM65.922 167.051C66.1887 167.486 66.5691 167.842 67.0759 168.029L67.7692 166.153C67.7533 166.147 67.7019 166.127 67.6277 166.006L65.922 167.051ZM67.1003 168.038C67.476 168.165 67.8665 168.227 68.2663 168.227V166.227C68.0753 166.227 67.9033 166.198 67.7448 166.144L67.1003 168.038ZM68.2663 168.227C68.5158 168.227 68.7555 168.215 68.9698 168.181L68.6538 166.206C68.584 166.217 68.46 166.227 68.2663 166.227V168.227ZM69.0079 168.174C69.15 168.145 69.2636 168.123 69.3488 168.106L68.9566 166.144C68.8714 166.161 68.7577 166.184 68.6157 166.213L69.0079 168.174ZM68.1774 167.346L68.5865 169.153L70.5371 168.711L70.128 166.904L68.1774 167.346ZM69.2107 167.995C69.1437 168.021 69.0102 168.059 68.7859 168.106L69.1956 170.064C69.46 170.009 69.7071 169.945 69.9129 169.868L69.2107 167.995ZM68.7643 168.111C68.621 168.145 68.3941 168.17 68.0618 168.17V170.17C68.4795 170.17 68.8719 170.14 69.2173 170.059L68.7643 168.111ZM68.0618 168.17C67.6418 168.17 67.2238 168.081 66.8001 167.891L65.9826 169.717C66.6498 170.015 67.3454 170.17 68.0618 170.17V168.17ZM66.8037 167.893C66.4303 167.724 66.1175 167.468 65.8579 167.105L64.2316 168.27C64.6879 168.907 65.2728 169.395 65.979 169.715L66.8037 167.893ZM65.8622 167.112C65.655 166.817 65.5163 166.402 65.5163 165.795H63.5163C63.5163 166.712 63.7299 167.558 64.2273 168.263L65.8622 167.112ZM65.5163 165.795V152.773H63.5163V165.795H65.5163ZM72.7322 173.824L72.9404 172.846L72.9304 172.844L72.9203 172.842L72.7322 173.824ZM72.1783 173.67L71.2174 173.393L70.9868 174.193L71.7311 174.565L72.1783 173.67ZM72.6896 171.898L72.9375 170.929L71.9977 170.689L71.7288 171.621L72.6896 171.898ZM73.9851 172.034L73.8945 171.038L73.8945 171.038L73.9851 172.034ZM74.9822 171.531L74.2751 170.824L74.2683 170.831L74.2617 170.838L74.9822 171.531ZM75.7919 170.091L76.7305 170.436L76.7308 170.435L75.7919 170.091ZM76.1669 169.068L77.1058 169.412L77.2322 169.068L77.1054 168.723L76.1669 169.068ZM71.326 155.909V154.909H69.8926L70.3875 156.254L71.326 155.909ZM73.5078 155.909L74.4527 155.582L74.2197 154.909H73.5078V155.909ZM77.1214 166.341L76.1765 166.668L76.4096 167.341H77.1214V166.341ZM77.2578 166.341V167.341H77.9697L78.2027 166.668L77.2578 166.341ZM80.8714 155.909V154.909H80.1596L79.9265 155.582L80.8714 155.909ZM83.0533 155.909L83.991 156.256L84.4901 154.909H83.0533V155.909ZM77.4964 170.909L76.5587 170.562L76.5585 170.562L77.4964 170.909ZM76.5675 172.588L75.7992 171.948L75.7953 171.953L76.5675 172.588ZM75.2805 173.585L74.8764 172.671L74.8724 172.672L75.2805 173.585ZM73.6442 172.909C73.3568 172.909 73.1246 172.885 72.9404 172.846L72.5241 174.802C72.874 174.876 73.2498 174.909 73.6442 174.909V172.909ZM72.9203 172.842C72.8033 172.819 72.7184 172.8 72.6603 172.783C72.6318 172.776 72.6145 172.77 72.6062 172.767C72.5967 172.763 72.6053 172.766 72.6255 172.776L71.7311 174.565C71.9692 174.684 72.2766 174.755 72.5442 174.806L72.9203 172.842ZM73.1391 173.948L73.6505 172.175L71.7288 171.621L71.2174 173.393L73.1391 173.948ZM72.4418 172.867C73.0057 173.011 73.5559 173.077 74.0756 173.03L73.8945 171.038C73.6643 171.059 73.3508 171.035 72.9375 170.929L72.4418 172.867ZM74.0756 173.03C74.717 172.972 75.2659 172.679 75.7028 172.225L74.2617 170.838C74.119 170.986 74.0032 171.028 73.8945 171.038L74.0756 173.03ZM75.6894 172.238C76.135 171.793 76.4663 171.155 76.7305 170.436L74.8533 169.746C74.6289 170.357 74.4204 170.679 74.2751 170.824L75.6894 172.238ZM76.7308 170.435L77.1058 169.412L75.228 168.724L74.853 169.747L76.7308 170.435ZM77.1054 168.723L72.2645 155.564L70.3875 156.254L75.2284 169.413L77.1054 168.723ZM71.326 156.909H73.5078V154.909H71.326V156.909ZM72.5629 156.236L76.1765 166.668L78.0664 166.014L74.4527 155.582L72.5629 156.236ZM77.1214 167.341H77.2578V165.341H77.1214V167.341ZM78.2027 166.668L81.8164 156.236L79.9265 155.582L76.3129 166.014L78.2027 166.668ZM80.8714 156.909H83.0533V154.909H80.8714V156.909ZM82.1155 155.562L76.5587 170.562L78.4342 171.256L83.991 156.256L82.1155 155.562ZM76.5585 170.562C76.3385 171.157 76.0801 171.611 75.7993 171.948L77.3357 173.228C77.7935 172.679 78.1544 172.013 78.4344 171.256L76.5585 170.562ZM75.7953 171.953C75.5162 172.292 75.2099 172.523 74.8764 172.671L75.6847 174.5C76.3284 174.215 76.8801 173.782 77.3397 173.223L75.7953 171.953ZM74.8724 172.672C74.5357 172.823 74.1324 172.909 73.6442 172.909V174.909C74.3719 174.909 75.0595 174.779 75.6887 174.498L74.8724 172.672ZM85.8445 163.818L84.8446 163.836L84.8624 164.818H85.8445V163.818ZM86.3047 161.543L85.4338 161.051L85.4338 161.051L86.3047 161.543ZM87.5661 160.29L87.1188 159.395L87.1149 159.397L87.5661 160.29ZM90.8047 160.281L90.3325 161.163L90.3387 161.166L90.345 161.169L90.8047 160.281ZM92.4581 161.466L91.8011 162.22L91.8039 162.222L92.4581 161.466ZM93.4638 162.233L92.955 163.094L92.9635 163.099L93.4638 162.233ZM95.4581 161.926L96.2365 162.554L96.2414 162.548L95.4581 161.926ZM95.8672 160.375V159.375H94.8502L94.8673 160.392L95.8672 160.375ZM97.7081 160.375L98.7079 160.357L98.6902 159.375H97.7081V160.375ZM97.2479 162.651L96.377 162.159L96.3733 162.166L97.2479 162.651ZM92.7479 163.92L92.2756 164.802L92.2839 164.806L92.7479 163.92ZM91.0945 162.727L90.4352 163.479L90.4408 163.484L91.0945 162.727ZM90.0888 161.96L90.5891 161.094L90.5891 161.094L90.0888 161.96ZM88.1115 162.224L87.3792 161.543L87.3787 161.544L88.1115 162.224ZM87.6854 163.818V164.818H88.7008L88.6853 163.803L87.6854 163.818ZM86.8443 163.8C86.8292 162.963 86.9693 162.4 87.1756 162.034L85.4338 161.051C84.9924 161.833 84.8257 162.787 84.8446 163.836L86.8443 163.8ZM87.1756 162.034C87.416 161.608 87.7001 161.343 88.0172 161.182L87.1149 159.397C86.3979 159.76 85.8411 160.329 85.4338 161.051L87.1756 162.034ZM88.0133 161.184C88.3984 160.992 88.7965 160.898 89.2195 160.898V158.898C88.4833 158.898 87.7792 159.065 87.1188 159.395L88.0133 161.184ZM89.2195 160.898C89.6462 160.898 90.0106 160.99 90.3325 161.163L91.2769 159.4C90.6442 159.061 89.9518 158.898 89.2195 158.898V160.898ZM90.345 161.169C90.7309 161.369 91.2147 161.709 91.8011 162.22L93.1151 160.712C92.4629 160.144 91.8444 159.693 91.2644 159.393L90.345 161.169ZM91.8039 162.222C92.2366 162.596 92.6261 162.9 92.9551 163.094L93.9725 161.372C93.8014 161.271 93.5205 161.063 93.1122 160.71L91.8039 162.222ZM92.9635 163.099C93.3744 163.336 93.8259 163.455 94.299 163.455V161.455C94.1699 161.455 94.0645 161.425 93.9641 161.367L92.9635 163.099ZM94.299 163.455C95.0624 163.455 95.7459 163.162 96.2365 162.554L94.6797 161.298C94.6021 161.395 94.5128 161.455 94.299 161.455V163.455ZM96.2414 162.548C96.7244 161.939 96.8805 161.158 96.867 160.358L94.8673 160.392C94.8766 160.944 94.76 161.197 94.6748 161.304L96.2414 162.548ZM95.8672 161.375H97.7081V159.375H95.8672V161.375ZM96.7083 160.393C96.7234 161.231 96.5833 161.793 96.377 162.159L98.1188 163.142C98.5602 162.36 98.7269 161.406 98.7079 160.357L96.7083 160.393ZM96.3733 162.166C96.1405 162.586 95.8598 162.849 95.5393 163.009L96.4337 164.798C97.1587 164.435 97.7189 163.863 98.1224 163.135L96.3733 162.166ZM95.5393 163.009C95.1542 163.202 94.756 163.295 94.3331 163.295V165.295C95.0692 165.295 95.7734 165.128 96.4337 164.798L95.5393 163.009ZM94.3331 163.295C93.9026 163.295 93.5353 163.204 93.2119 163.035L92.2839 164.806C92.915 165.137 93.6045 165.295 94.3331 165.295V163.295ZM93.2201 163.039C92.8321 162.831 92.3432 162.484 91.7481 161.97L90.4408 163.484C91.0957 164.05 91.7091 164.498 92.2756 164.802L93.2201 163.039ZM91.7537 161.975C91.3243 161.599 90.9306 161.292 90.5891 161.094L89.5885 162.826C89.7583 162.924 90.0351 163.128 90.4352 163.479L91.7537 161.975ZM90.5891 161.094C90.1782 160.857 89.7267 160.739 89.2536 160.739V162.739C89.3827 162.739 89.488 162.768 89.5885 162.826L90.5891 161.094ZM89.2536 160.739C88.5282 160.739 87.878 161.007 87.3792 161.543L88.8438 162.905C88.9473 162.794 89.0584 162.739 89.2536 162.739V160.739ZM87.3787 161.544C86.8187 162.147 86.6728 163.002 86.6855 163.833L88.6853 163.803C88.6752 163.145 88.8135 162.938 88.8443 162.905L87.3787 161.544ZM87.6854 162.818H85.8445V164.818H87.6854V162.818ZM104.494 169L103.538 169.291L103.754 170H104.494V169ZM100.506 155.909V154.909H99.1556L99.5491 156.201L100.506 155.909ZM102.619 155.909L103.582 155.637L103.376 154.909H102.619V155.909ZM105.449 165.932L104.486 166.204L104.692 166.932H105.449V165.932ZM105.585 165.932V166.932H106.344L106.548 166.2L105.585 165.932ZM108.381 155.909V154.909H107.621L107.417 155.64L108.381 155.909ZM110.528 155.909L111.492 155.643L111.289 154.909H110.528V155.909ZM113.29 165.898L112.326 166.164L112.529 166.898H113.29V165.898ZM113.426 165.898V166.898H114.182L114.388 166.17L113.426 165.898ZM116.256 155.909V154.909H115.5L115.294 155.637L116.256 155.909ZM118.369 155.909L119.326 156.201L119.719 154.909H118.369V155.909ZM114.381 169V170H115.121L115.337 169.291L114.381 169ZM112.403 169L111.442 169.274L111.648 170H112.403V169ZM109.54 158.943L110.502 158.669L110.295 157.943H109.54V158.943ZM109.335 158.943V157.943H108.58L108.373 158.669L109.335 158.943ZM106.472 169V170H107.227L107.433 169.274L106.472 169ZM105.451 168.709L101.462 155.618L99.5491 156.201L103.538 169.291L105.451 168.709ZM100.506 156.909H102.619V154.909H100.506V156.909ZM101.657 156.181L104.486 166.204L106.411 165.66L103.582 155.637L101.657 156.181ZM105.449 166.932H105.585V164.932H105.449V166.932ZM106.548 166.2L109.344 156.178L107.417 155.64L104.622 165.663L106.548 166.2ZM108.381 156.909H110.528V154.909H108.381V156.909ZM109.565 156.176L112.326 166.164L114.254 165.631L111.492 155.643L109.565 156.176ZM113.29 166.898H113.426V164.898H113.29V166.898ZM114.388 166.17L117.218 156.182L115.294 155.637L112.464 165.625L114.388 166.17ZM116.256 156.909H118.369V154.909H116.256V156.909ZM117.413 155.618L113.424 168.709L115.337 169.291L119.326 156.201L117.413 155.618ZM114.381 168H112.403V170H114.381V168ZM113.365 168.726L110.502 158.669L108.578 159.217L111.442 169.274L113.365 168.726ZM109.54 157.943H109.335V159.943H109.54V157.943ZM108.373 158.669L105.51 168.726L107.433 169.274L110.297 159.217L108.373 158.669ZM106.472 168H104.494V170H106.472V168ZM122.622 168.838L122.196 169.743L122.203 169.746L122.622 168.838ZM121.011 167.466L120.177 168.017L120.179 168.021L121.011 167.466ZM120.858 163.46L121.702 163.996L121.705 163.991L120.858 163.46ZM123.679 161.756L123.893 162.733L123.9 162.731L123.679 161.756ZM125.494 161.432L125.367 160.44L125.365 160.44L125.494 161.432ZM127.429 161.202L127.532 162.196L127.542 162.195L127.429 161.202ZM128.52 160.92L128.031 160.048L128.021 160.054L128.52 160.92ZM128.179 158.21L127.463 158.909L127.468 158.913L128.179 158.21ZM123.849 158.142L124.46 158.934L124.46 158.934L123.849 158.142ZM122.699 159.489L122.363 160.43L123.222 160.737L123.606 159.91L122.699 159.489ZM120.79 158.807L119.871 158.413L119.452 159.391L120.453 159.749L120.79 158.807ZM122.153 156.949L122.768 157.737L122.77 157.737L122.153 156.949ZM124.028 156.011L124.281 156.979L124.286 156.978L124.028 156.011ZM127.489 155.892L127.304 156.875L127.316 156.877L127.489 155.892ZM129.082 156.497L128.568 157.355L128.572 157.357L129.082 156.497ZM130.369 157.886L129.493 158.369L129.493 158.369L130.369 157.886ZM130.881 169V170H131.881V169H130.881ZM128.869 169H127.869V170H128.869V169ZM128.869 167.227H129.869V166.227H128.869V167.227ZM128.767 167.227V166.227H128.138L127.866 166.795L128.767 167.227ZM128.085 168.139L128.799 168.84L128.799 168.84L128.085 168.139ZM126.815 168.966L126.42 168.047L126.815 168.966ZM127.199 167.031L126.706 166.161L126.702 166.164L127.199 167.031ZM128.443 165.821L127.576 165.323L127.572 165.33L128.443 165.821ZM128.869 162.42H129.869V159.658L128.101 161.78L128.869 162.42ZM128.307 162.702L128.576 163.665L128.589 163.661L128.307 162.702ZM127.318 162.915L127.47 163.903L127.483 163.901L127.318 162.915ZM126.236 163.068L126.35 164.062L126.364 164.06L126.236 163.068ZM125.392 163.17L125.521 164.162L125.523 164.162L125.392 163.17ZM123.926 163.503L124.239 164.453L124.246 164.45L123.926 163.503ZM122.835 164.176L122.101 163.497L122.1 163.498L122.835 164.176ZM123.202 166.972L122.632 167.794L122.643 167.801L123.202 166.972ZM124.881 168.307C124.179 168.307 123.572 168.175 123.042 167.93L122.203 169.746C123.025 170.126 123.923 170.307 124.881 170.307V168.307ZM123.048 167.933C122.529 167.689 122.136 167.35 121.843 166.911L120.179 168.021C120.682 168.775 121.363 169.351 122.196 169.743L123.048 167.933ZM121.846 166.915C121.574 166.504 121.415 165.977 121.415 165.284H119.415C119.415 166.296 119.653 167.223 120.177 168.017L121.846 166.915ZM121.415 165.284C121.415 164.658 121.539 164.254 121.702 163.996L120.013 162.925C119.586 163.599 119.415 164.41 119.415 165.284H121.415ZM121.705 163.991C121.908 163.668 122.174 163.418 122.518 163.232L121.567 161.472C120.922 161.821 120.399 162.31 120.011 162.929L121.705 163.991ZM122.518 163.232C122.923 163.013 123.38 162.845 123.893 162.733L123.465 160.779C122.785 160.928 122.151 161.157 121.567 161.472L122.518 163.232ZM123.9 162.731C124.472 162.601 125.047 162.499 125.624 162.423L125.365 160.44C124.726 160.524 124.09 160.637 123.458 160.78L123.9 162.731ZM125.622 162.424C126.413 162.322 127.049 162.246 127.532 162.196L127.326 160.207C126.82 160.259 126.166 160.337 125.367 160.44L125.622 162.424ZM127.542 162.195C128.076 162.135 128.608 162.023 129.018 161.787L128.021 160.054C127.977 160.079 127.782 160.155 127.316 160.208L127.542 162.195ZM129.009 161.793C129.63 161.445 129.869 160.833 129.869 160.239H127.869C127.869 160.283 127.861 160.256 127.892 160.196C127.908 160.166 127.929 160.134 127.957 160.106C127.985 160.078 128.011 160.059 128.031 160.048L129.009 161.793ZM129.869 160.239V160.17H127.869V160.239H129.869ZM129.869 160.17C129.869 159.145 129.584 158.21 128.89 157.507L127.468 158.913C127.694 159.143 127.869 159.515 127.869 160.17H129.869ZM128.895 157.512C128.184 156.784 127.188 156.511 126.108 156.511V158.511C126.88 158.511 127.265 158.705 127.463 158.909L128.895 157.512ZM126.108 156.511C125.012 156.511 124.017 156.751 123.239 157.35L124.46 158.934C124.773 158.693 125.283 158.511 126.108 158.511V156.511ZM123.239 157.35C122.604 157.839 122.099 158.407 121.792 159.068L123.606 159.91C123.742 159.616 124.004 159.286 124.46 158.934L123.239 157.35ZM123.035 158.547L121.126 157.865L120.453 159.749L122.363 160.43L123.035 158.547ZM121.709 159.201C121.997 158.529 122.358 158.058 122.768 157.737L121.538 156.16C120.813 156.726 120.265 157.493 119.871 158.413L121.709 159.201ZM122.77 157.737C123.24 157.368 123.742 157.119 124.28 156.979L123.776 155.044C122.962 155.256 122.214 155.632 121.537 156.161L122.77 157.737ZM124.286 156.978C124.89 156.817 125.474 156.739 126.04 156.739V154.739C125.288 154.739 124.531 154.842 123.771 155.045L124.286 156.978ZM126.04 156.739C126.382 156.739 126.802 156.781 127.304 156.875L127.673 154.909C127.085 154.799 126.538 154.739 126.04 154.739V156.739ZM127.316 156.877C127.739 156.951 128.155 157.107 128.568 157.355L129.597 155.64C128.987 155.274 128.341 155.026 127.661 154.907L127.316 156.877ZM128.572 157.357C128.911 157.558 129.223 157.878 129.493 158.369L131.245 157.404C130.834 156.656 130.288 156.05 129.593 155.637L128.572 157.357ZM129.493 158.369C129.723 158.787 129.881 159.43 129.881 160.375H131.881C131.881 159.24 131.697 158.225 131.245 157.404L129.493 158.369ZM129.881 160.375V169H131.881V160.375H129.881ZM130.881 168H128.869V170H130.881V168ZM129.869 169V167.227H127.869V169H129.869ZM128.869 166.227H128.767V168.227H128.869V166.227ZM127.866 166.795C127.793 166.946 127.644 167.161 127.372 167.438L128.799 168.84C129.163 168.469 129.469 168.076 129.669 167.66L127.866 166.795ZM127.372 167.438C127.165 167.649 126.86 167.858 126.42 168.047L127.21 169.885C127.827 169.619 128.369 169.278 128.799 168.84L127.372 167.438ZM126.42 168.047C126.05 168.207 125.548 168.307 124.881 168.307V170.307C125.736 170.307 126.524 170.18 127.21 169.885L126.42 168.047ZM125.188 168.5C126.112 168.5 126.964 168.318 127.696 167.899L126.702 166.164C126.343 166.369 125.854 166.5 125.188 166.5V168.5ZM127.692 167.901C128.382 167.51 128.937 166.982 129.314 166.312L127.572 165.33C127.393 165.648 127.118 165.928 126.706 166.161L127.692 167.901ZM129.31 166.319C129.677 165.681 129.869 164.99 129.869 164.261H127.869C127.869 164.624 127.777 164.973 127.576 165.323L129.31 166.319ZM129.869 164.261V162.42H127.869V164.261H129.869ZM128.101 161.78C128.146 161.727 128.185 161.696 128.203 161.684C128.221 161.67 128.228 161.668 128.218 161.673C128.208 161.678 128.187 161.687 128.154 161.7C128.121 161.712 128.078 161.727 128.025 161.742L128.589 163.661C128.768 163.608 128.948 163.544 129.112 163.462C129.266 163.385 129.47 163.261 129.638 163.061L128.101 161.78ZM128.037 161.739C127.796 161.806 127.503 161.87 127.154 161.928L127.483 163.901C127.884 163.834 128.25 163.756 128.576 163.665L128.037 161.739ZM127.166 161.926C126.804 161.982 126.452 162.032 126.108 162.076L126.364 164.06C126.724 164.013 127.093 163.961 127.47 163.903L127.166 161.926ZM126.122 162.075C125.773 162.115 125.485 162.15 125.262 162.179L125.523 164.162C125.731 164.135 126.006 164.101 126.35 164.062L126.122 162.075ZM125.263 162.179C124.682 162.255 124.129 162.379 123.606 162.555L124.246 164.45C124.633 164.32 125.057 164.223 125.521 164.162L125.263 162.179ZM123.614 162.553C123.028 162.746 122.511 163.054 122.101 163.497L123.569 164.855C123.716 164.696 123.926 164.556 124.239 164.453L123.614 162.553ZM122.1 163.498C121.615 164.024 121.426 164.694 121.426 165.386H123.426C123.426 165.056 123.51 164.919 123.57 164.854L122.1 163.498ZM121.426 165.386C121.426 166.371 121.812 167.226 122.632 167.794L123.771 166.149C123.557 166.001 123.426 165.8 123.426 165.386H121.426ZM122.643 167.801C123.37 168.291 124.241 168.5 125.188 168.5V166.5C124.532 166.5 124.079 166.357 123.761 166.142L122.643 167.801ZM144.788 155.909L145.726 156.256L146.224 154.909H144.788V155.909ZM139.947 169V170H140.643L140.885 169.347L139.947 169ZM137.901 169L136.963 169.347L137.205 170H137.901V169ZM133.06 155.909V154.909H131.624L132.122 156.256L133.06 155.909ZM135.242 155.909L136.187 155.582L135.954 154.909H135.242V155.909ZM138.856 166.341L137.911 166.668L138.144 167.341H138.856V166.341ZM138.992 166.341V167.341H139.704L139.937 166.668L138.992 166.341ZM142.606 155.909V154.909H141.894L141.661 155.582L142.606 155.909ZM143.85 155.562L139.009 168.653L140.885 169.347L145.726 156.256L143.85 155.562ZM139.947 168H137.901V170H139.947V168ZM138.839 168.653L133.998 155.562L132.122 156.256L136.963 169.347L138.839 168.653ZM133.06 156.909H135.242V154.909H133.06V156.909ZM134.297 156.236L137.911 166.668L139.801 166.014L136.187 155.582L134.297 156.236ZM138.856 167.341H138.992V165.341H138.856V167.341ZM139.937 166.668L143.551 156.236L141.661 155.582L138.047 166.014L139.937 166.668ZM142.606 156.909H144.788V154.909H142.606V156.909ZM149.198 168.438L148.672 169.288L148.678 169.292L149.198 168.438ZM147.093 166.085L146.193 166.52L146.196 166.526L147.093 166.085ZM147.093 159.011L146.192 158.578L146.191 158.58L147.093 159.011ZM149.156 156.608L149.701 157.446L149.703 157.445L149.156 156.608ZM154.278 156.08L154.601 155.133L154.601 155.133L154.278 156.08ZM156.093 157.188L155.409 157.917L155.413 157.921L156.093 157.188ZM157.397 159.199L158.329 158.837L158.329 158.837L157.397 159.199ZM157.883 163.136V164.136H158.883V163.136H157.883ZM147.792 163.136H146.792V164.136H147.792V163.136ZM147.792 161.398V160.398H146.792V161.398H147.792ZM155.837 161.398V162.398H156.837V161.398H155.837ZM155.394 159.42L154.5 159.868L154.503 159.875L155.394 159.42ZM154.15 158.048L153.618 158.895L153.622 158.898L154.15 158.048ZM150.178 158.142L150.739 158.97L150.74 158.969L150.178 158.142ZM148.84 159.676L147.944 159.232L147.944 159.232L148.84 159.676ZM148.883 165.378L147.987 165.822L147.991 165.831L148.883 165.378ZM150.323 166.938L149.819 167.801L149.825 167.805L150.323 166.938ZM153.894 167.244L154.222 168.189L154.229 168.187L153.894 167.244ZM155.011 166.562L155.705 167.283L155.711 167.276L155.011 166.562ZM155.735 165.42L156.005 164.458L155.121 164.209L154.799 165.069L155.735 165.42ZM157.678 165.966L158.633 166.262L158.938 165.281L157.949 165.003L157.678 165.966ZM156.647 167.705L157.362 168.403L157.366 168.399L156.647 167.705ZM154.857 168.864L155.216 169.797L155.222 169.795L154.857 168.864ZM152.462 168.273C151.351 168.273 150.45 168.029 149.718 167.583L148.678 169.292C149.776 169.96 151.051 170.273 152.462 170.273V168.273ZM149.724 167.587C148.983 167.128 148.406 166.49 147.99 165.644L146.196 166.526C146.769 167.692 147.595 168.622 148.672 169.288L149.724 167.587ZM147.993 165.65C147.582 164.798 147.36 163.776 147.36 162.557H145.36C145.36 164.02 145.627 165.349 146.193 166.52L147.993 165.65ZM147.36 162.557C147.36 161.338 147.582 160.308 147.995 159.442L146.191 158.58C145.627 159.76 145.36 161.094 145.36 162.557H147.36ZM147.994 159.445C148.416 158.566 148.987 157.911 149.701 157.446L148.61 155.77C147.563 156.452 146.758 157.4 146.192 158.578L147.994 159.445ZM149.703 157.445C150.408 156.984 151.247 156.739 152.258 156.739V154.739C150.905 154.739 149.676 155.073 148.608 155.771L149.703 157.445ZM152.258 156.739C152.826 156.739 153.39 156.833 153.954 157.026L154.601 155.133C153.835 154.872 153.053 154.739 152.258 154.739V156.739ZM153.954 157.026C154.476 157.204 154.96 157.496 155.409 157.917L156.777 156.458C156.135 155.856 155.409 155.409 154.601 155.133L153.954 157.026ZM155.413 157.921C155.827 158.304 156.185 158.838 156.465 159.56L158.329 158.837C157.962 157.889 157.45 157.082 156.773 156.454L155.413 157.921ZM156.465 159.56C156.731 160.247 156.883 161.144 156.883 162.284H158.883C158.883 160.981 158.711 159.821 158.329 158.837L156.465 159.56ZM156.883 162.284V163.136H158.883V162.284H156.883ZM157.883 162.136H147.792V164.136H157.883V162.136ZM148.792 163.136V161.398H146.792V163.136H148.792ZM147.792 162.398H155.837V160.398H147.792V162.398ZM156.837 161.398C156.837 160.523 156.661 159.704 156.285 158.966L154.503 159.875C154.718 160.296 154.837 160.795 154.837 161.398H156.837ZM156.289 158.973C155.918 158.232 155.378 157.634 154.677 157.199L153.622 158.898C154.002 159.133 154.291 159.45 154.5 159.868L156.289 158.973ZM154.681 157.201C153.965 156.752 153.144 156.545 152.258 156.545V158.545C152.826 158.545 153.267 158.675 153.618 158.895L154.681 157.201ZM152.258 156.545C151.284 156.545 150.389 156.79 149.616 157.315L150.74 158.969C151.138 158.699 151.63 158.545 152.258 158.545V156.545ZM149.618 157.314C148.894 157.803 148.333 158.447 147.944 159.232L149.736 160.12C149.972 159.643 150.303 159.265 150.739 158.97L149.618 157.314ZM147.944 159.232C147.562 160.004 147.371 160.833 147.371 161.705H149.371C149.371 161.133 149.494 160.609 149.736 160.12L147.944 159.232ZM147.371 161.705V162.864H149.371V161.705H147.371ZM147.371 162.864C147.371 163.963 147.561 164.963 147.987 165.822L149.779 164.934C149.523 164.418 149.371 163.741 149.371 162.864H147.371ZM147.991 165.831C148.418 166.67 149.027 167.339 149.819 167.801L150.827 166.074C150.392 165.82 150.041 165.449 149.774 164.925L147.991 165.831ZM149.825 167.805C150.612 168.256 151.501 168.466 152.462 168.466V166.466C151.798 166.466 151.262 166.323 150.821 166.07L149.825 167.805ZM152.462 168.466C153.084 168.466 153.674 168.379 154.222 168.189L153.567 166.299C153.262 166.405 152.898 166.466 152.462 166.466V168.466ZM154.229 168.187C154.787 167.988 155.284 167.688 155.705 167.283L154.317 165.842C154.112 166.039 153.865 166.194 153.559 166.302L154.229 168.187ZM155.711 167.276C156.139 166.856 156.455 166.348 156.671 165.772L154.799 165.069C154.674 165.402 154.508 165.655 154.31 165.849L155.711 167.276ZM155.465 166.383L157.408 166.929L157.949 165.003L156.005 164.458L155.465 166.383ZM156.723 165.67C156.565 166.178 156.303 166.621 155.928 167.01L157.366 168.399C157.957 167.788 158.382 167.072 158.633 166.262L156.723 165.67ZM155.932 167.006C155.558 167.389 155.084 167.7 154.492 167.933L155.222 169.795C156.051 169.47 156.77 169.009 157.362 168.403L155.932 167.006ZM154.499 167.93C153.92 168.152 153.246 168.273 152.462 168.273V170.273C153.451 170.273 154.374 170.12 155.216 169.797L154.499 167.93Z" fill="#2C3A47"/>
<path d="M42 0.97718V1.97718H45L42 0.97718Z" fill="#EBE4AF"/>
<path d="M7.00009 74.9772C16.2451 72.7862 32.4041 67.1662 37.7751 58.8842C41.3141 53.4282 44.4881 45.9822 47.0461 39.9772C47.9011 37.9702 48.4991 33.1502 51.1301 32.6082C53.9101 32.0362 53.7261 36.4312 53.4631 37.9782C52.7241 42.3282 49.0911 48.5902 56.0191 49.5432C64.0811 50.6512 78.6991 35.4592 84.0001 44.9772L67.0001 52.9772V53.9772C71.1101 53.6192 85.2301 47.5612 88.0791 51.5402C90.5031 54.9262 72.5431 59.1502 70.0001 59.9772V60.9772C72.1811 60.9772 89.7421 59.5482 86.9401 63.8482C84.4241 67.7092 72.3011 66.6702 68.0001 67.9772V68.9772L84.0001 71.9772V72.9772C66.7601 77.0822 47.1151 71.9542 31.0001 81.4302C27.7331 83.3512 20.5921 86.3212 19.3061 90.1622C17.4241 95.7862 29.6001 104.577 33.0001 107.977C45.8141 120.791 59.6501 132.264 74.0001 143.326C78.0601 146.456 84.7201 153.652 90.0001 154.099C95.2881 154.546 102.991 146.112 107 143.104C122.48 131.489 140.756 118.94 152 102.977C138.334 95.7042 125.577 91.4522 110 90.1652C103.524 89.6302 97.5831 91.1992 91.0001 89.9772V87.9772L107 84.9772V83.9772C99.8531 83.6702 90.8211 83.8222 86.0001 77.9772H105V76.9772L85.0001 70.9772C89.2801 63.2172 100.345 69.8462 107 70.9772L91.0001 57.9772L123 65.9772L121 47.9772C128.807 50.4352 132.372 67.0132 135.916 73.9372C139.5 80.9412 153.266 88.1982 160.996 89.1922C166.099 89.8482 168.859 83.6132 170.988 79.9772C176.957 69.7832 180.277 59.8302 179.985 47.9772C178.983 7.17521 116.344 -18.9027 91.0001 16.9772C65.8351 -8.1188 18.7751 -3.19779 4.45408 31.9772C-1.57392 46.7812 1.17009 60.7642 7.00009 74.9772Z" fill="#1B9CFC"/>
<path d="M61 0.977173V1.97717H65L61 0.977173ZM116 0.977173V1.97717H120L116 0.977173ZM136 0.977173V1.97717H139L136 0.977173ZM1 39.9772V42.9772H2L1 39.9772ZM179 39.9772V42.9772H180L179 39.9772ZM78 40.9772V41.9772H83L78 40.9772ZM180 44.9772V54.9772H181L180 44.9772ZM0 45.9772V54.9772H1L0 45.9772ZM78 50.9772V51.9772H81L78 50.9772ZM89 50.9772V53.9772H90L89 50.9772ZM67 53.9772V54.9772H70L67 53.9772ZM83 54.9772V55.9772H86L83 54.9772ZM69 59.9772L73 61.9772V60.9772L69 59.9772ZM82 59.9772V60.9772H87L82 59.9772ZM123 60.9772V64.9772H124L123 60.9772ZM83 64.9772V65.9772H86L83 64.9772ZM72 65.9772V66.9772H76L72 65.9772ZM114 65.9772V66.9772H121L114 65.9772ZM91 66.9772V67.9772H94L91 66.9772ZM69 68.9772V69.9772H74L69 68.9772ZM67 72.9772V73.9772H73L67 72.9772ZM41 75.9772V76.9772H44L41 75.9772ZM46 75.9772V76.9772H51L46 75.9772ZM87 76.9772V77.9772H95L87 76.9772ZM92 81.9772V82.9772H97L92 81.9772ZM101 82.9772V83.9772H104L101 82.9772ZM96 85.9772V86.9772H105L96 85.9772ZM93 89.9772V90.9772H105L93 89.9772ZM120 91.9772V92.9772H123L120 91.9772Z" fill="#EBE4AF"/>
</svg>
