<svg width="860" height="616" viewBox="0 0 860 616" fill="none" xmlns="http://www.w3.org/2000/svg">
<path d="M710.923 615.482H398.118C396.512 615.482 395.209 614.207 395.209 612.633C395.209 611.057 396.512 609.782 398.118 609.782H710.923C712.529 609.782 713.833 611.057 713.833 612.633C713.833 614.207 712.529 615.482 710.923 615.482Z" fill="#3698AC"/>
<path d="M856.883 598.26H2.90841C1.30135 598.26 0 596.982 0 595.408C0 593.835 1.30135 592.557 2.90841 592.557H856.883C858.49 592.557 859.791 593.835 859.791 595.408C859.791 596.982 858.49 598.26 856.883 598.26Z" fill="#3698AC"/>
<path d="M326.083 615.362H45.0848C43.4785 615.362 42.1758 614.088 42.1758 612.513C42.1758 610.938 43.4785 609.662 45.0848 609.662H326.083C327.689 609.662 328.992 610.938 328.992 612.513C328.992 614.088 327.689 615.362 326.083 615.362Z" fill="#3698AC"/>
<path d="M175.179 592.192H302.439V402.917H175.179V592.192Z" fill="#BE3955"/>
<path d="M24.2275 592.192H175.179V402.917H24.2275V592.192Z" fill="#F7F7F7"/>
<path d="M83.8975 426.143H109.013V402.917H83.8975V426.143Z" fill="#EDACB0"/>
<path d="M238.796 426.143H253.379V402.917H238.796V426.143Z" fill="#E49BAD"/>
<path d="M83.8975 592.192H109.013V571.882H83.8975V592.192Z" fill="#EDACB0"/>
<path d="M175.179 442.919H183.822V402.917H175.179V442.919Z" fill="#A53454"/>
<path d="M290.209 592.192H417.469V442.919H290.209V592.192Z" fill="#F7F7F7"/>
<path d="M139.259 592.192H290.209V442.919H139.259V592.192Z" fill="#F57A5D"/>
<path d="M198.927 466.145H224.043V442.918H198.927V466.145Z" fill="#FABDB1"/>
<path d="M198.927 592.192H224.043V571.882H198.927V592.192Z" fill="#FABDB1"/>
<path d="M322.274 592.192H290.209V442.919H298.851V541.06C298.851 558.206 308.249 573.2 322.274 581.365V592.192Z" fill="#B84B5C"/>
<path d="M268.161 523.91L172.628 530.93L169.208 486.249L264.742 479.229L268.161 523.91Z" fill="#FEEFCC"/>
<path d="M191.472 505.443C191.208 504.271 190.1 503.3 188.148 502.533C188.255 505.689 188.471 509.025 188.799 512.541C190.807 510.253 191.737 508.148 191.589 506.229C191.569 505.966 191.53 505.703 191.472 505.443ZM193.778 508.313C193.618 508.758 193.47 509.206 193.33 509.652C193.137 510.177 192.919 510.6 192.674 510.922C192.134 511.699 191.594 512.469 191.054 513.227C190.408 514.145 189.81 514.795 189.261 515.176C189.086 515.417 188.892 515.668 188.68 515.928C188.468 516.19 188.248 516.331 188.017 516.348C187.902 516.354 187.765 516.338 187.608 516.291C187.449 516.246 187.277 516.193 187.088 516.131C186.898 516.069 186.76 515.957 186.671 515.794C186.552 515.006 186.459 514.161 186.39 513.256C186.319 512.334 186.252 510.957 186.189 509.126C186.127 507.293 186.061 505.916 185.989 504.994C185.896 503.771 185.762 502.652 185.588 501.644C185.567 501.626 185.339 501.426 184.905 501.04C184.636 500.814 184.494 500.597 184.478 500.391L184.514 500.103C184.592 499.871 184.795 499.723 185.118 499.662C185.365 499.605 185.612 499.558 185.86 499.523C187.501 499.742 189.258 500.503 191.135 501.804C191.626 502.148 192.03 502.515 192.35 502.907C193.375 504.176 193.932 505.393 194.021 506.562C194.066 507.165 193.986 507.748 193.778 508.313Z" fill="#3A476C"/>
<path d="M202.876 506.024C202.636 504.661 202.2 503.869 201.564 503.65L201.3 503.613C201.071 503.631 200.796 503.839 200.479 504.242C200.128 504.704 199.849 504.979 199.645 505.07C199.515 505.136 199.317 505.093 199.054 504.943C198.792 504.791 198.623 504.718 198.545 504.724L198.406 504.791C197.776 505.405 197.507 506.305 197.599 507.492C197.66 508.303 197.904 508.976 198.333 509.51C198.929 510.245 199.41 510.596 199.774 510.569C200.621 510.506 201.397 509.93 202.107 508.836C202.781 507.804 203.037 506.866 202.876 506.024ZM205.316 507.606C204.373 510.194 202.883 511.799 200.845 512.423C200.598 512.496 200.351 512.544 200.101 512.562C199.007 512.642 197.857 512.14 196.655 511.055C195.845 510.317 195.39 509.321 195.294 508.059C195.187 506.666 195.495 505.138 196.218 503.475C196.531 502.771 196.929 502.154 197.411 501.626C197.961 501 198.505 500.665 199.044 500.626C199.35 500.604 199.648 500.696 199.933 500.903C200.22 501.107 200.963 501.355 202.165 501.647C203.109 501.88 203.801 502.339 204.241 503.027C205.01 504.241 205.428 505.298 205.498 506.201C205.536 506.709 205.475 507.178 205.316 507.606Z" fill="#3A476C"/>
<path d="M217.96 495.601C217.883 498.144 217.818 500.694 217.763 503.255C217.667 506.292 217.696 508.816 217.85 510.832C217.9 511.491 217.969 512.138 218.057 512.775C218.098 513.076 218.008 513.348 217.786 513.591C217.563 513.835 217.297 513.968 216.991 513.989C216.394 514.034 215.865 513.675 215.401 512.914C213.992 510.651 212.181 507.073 209.972 502.18L209.814 502.022C209.681 502.031 209.603 502.168 209.586 502.436C209.464 505.152 209.519 507.999 209.747 510.972C209.856 512.403 210.006 513.861 210.197 515.342C210.258 515.886 210.123 516.275 209.792 516.507C209.669 516.649 209.528 516.726 209.376 516.736C209.24 516.746 209.063 516.702 208.845 516.605C208.546 516.494 208.357 516.423 208.278 516.392C208.021 516.334 207.85 516.12 207.765 515.747C207.722 515.448 207.68 515.138 207.635 514.82C207.496 513.769 207.384 512.671 207.297 511.523C207.143 509.527 207.068 507.023 207.069 504.013C207.085 499.43 207.094 496.891 207.095 496.399C207.082 495.984 207.422 495.749 208.114 495.7C208.438 495.637 208.935 495.837 209.609 496.299C210.311 497.404 211.212 499.211 212.314 501.723C213.366 504.128 214.297 505.943 215.107 507.171C215.203 504.644 215.365 500.829 215.592 495.718C215.621 495.337 215.885 495.127 216.385 495.091C216.558 495.079 216.762 495.093 216.995 495.132C217.31 495.184 217.496 495.218 217.555 495.233C217.752 495.295 217.888 495.417 217.96 495.601Z" fill="#3A476C"/>
<path d="M226.418 505.402C226.307 504.71 226.121 503.939 225.863 503.086C225.613 502.346 225.373 501.606 225.143 500.866C224.685 502.472 224.305 504.072 224.003 505.665C224.305 505.585 225.111 505.499 226.418 505.402ZM231.037 510.488C231.174 510.779 231.254 511.04 231.27 511.265C231.299 511.642 231.162 511.984 230.856 512.289C230.552 512.597 230.341 512.744 230.224 512.735C229.269 512.633 228.618 511.934 228.267 510.634C227.889 509.224 227.48 508.052 227.04 507.117C226.392 507.222 225.742 507.326 225.095 507.431C224.353 507.58 223.784 507.849 223.388 508.238C223.222 508.838 223.022 509.893 222.791 511.406C222.568 512.804 222.331 513.871 222.08 514.609C221.952 514.961 221.633 515.079 221.122 514.966C220.47 514.804 220.113 514.547 220.048 514.191C219.935 513.481 220.074 512.505 220.461 511.264C220.933 509.848 221.175 508.845 221.187 508.256C221.193 508.087 221.055 507.908 220.769 507.719C220.486 507.532 220.338 507.383 220.33 507.269L220.437 506.963C220.515 506.854 220.711 506.755 221.023 506.665C221.334 506.576 221.505 506.464 221.532 506.329C221.807 505.363 222.22 503.572 222.774 500.956C223.237 498.687 223.674 496.942 224.083 495.719C224.177 495.447 224.407 495.298 224.772 495.271C225.041 495.25 225.288 495.317 225.512 495.473C226.084 495.884 226.482 496.537 226.706 497.428C226.88 498.193 227.045 498.957 227.199 499.723C228.5 504.094 229.78 507.683 231.037 510.488Z" fill="#3A476C"/>
<path d="M245.328 493.108C245.207 493.798 244.91 494.217 244.438 494.366C243.213 494.758 241.072 495.313 238.016 496.03C237.99 500.745 238.099 504.667 238.338 507.793C238.428 508.978 238.536 510.144 238.663 511.291C238.709 511.646 238.71 511.922 238.669 512.115C238.594 512.423 238.414 512.577 238.124 512.58C237.565 512.602 237.086 512.404 236.687 511.99C236.288 511.573 236.048 511.095 235.969 510.551C235.876 509.859 235.803 509.125 235.743 508.352C235.649 507.109 235.583 505.138 235.551 502.43C235.525 499.839 235.452 497.865 235.33 496.512C234.808 496.512 234.091 496.612 233.179 496.811C232.134 497.041 231.409 497.169 231.007 497.198C230.064 497.267 229.277 497.077 228.644 496.627C228.375 496.151 228.241 495.903 228.24 495.884C228.229 495.751 228.285 495.604 228.407 495.441C229.007 495.187 230.25 494.906 232.14 494.595C233.798 494.302 235.023 493.906 235.816 493.408C236.506 493.585 237.282 493.641 238.147 493.577C239.012 493.514 239.83 493.35 240.602 493.085C240.831 493.051 241.407 492.874 242.33 492.559C243.009 492.339 243.581 492.242 244.046 492.263C244.391 492.239 244.547 492.369 244.511 492.656C245.029 492.619 245.302 492.767 245.328 493.108Z" fill="#3A476C"/>
<path d="M251.644 496.135C250.956 496.471 249.934 496.877 248.58 497.356C247.225 497.835 246.203 498.24 245.513 498.575C245.379 499.077 245.336 500.177 245.39 501.879C245.706 501.968 246.066 502 246.468 501.968C246.758 501.949 247.205 501.868 247.814 501.728C248.421 501.59 248.869 501.509 249.156 501.487C249.695 501.448 250.164 501.529 250.566 501.725C250.863 502.082 251.017 502.317 251.025 502.429L250.846 502.755C250.81 502.776 250.686 502.918 250.474 503.181C250.332 503.36 250.146 503.451 249.916 503.448C249.519 503.572 248.784 503.683 247.708 503.78C246.807 503.866 246.096 504.031 245.573 504.278C245.315 505.7 245.217 506.814 245.278 507.624C245.321 508.17 245.431 508.597 245.609 508.905C246.558 509.46 248.145 509.609 250.366 509.35C250.52 509.34 250.678 509.256 250.84 509.104C251.002 508.948 251.141 508.869 251.255 508.86C251.786 508.706 252.172 509.077 252.414 509.968C252.494 510.264 252.462 510.546 252.318 510.811C252.175 511.078 251.951 511.233 251.644 511.273C249.325 511.52 247.294 511.49 245.551 511.183C245.002 511.089 244.491 510.834 244.014 510.415C243.538 509.995 243.25 509.505 243.149 508.944C242.85 507.32 242.737 505.849 242.812 504.538C242.246 504.22 241.979 503.889 242.011 503.547C242.017 503.377 242.154 503.211 242.421 503.048C242.69 502.886 242.836 502.728 242.864 502.575C242.891 502.421 242.899 501.521 242.89 499.875C241.797 499.747 241.239 499.391 241.213 498.805C241.19 498.258 241.494 497.8 242.124 497.433C242.719 497.143 243.314 496.853 243.912 496.561C244.593 496.153 245.463 495.766 246.517 495.406C247.44 495.092 248.363 494.787 249.287 494.491L249.632 494.438C250.149 494.399 250.77 494.553 251.492 494.897C251.516 494.972 251.575 495.11 251.669 495.31C251.762 495.512 251.812 495.661 251.82 495.754C251.83 495.905 251.771 496.032 251.644 496.135Z" fill="#3A476C"/>
<path d="M555.921 113.455C527.035 112.667 523.209 164.569 537.96 238.882C543.885 240.062 548.699 238.882 548.699 238.882C548.419 246.369 550.031 255.43 551.63 262.362L566.84 262.349C566.84 262.349 562.608 247.139 562.608 230.626C554.717 233.378 545.891 233.771 545.891 233.771C539.472 176.365 527.837 128.789 555.921 113.455Z" fill="#F89C46"/>
<path d="M657.621 137.266C681.892 136.605 685.108 180.216 672.714 242.657C667.735 243.648 663.689 242.657 663.689 242.657C663.924 248.948 662.569 256.562 661.226 262.386L648.445 262.376C648.445 262.376 652.001 249.594 652.001 235.719C658.632 238.032 666.047 238.362 666.047 238.362C671.443 190.127 681.22 150.151 657.621 137.266Z" fill="#8BC34A"/>
<path d="M322.273 592.557H711.653V262.51H322.273V592.557Z" fill="#F57A5D"/>
<path d="M711.653 592.557H322.273V560.514H531.531C531.684 566.371 531.848 569.599 531.848 569.599H586.412C586.412 564.008 586.488 558.43 586.633 552.862C603.48 544.676 616.765 530.498 623.581 513.176C624.4 546.328 625.732 569.599 625.732 569.599H681.098C673.303 399.233 714.774 324.814 706.088 271.58L711.653 262.51V592.557ZM625.389 382.706C623.16 377.046 619.848 371.914 615.704 367.552C619.622 354.806 623.56 344.038 627.259 335.736H630.635C628.269 349.592 626.574 365.64 625.389 382.706ZM550.874 352.514H322.273V335.736H555.185C553.653 341.292 552.219 346.883 550.874 352.514Z" fill="#C45F5A"/>
<path d="M666.727 335.736H277.347L322.274 262.51H711.653L666.727 335.736Z" fill="#F68777"/>
<path d="M404.39 249.809C391.794 249.809 380.201 257.043 375.368 268.441C370.066 280.944 367.679 294.81 367.024 308.419C366.019 329.299 368.687 350.179 368.85 371.085C369.013 391.987 366.448 413.58 355.905 431.754C367.631 442.802 386.167 444.136 402.434 444.222C418.702 444.311 435.653 443.112 450.552 449.516C456.518 417.962 443.762 385.538 442.342 353.477C440.848 319.761 454.289 286.26 478.754 262.51H492.797C486.56 254.506 476.872 249.809 466.595 249.809H404.39Z" fill="white"/>
<path d="M392.983 402.917C386.886 402.917 378.905 401.719 372.929 396.53C372.597 396.243 372.566 395.745 372.859 395.421C373.157 395.093 373.662 395.063 373.993 395.353C380.046 400.608 388.407 401.517 394.336 401.323C399.194 401.179 404.1 400.344 408.843 399.536C411.31 399.118 413.86 398.683 416.388 398.348C425.783 397.098 432.908 397.692 438.815 400.223C439.221 400.396 439.407 400.861 439.228 401.257C439.051 401.655 438.58 401.839 438.173 401.664C432.548 399.254 425.695 398.696 416.603 399.904C414.106 400.238 411.57 400.668 409.117 401.085C404.32 401.903 399.358 402.749 394.385 402.897C393.93 402.911 393.462 402.917 392.983 402.917Z" fill="#FCD7BF"/>
<path d="M391.6 388.56C395.421 380.874 397.586 370.906 397.864 360.288C398.204 349.658 396.718 338.402 395.046 327.429C393.419 316.47 392.119 305.495 393.657 295.365C395.148 285.27 399.386 276.121 405.705 270.183C403.949 271.44 402.23 272.914 400.623 274.617C399.046 276.339 397.586 278.278 396.283 280.392C393.679 284.627 391.805 289.574 390.639 294.83C388.321 305.437 389.362 316.975 390.998 327.996C392.682 339.048 394.453 349.928 394.798 360.297C395.188 370.635 394.139 380.385 391.6 388.56Z" fill="#FCD7BF"/>
<path d="M418.616 376.609C419.58 370.175 420.15 362.645 420.021 354.596C419.902 346.55 419.081 337.993 417.525 329.561C415.974 321.118 413.652 312.972 413.234 305.141C412.747 297.357 414.285 289.872 417.925 284.385C415.721 286.816 413.895 289.972 412.709 293.552C411.515 297.131 410.926 301.103 410.894 305.194C410.81 313.416 412.947 321.845 414.456 330.104C417.58 346.698 418.535 363.606 418.616 376.609Z" fill="#FCD7BF"/>
<path d="M552.32 553.618L383.218 540.934L389.396 461.845L558.496 474.527L552.32 553.618Z" fill="#FEEFCC"/>
<path d="M423.134 501.254C422.992 499.131 421.317 497.146 418.109 495.297C417.436 500.844 416.908 506.739 416.524 512.978C420.659 509.5 422.861 506.06 423.126 502.661C423.163 502.196 423.164 501.726 423.134 501.254ZM426.389 506.878C425.988 507.621 425.605 508.363 425.24 509.107C424.761 509.974 424.264 510.659 423.745 511.155C422.589 512.375 421.434 513.581 420.283 514.767C418.904 516.206 417.682 517.187 416.615 517.711C416.243 518.086 415.837 518.473 415.397 518.876C414.953 519.279 414.529 519.466 414.12 519.434C413.915 519.419 413.682 519.351 413.418 519.231C413.153 519.11 412.866 518.971 412.553 518.814C412.239 518.657 412.027 518.422 411.914 518.111C411.922 516.706 411.987 515.2 412.112 513.603C412.24 511.969 412.498 509.54 412.887 506.319C413.275 503.096 413.534 500.668 413.661 499.037C413.832 496.869 413.9 494.879 413.871 493.068C413.839 493.032 413.496 492.622 412.838 491.833C412.43 491.369 412.24 490.951 412.269 490.583C412.282 490.419 412.327 490.256 412.41 490.093C412.611 489.704 413.003 489.501 413.586 489.477C414.034 489.444 414.48 489.426 414.924 489.426C417.735 490.241 420.605 492.032 423.535 494.799C424.299 495.527 424.908 496.277 425.359 497.047C426.808 499.536 427.452 501.813 427.291 503.879C427.207 504.947 426.905 505.945 426.389 506.878Z" fill="#3A476C"/>
<path d="M442.934 505.253C442.887 502.803 442.336 501.303 441.285 500.756C441.119 500.677 440.968 500.632 440.834 500.621C440.426 500.592 439.889 500.886 439.226 501.506C438.485 502.221 437.923 502.632 437.539 502.737C437.293 502.819 436.959 502.693 436.541 502.36C436.122 502.028 435.846 501.855 435.708 501.844L435.447 501.925C434.178 502.837 433.463 504.341 433.298 506.441C433.187 507.875 433.431 509.117 434.033 510.168C434.88 511.606 435.624 512.348 436.271 512.396C437.768 512.508 439.284 511.7 440.822 509.972C442.283 508.338 442.986 506.766 442.934 505.253ZM446.774 508.658C444.42 512.94 441.375 515.36 437.638 515.918C437.188 515.984 436.741 516.002 436.299 515.969C434.361 515.824 432.486 514.644 430.676 512.43C429.46 510.931 428.937 509.065 429.111 506.832C429.304 504.365 430.259 501.773 431.977 499.05C432.717 497.901 433.58 496.926 434.566 496.128C435.701 495.175 436.744 494.733 437.696 494.803C438.239 494.845 438.735 495.083 439.179 495.519C439.624 495.954 440.857 496.584 442.881 497.406C444.472 498.062 445.556 499.047 446.138 500.364C447.154 502.687 447.599 504.647 447.474 506.247C447.404 507.147 447.169 507.951 446.774 508.658Z" fill="#3A476C"/>
<path d="M472.168 490.952C471.342 495.383 470.535 499.832 469.74 504.298C468.745 509.587 468.111 514.014 467.832 517.58C467.74 518.747 467.682 519.899 467.664 521.035C467.656 521.572 467.423 522.023 466.968 522.393C466.51 522.76 466.012 522.923 465.467 522.883C464.413 522.804 463.583 522.038 462.978 520.586C461.129 516.256 458.934 509.521 456.398 500.379C456.346 500.175 456.269 500.068 456.166 500.061C455.928 500.043 455.756 500.266 455.654 500.726C454.702 505.45 454.022 510.442 453.611 515.709C453.413 518.241 453.279 520.829 453.209 523.472C453.167 524.442 452.826 525.085 452.187 525.406C451.93 525.622 451.665 525.719 451.395 525.698C451.154 525.682 450.856 525.559 450.499 525.33C450.007 525.06 449.695 524.885 449.564 524.808C449.133 524.639 448.893 524.221 448.843 523.547C448.85 523.011 448.86 522.458 448.87 521.89C448.913 520.015 449.015 518.062 449.174 516.03C449.448 512.497 449.998 508.096 450.82 502.83C452.095 494.811 452.801 490.374 452.937 489.509C453.027 488.78 453.686 488.46 454.909 488.553C455.494 488.529 456.31 489.009 457.362 489.994C458.291 492.109 459.378 495.509 460.621 500.194C461.809 504.676 462.944 508.095 464.026 510.455C464.881 506.062 466.204 499.423 467.993 490.54C468.147 489.882 468.666 489.584 469.551 489.65C469.856 489.674 470.21 489.752 470.609 489.882C471.143 490.057 471.459 490.163 471.56 490.203C471.888 490.363 472.092 490.614 472.168 490.952Z" fill="#3A476C"/>
<path d="M484.3 510.317C484.295 509.077 484.181 507.677 483.961 506.118C483.725 504.761 483.505 503.402 483.304 502.046C482.067 504.737 480.967 507.437 480.004 510.145C480.555 510.086 481.987 510.144 484.3 510.317ZM491.001 520.423C491.163 520.972 491.23 521.447 491.198 521.845C491.146 522.513 490.811 523.075 490.194 523.53C489.577 523.987 489.168 524.19 488.968 524.143C487.322 523.718 486.372 522.323 486.112 519.957C485.835 517.388 485.438 515.23 484.925 513.48C483.76 513.494 482.598 513.507 481.434 513.521C480.094 513.59 479.025 513.911 478.227 514.487C477.773 515.493 477.137 517.288 476.319 519.876C475.55 522.263 474.845 524.071 474.203 525.297C473.884 525.878 473.292 526.001 472.429 525.668C471.335 525.216 470.78 524.672 470.762 524.033C470.759 522.76 471.264 521.088 472.281 519.019C473.492 516.664 474.188 514.972 474.371 513.946C474.427 513.65 474.232 513.3 473.785 512.896C473.337 512.494 473.122 512.193 473.138 511.993C473.151 511.827 473.242 511.658 473.408 511.486C473.576 511.314 473.945 511.19 474.516 511.117C475.085 511.042 475.413 510.891 475.498 510.661C476.243 509.042 477.454 506.015 479.132 501.582C480.563 497.734 481.8 494.794 482.851 492.759C483.09 492.311 483.533 492.109 484.18 492.157C484.654 492.191 485.069 492.372 485.418 492.702C486.308 493.572 486.828 494.818 486.976 496.438C487.072 497.821 487.153 499.201 487.215 500.581C488.301 508.571 489.564 515.186 491.001 520.423Z" fill="#3A476C"/>
<path d="M520.741 493.743C520.341 494.92 519.708 495.576 518.843 495.712C516.59 496.078 512.693 496.49 507.149 496.947C505.822 505.193 504.944 512.084 504.512 517.615C504.349 519.715 504.22 521.784 504.129 523.822C504.112 524.457 504.042 524.939 503.914 525.263C503.702 525.785 503.342 526.009 502.835 525.937C501.851 525.83 501.066 525.36 500.482 524.529C499.897 523.698 499.608 522.797 499.615 521.825C499.644 520.588 499.711 519.283 499.818 517.917C499.99 515.718 500.413 512.246 501.093 507.504C501.755 502.963 502.163 499.488 502.317 497.086C501.404 496.952 500.123 496.94 498.471 497.049C496.581 497.176 495.277 497.212 494.564 497.159C492.899 497.034 491.573 496.496 490.586 495.542C490.246 494.637 490.078 494.169 490.081 494.135C490.099 493.9 490.238 493.657 490.494 493.407C491.614 493.12 493.866 492.95 497.257 492.899C500.238 492.818 502.492 492.447 504.014 491.783C505.174 492.272 506.516 492.574 508.046 492.689C509.578 492.804 511.054 492.731 512.478 492.468C512.888 492.467 513.944 492.311 515.645 492.002C516.892 491.794 517.92 491.77 518.727 491.933C519.341 491.978 519.576 492.248 519.435 492.739C520.352 492.809 520.788 493.141 520.741 493.743Z" fill="#3A476C"/>
<path d="M530.973 500.694C529.675 501.1 527.777 501.544 525.276 502.026C522.775 502.511 520.876 502.955 519.579 503.358C519.206 504.203 518.834 506.12 518.463 509.108C518.992 509.349 519.611 509.497 520.327 509.55C520.838 509.588 521.642 509.564 522.745 509.479C523.846 509.395 524.652 509.371 525.161 509.409C526.113 509.48 526.914 509.743 527.562 510.192C527.986 510.895 528.191 511.346 528.175 511.546C528.157 511.779 528.023 511.955 527.774 512.068C527.704 512.098 527.448 512.313 527.007 512.716C526.711 512.995 526.36 513.104 525.956 513.04C525.228 513.152 523.912 513.155 522.005 513.044C520.403 512.957 519.111 513.062 518.132 513.358C517.293 515.776 516.817 517.701 516.706 519.133C516.631 520.1 516.706 520.877 516.934 521.462C518.446 522.684 521.181 523.358 525.138 523.486C525.41 523.507 525.71 523.403 526.035 523.177C526.36 522.95 526.626 522.844 526.83 522.859C527.797 522.73 528.372 523.477 528.555 525.101C528.615 525.641 528.482 526.126 528.157 526.556C527.832 526.983 527.397 527.193 526.85 527.185C522.726 527.009 519.18 526.424 516.214 525.433C515.281 525.128 514.454 524.545 513.734 523.688C513.012 522.829 512.642 521.896 512.617 520.888C512.538 517.967 512.739 515.366 513.228 513.09C512.324 512.385 511.948 511.736 512.097 511.144C512.154 510.848 512.437 510.592 512.951 510.377C513.462 510.166 513.764 509.929 513.853 509.667C513.943 509.406 514.202 507.833 514.632 504.951C512.755 504.439 511.876 503.671 511.99 502.639C512.1 501.675 512.755 500.955 513.955 500.473C515.078 500.122 516.199 499.771 517.322 499.418C518.629 498.881 520.254 498.431 522.199 498.075C523.898 497.767 525.597 497.476 527.295 497.199C527.468 497.18 527.672 497.178 527.911 497.196C528.828 497.265 529.873 497.696 531.043 498.486C531.065 498.622 531.132 498.88 531.238 499.255C531.347 499.633 531.394 499.905 531.38 500.071C531.361 500.339 531.223 500.545 530.973 500.694Z" fill="#3A476C"/>
<path d="M581.432 266.95C522.219 380.081 531.849 569.599 531.849 569.599H586.412C586.412 461.078 614.787 354.916 632.696 325.034C616.102 401.313 625.732 569.599 625.732 569.599H681.098C673.074 394.235 717.25 320.532 705.193 266.95H581.432Z" fill="#5D6456"/>
<path d="M673.889 563.831C673.475 563.831 673.123 563.519 673.091 563.109C665.851 475.225 679.078 400.244 688.739 345.494C694.194 314.572 698.503 290.146 697.774 272.347C697.757 271.913 698.102 271.549 698.543 271.529C699.008 271.535 699.362 271.85 699.379 272.284C700.114 290.249 695.793 314.747 690.319 345.763C680.674 400.429 667.465 475.295 674.69 562.982C674.725 563.416 674.397 563.795 673.954 563.828L673.889 563.831Z" fill="#CF3D75"/>
<path d="M692.437 312.277C692.234 312.277 692.03 312.201 691.874 312.05C687.113 307.455 683.724 300.83 682.075 292.892C680.607 285.842 680.58 278.575 680.551 271.544C680.549 271.111 680.908 270.756 681.352 270.755H681.355C681.796 270.755 682.154 271.106 682.156 271.538C682.185 278.491 682.212 285.682 683.649 292.578C685.234 300.209 688.468 306.555 692.998 310.929C693.316 311.235 693.319 311.733 693.009 312.043C692.852 312.198 692.645 312.277 692.437 312.277Z" fill="#CF3D75"/>
<path d="M704.667 221.918L695.542 117.822L683.691 107.206H643.45C643.45 107.206 627.338 126.603 612.44 107.206H570.976L578.765 224.979C579.045 229.238 578.318 233.503 576.638 237.441C573.09 245.765 573.901 255.263 578.816 262.891L581.433 266.95H705.194L708.827 259.389C712.836 251.047 712.569 241.336 708.107 233.216C706.185 229.72 705.013 225.875 704.667 221.918Z" fill="#8BC34A"/>
<path d="M656.79 262.307C670.29 256.267 680.001 244.233 682.887 229.966L698.578 152.436L657.844 137.487L627.945 207.077L578.568 222.01L578.765 224.979C579.046 229.238 578.318 233.503 576.638 237.441C573.09 245.765 573.902 255.263 578.817 262.891L581.433 266.95H646.412L656.79 262.307Z" fill="#45A9D3"/>
<path d="M581.432 266.95C575.932 277.457 571.029 288.625 566.655 300.235L614.498 290.826L622.522 277.639L646.412 266.95H581.432Z" fill="#3F244A"/>
<path d="M664.448 569.599H635.159L624.913 583.374C622.442 586.692 618.991 589.189 615.026 590.524L607.488 593.063C602.348 594.795 598.225 598.418 595.862 603.02H673.727C672.568 581.847 664.448 569.599 664.448 569.599Z" fill="#3A476C"/>
<path d="M673.727 603.02H653.414V609.508H673.875C673.913 607.249 673.841 605.107 673.727 603.02Z" fill="#3F244A"/>
<path d="M595.862 603.02C594.833 605.023 594.132 607.209 593.835 609.508H634.795L653.414 603.02H595.862Z" fill="#3F244A"/>
<path d="M567.308 569.599H538.021L527.773 583.374C525.304 586.692 521.851 589.189 517.888 590.524L510.348 593.063C505.209 594.795 501.087 598.418 498.723 603.02H576.589C575.43 581.847 567.308 569.599 567.308 569.599Z" fill="#3A476C"/>
<path d="M576.588 603.02H556.275V609.508H576.736C576.773 607.249 576.701 605.107 576.588 603.02Z" fill="#3F244A"/>
<path d="M498.723 603.02C497.693 605.023 496.993 607.209 496.695 609.508H537.657L556.276 603.02H498.723Z" fill="#3F244A"/>
<path d="M570.975 107.206C563.198 107.206 556.225 111.909 553.45 119.03L542.013 148.359H573.696L570.975 107.206Z" fill="#66CDE0"/>
<path d="M573.697 148.359L571.914 121.365L562.608 148.359H573.697Z" fill="#45A9D3"/>
<path d="M643.449 107.206L636.966 74.5279L612.439 94.0999V107.206C627.337 126.603 643.449 107.206 643.449 107.206Z" fill="#FAB590"/>
<path d="M636.966 74.5275C635.762 89.643 624.661 103.667 612.439 101.57V94.0995L636.966 74.5275Z" fill="#F46F7C"/>
<path d="M581.646 50.1073L583.635 66.7268C584.659 75.278 588.396 83.2999 594.321 89.658C599.205 94.9023 606.282 97.65 613.506 97.1104C619.669 96.6514 625.402 93.8349 629.465 89.2708L631.95 86.4797C637.816 79.8914 641.385 71.6437 642.14 62.9311L643.336 49.1415C644.874 31.4083 630.6 16.1822 612.441 16.1822C593.886 16.1822 579.484 32.0467 581.646 50.1073Z" fill="#FAB590"/>
<path d="M639.064 71.4209C637.499 67.1752 636.698 62.6948 636.698 58.1785V53.4694C629.946 48.6721 625.821 41.0942 625.519 32.9257L625.465 31.4502C615.121 41.8506 598.961 48.0756 584.174 47.1323C576.749 46.6599 568.471 43.9405 567.025 35.6121C566.63 33.3278 566.892 30.9673 567.612 28.7607C569.545 22.8541 574.158 18.5845 578.842 14.6797C586.085 8.64153 594.059 2.99358 603.307 0.82589C612.553 -1.3418 623.352 0.673424 629.388 7.87315C634.829 3.71119 643.733 4.67242 649.333 8.62808C654.933 12.5823 658.072 19.2393 659.012 25.9412C659.95 32.6416 658.924 39.4542 657.578 46.0888C656.474 51.5334 655.128 57.0095 652.433 61.892C649.736 66.7746 644.729 71.4209 639.064 71.4209Z" fill="#9F2E46"/>
<path d="M644.734 58.1458C646.826 56.159 650.212 55.1753 652.709 56.6418C654.784 57.8602 655.687 60.3808 655.832 62.7458C656.158 68.0155 653.274 73.357 648.644 76.0554C646.397 77.365 643.383 78.0153 641.25 76.5323C639.645 75.4171 638.971 73.3465 639.064 71.421C639.177 69.1068 640.143 66.5759 640.959 64.4067C641.808 62.1508 642.952 59.8381 644.734 58.1458Z" fill="#FAB590"/>
<path d="M652.304 64.6383C651.983 63.8445 651.652 63.0386 651.113 62.3659C650.578 61.6932 649.793 61.158 648.922 61.1117C648.094 61.0683 647.29 61.4749 646.705 62.0535C646.12 62.632 645.73 63.3691 645.396 64.1136C644.522 66.0645 643.986 68.1619 643.817 70.2877C643.737 71.3073 643.863 72.5451 644.79 73.0145C645.766 73.5093 646.92 72.7963 647.684 72.0234C648.752 70.9455 649.649 69.5687 649.621 68.0662C649.592 66.5638 648.315 65.0344 646.788 65.1615C646.785 64.0493 648.03 62.7188 649.157 62.5797C650.285 62.4407 652.027 63.5604 652.304 64.6383Z" fill="#F46F7C"/>
<path d="M624.786 54.4858H607.392C607.828 52.508 609.794 50.8979 611.75 50.2581C613.707 49.6168 615.864 49.7917 617.844 50.3613C620.288 51.0654 622.96 52.7412 624.786 54.4858Z" fill="#9F2E46"/>
<path d="M613.702 65.7598C612.593 65.7598 611.696 64.8792 611.696 63.7939V61.6367C611.696 60.5513 612.593 59.6708 613.702 59.6708C614.81 59.6708 615.707 60.5513 615.707 61.6367V63.7939C615.707 64.8792 614.81 65.7598 613.702 65.7598Z" fill="#3F244A"/>
<path d="M583.795 54.4858H594.545C594.276 52.508 593.062 50.8979 591.852 50.2566C590.643 49.6167 589.309 49.7917 588.084 50.3613C586.574 51.0654 584.922 52.7412 583.795 54.4858Z" fill="#9F2E46"/>
<path d="M590.184 65.7598C590.95 65.7598 591.571 65.1513 591.571 64.4008V61.0297C591.571 60.2792 590.95 59.6708 590.184 59.6708C589.419 59.6708 588.798 60.2792 588.798 61.0297V64.4008C588.798 65.1513 589.419 65.7598 590.184 65.7598Z" fill="#3F244A"/>
<path d="M604.581 73.2454H591.88C592.716 74.5699 594.388 75.6762 596.359 75.7973C597.753 75.8825 599.152 75.5775 600.395 75.1021C601.641 74.6282 603.476 73.8822 604.581 73.2454Z" fill="#F46F7C"/>
<path d="M595.167 83.0159C602.639 82.8918 610.113 82.7662 617.586 82.6421C615.019 86.0745 610.749 88.5487 606.408 88.6279C602.067 88.7072 597.859 86.3526 595.167 83.0159Z" fill="white"/>
<path d="M395.705 285.191H497.346V148.359H395.705V285.191Z" fill="#F57A5D"/>
<path d="M497.346 285.191H611.698V148.359H497.346V285.191Z" fill="#F7F7F7"/>
<path d="M485.721 215.112L407.419 225.949L402.141 189.326L480.445 178.489L485.721 215.112Z" fill="#FEEFCC"/>
<path d="M421.534 203.957C421.254 203.005 420.288 202.265 418.638 201.737C418.898 204.331 419.261 207.066 419.724 209.946C421.252 207.956 421.902 206.172 421.676 204.598C421.644 204.383 421.597 204.169 421.534 203.957ZM423.594 206.198C423.487 206.576 423.388 206.951 423.298 207.327C423.168 207.769 423.013 208.129 422.826 208.406C422.425 209.076 422.022 209.738 421.62 210.391C421.139 211.182 420.682 211.749 420.25 212.093C420.119 212.299 419.974 212.516 419.815 212.743C419.653 212.969 419.48 213.096 419.29 213.123L418.95 213.097C418.818 213.069 418.671 213.034 418.512 212.992C418.354 212.952 418.233 212.867 418.151 212.737C418.011 212.096 417.885 211.403 417.78 210.663C417.67 209.907 417.539 208.775 417.387 207.27C417.234 205.764 417.104 204.634 416.995 203.878C416.85 202.875 416.677 201.961 416.479 201.139C416.461 201.125 416.262 200.973 415.883 200.679C415.651 200.507 415.521 200.335 415.495 200.166L415.51 199.928C415.561 199.732 415.719 199.601 415.983 199.532C416.183 199.472 416.384 199.421 416.587 199.376C417.95 199.472 419.44 200.006 421.057 200.979C421.479 201.235 421.833 201.516 422.119 201.822C423.032 202.813 423.559 203.787 423.696 204.745C423.768 205.238 423.733 205.722 423.594 206.198Z" fill="#3A476C"/>
<path d="M430.962 203.833C430.689 202.722 430.285 202.094 429.751 201.946L429.531 201.929C429.342 201.956 429.127 202.143 428.889 202.492C428.625 202.889 428.412 203.131 428.247 203.217C428.143 203.278 427.979 203.254 427.754 203.143C427.53 203.033 427.385 202.982 427.323 202.991L427.211 203.054C426.728 203.593 426.555 204.348 426.696 205.32C426.792 205.984 427.03 206.525 427.411 206.945C427.943 207.518 428.358 207.782 428.657 207.74C429.35 207.645 429.959 207.127 430.483 206.189C430.981 205.302 431.141 204.517 430.962 203.833ZM433.058 205.006C432.425 207.187 431.286 208.588 429.641 209.21C429.443 209.285 429.242 209.336 429.036 209.364C428.139 209.488 427.164 209.137 426.113 208.305C425.407 207.742 424.978 206.944 424.828 205.909C424.664 204.767 424.833 203.493 425.338 202.085C425.556 201.488 425.851 200.959 426.218 200.499C426.636 199.953 427.066 199.65 427.507 199.588C427.759 199.554 428.009 199.614 428.256 199.769C428.503 199.923 429.129 200.089 430.134 200.264C430.926 200.408 431.521 200.75 431.92 201.293C432.62 202.251 433.025 203.099 433.131 203.84C433.191 204.256 433.167 204.646 433.058 205.006Z" fill="#3A476C"/>
<path d="M442.812 194.449C442.888 196.548 442.975 198.652 443.071 200.763C443.158 203.27 443.323 205.348 443.559 207C443.638 207.541 443.73 208.071 443.837 208.591C443.889 208.835 443.829 209.063 443.658 209.277C443.489 209.489 443.277 209.612 443.025 209.648C442.537 209.715 442.081 209.448 441.657 208.845C440.373 207.056 438.684 204.205 436.594 200.291L436.457 200.168C436.345 200.183 436.29 200.301 436.29 200.523C436.341 202.767 436.541 205.106 436.893 207.546C437.062 208.718 437.265 209.909 437.505 211.12C437.584 211.566 437.494 211.892 437.236 212.101L436.905 212.313C436.794 212.328 436.646 212.301 436.46 212.233C436.208 212.158 436.048 212.109 435.981 212.086C435.767 212.053 435.615 211.884 435.523 211.582C435.471 211.339 435.419 211.086 435.366 210.826C435.194 209.968 435.04 209.069 434.905 208.127C434.669 206.492 434.469 204.433 434.304 201.953C434.065 198.177 433.932 196.087 433.906 195.682C433.873 195.34 434.14 195.129 434.707 195.051C434.971 194.984 435.39 195.121 435.97 195.467C436.611 196.338 437.453 197.779 438.498 199.792C439.497 201.716 440.365 203.161 441.099 204.13C441.039 202.044 440.961 198.892 440.867 194.67C440.87 194.356 441.076 194.169 441.486 194.112C441.628 194.093 441.796 194.094 441.993 194.114C442.252 194.141 442.407 194.159 442.458 194.168C442.624 194.208 442.741 194.302 442.812 194.449Z" fill="#3A476C"/>
<path d="M450.318 202.075C450.188 201.511 449.993 200.885 449.734 200.197C449.486 199.602 449.247 199.004 449.018 198.406C448.73 199.753 448.504 201.091 448.342 202.419C448.588 202.338 449.245 202.224 450.318 202.075ZM454.401 206.02C454.533 206.253 454.61 206.462 454.638 206.648C454.682 206.957 454.586 207.244 454.353 207.513C454.119 207.783 453.953 207.916 453.857 207.913C453.064 207.881 452.488 207.339 452.128 206.286C451.738 205.145 451.338 204.201 450.925 203.455C450.396 203.576 449.868 203.695 449.338 203.816C448.736 203.978 448.283 204.23 447.978 204.571C447.874 205.074 447.767 205.954 447.66 207.211C447.555 208.375 447.418 209.267 447.252 209.889C447.165 210.185 446.908 210.299 446.481 210.231C445.937 210.134 445.627 209.941 445.555 209.651C445.423 209.073 445.482 208.262 445.734 207.219C446.043 206.027 446.188 205.189 446.166 204.704C446.161 204.562 446.037 204.423 445.793 204.283C445.548 204.144 445.418 204.029 445.404 203.936L445.476 203.677C445.536 203.583 445.691 203.49 445.943 203.401C446.194 203.311 446.327 203.209 446.344 203.097C446.516 202.287 446.759 200.789 447.07 198.605C447.328 196.712 447.59 195.252 447.86 194.222C447.924 193.994 448.104 193.858 448.403 193.817C448.625 193.787 448.83 193.829 449.024 193.944C449.518 194.253 449.882 194.769 450.116 195.492C450.301 196.113 450.478 196.733 450.649 197.355C451.961 200.888 453.212 203.776 454.401 206.02Z" fill="#3A476C"/>
<path d="M465.216 190.947C465.155 191.522 464.934 191.883 464.554 192.03C463.566 192.419 461.831 192.99 459.354 193.742C459.595 197.627 459.898 200.852 460.268 203.412C460.408 204.384 460.56 205.339 460.728 206.277C460.786 206.568 460.803 206.794 460.779 206.956C460.734 207.213 460.594 207.35 460.356 207.367C459.897 207.414 459.491 207.278 459.14 206.957C458.788 206.636 458.565 206.254 458.467 205.81C458.355 205.245 458.252 204.644 458.161 204.01C458.014 202.992 457.853 201.37 457.677 199.143C457.513 197.011 457.343 195.389 457.169 194.28C456.739 194.308 456.155 194.429 455.414 194.642C454.565 194.884 453.975 195.029 453.646 195.074C452.874 195.181 452.215 195.066 451.667 194.728C451.42 194.35 451.296 194.154 451.293 194.138C451.278 194.03 451.316 193.905 451.408 193.765C451.888 193.525 452.897 193.226 454.436 192.87C455.786 192.54 456.773 192.149 457.398 191.698C457.976 191.807 458.62 191.813 459.328 191.714C460.037 191.616 460.701 191.438 461.322 191.179C461.511 191.137 461.974 190.962 462.717 190.654C463.265 190.438 463.73 190.327 464.115 190.321C464.398 190.281 464.533 190.381 464.519 190.619C464.943 190.559 465.176 190.669 465.216 190.947Z" fill="#3A476C"/>
<path d="M470.587 193.108C470.037 193.42 469.219 193.809 468.128 194.274C467.041 194.74 466.22 195.129 465.671 195.44C465.587 195.862 465.615 196.77 465.752 198.168C466.017 198.227 466.315 198.233 466.646 198.186C466.882 198.153 467.245 198.064 467.739 197.917C468.232 197.771 468.597 197.679 468.832 197.647C469.273 197.585 469.665 197.627 470.006 197.769C470.272 198.047 470.409 198.233 470.423 198.325L470.295 198.602C470.266 198.621 470.171 198.745 470.011 198.973C469.904 199.128 469.756 199.212 469.565 199.222C469.247 199.345 468.646 199.476 467.767 199.612C467.029 199.73 466.452 199.905 466.034 200.136C465.9 201.32 465.881 202.244 465.976 202.907C466.042 203.354 466.155 203.7 466.319 203.945C467.132 204.351 468.446 204.39 470.263 204.06C470.388 204.042 470.514 203.967 470.639 203.831C470.764 203.695 470.873 203.622 470.969 203.608C471.396 203.454 471.735 203.738 471.983 204.461C472.064 204.7 472.055 204.934 471.95 205.16C471.847 205.387 471.671 205.526 471.42 205.576C469.523 205.9 467.849 205.984 466.397 205.822C465.941 205.776 465.505 205.592 465.088 205.272C464.673 204.952 464.409 204.564 464.295 204.106C463.959 202.785 463.786 201.58 463.775 200.496C463.291 200.264 463.053 200.006 463.059 199.721C463.055 199.579 463.16 199.436 463.371 199.288C463.583 199.141 463.696 199.004 463.709 198.875C463.723 198.748 463.68 198.007 463.581 196.651C462.675 196.603 462.196 196.338 462.143 195.859C462.092 195.409 462.318 195.015 462.815 194.679C463.291 194.408 463.766 194.138 464.242 193.867C464.78 193.495 465.474 193.13 466.324 192.777C467.065 192.469 467.81 192.17 468.556 191.877L468.835 191.816C469.26 191.756 469.779 191.851 470.394 192.096C470.417 192.155 470.473 192.266 470.562 192.426C470.649 192.588 470.699 192.707 470.71 192.783L470.587 193.108Z" fill="#3A476C"/>
<path d="M611.698 285.191H497.346V148.359H518.861V230.473C518.861 244.715 530.642 256.262 545.175 256.262H611.698V266.95V285.191Z" fill="#A9465B"/>
<path d="M660.874 135.811L630.499 224.105L611.855 235.837C602.698 241.599 592.54 245.665 581.886 247.834C572.953 249.654 566.032 256.596 564.386 265.393H557.749L570.589 293.964L574.332 289.246L588.095 292.242C593.202 293.354 598.546 292.682 603.201 290.342L649.357 267.131C660.901 261.325 669.567 251.197 673.385 239.042L701.771 148.738C706.027 135.195 695.694 121.48 681.235 121.482C672.013 121.482 663.821 127.248 660.874 135.811Z" fill="#8BC34A"/>
<path d="M562.514 256.262L551.511 259.963L536.865 252.688L523.24 246.538C520.919 245.49 518.172 246.515 517.15 248.812C516.256 250.821 516.981 253.168 518.86 254.355L526.179 258.979C529.056 260.797 530.684 264.012 530.421 267.355C530.185 270.357 528.455 273.052 525.796 274.561L507.077 285.175C504.37 286.71 503.665 290.232 505.581 292.656C507.091 294.565 509.768 295.163 511.973 294.082L516.204 292.008L528.884 297.437C533.715 299.506 539.345 298.521 543.147 294.937L559.333 279.687L570.978 275.096L562.514 256.262Z" fill="#FAB590"/>
<path d="M562.514 256.263L570.979 275.096L564.525 277.641L560.662 256.885L562.514 256.263Z" fill="#F46F7C"/>
<path d="M90.9198 266.799C75.2718 299.04 86.9063 356.053 96.1338 415.818L94.1949 422.677C86.9445 448.331 84.1239 474.993 85.8523 501.559L89.6872 560.514H125.824C125.824 505.86 139.064 421.323 139.064 421.323L151.793 339.54L184.401 416.212C176.981 445.819 175.419 476.548 179.801 506.731L187.61 560.514H224.923L226.414 424.032C226.489 417.125 226.024 410.221 225.022 403.385L205.613 270.955L90.9198 266.799Z" fill="#41444B"/>
<path d="M105.467 396.325C98.8165 354.653 92.5347 315.291 97.3307 286.652C97.4024 286.223 97.1049 285.819 96.6686 285.749C96.2278 285.668 95.8174 285.969 95.7472 286.396C90.9101 315.287 97.2102 354.77 103.881 396.569C104.895 402.92 105.917 409.328 106.912 415.77L105.019 422.468C97.7258 448.266 94.9098 474.891 96.6473 501.609L99.6646 547.986C99.6921 548.401 100.044 548.721 100.465 548.721L100.517 548.72C100.96 548.692 101.295 548.318 101.266 547.885L98.249 501.508C96.5222 474.968 99.3198 448.517 106.566 422.888L108.55 415.866L108.524 415.7C107.521 409.2 106.489 402.733 105.467 396.325Z" fill="#73769E"/>
<path d="M192.194 506.621C187.805 476.397 189.348 446.043 196.776 416.398L196.841 416.149L176.265 367.772C176.094 367.369 175.625 367.187 175.216 367.349C174.807 367.516 174.613 367.976 174.786 368.377L195.156 416.276C187.731 446.034 186.201 476.505 190.605 506.842L196.587 548.046C196.644 548.438 196.987 548.721 197.381 548.721L197.493 548.714C197.933 548.653 198.238 548.254 198.175 547.824L192.194 506.621Z" fill="#73769E"/>
<path d="M118.717 287.803C118.281 287.721 117.858 287.983 117.765 288.407C115.575 298.438 107.275 306.816 97.1076 309.257C96.6774 309.361 96.415 309.787 96.5187 310.208C96.6103 310.567 96.9367 310.806 97.2982 310.806L97.4904 310.784C108.24 308.203 117.018 299.344 119.333 288.736C119.428 288.311 119.15 287.893 118.717 287.803Z" fill="#73769E"/>
<path d="M206.561 277.421L205.613 270.955L90.9196 266.799C89.1654 270.411 87.7726 274.35 86.6621 278.553C125.608 289.582 167.843 289.185 206.561 277.421Z" fill="#3F244A"/>
<path d="M232.618 585.312L218.638 577.419L217.568 560.514H194.231L194.832 577.813L190.695 593.345H226.812C228.102 590.362 230.133 587.569 232.618 585.312Z" fill="#F79484"/>
<path d="M265.177 609.269C262.575 599.108 254.107 591.407 243.574 589.619L243.545 589.614C240.419 589.085 237.413 588.02 234.664 586.468L232.617 585.312C230.132 587.569 228.101 590.362 226.811 593.345H190.694L186.452 609.269H265.177Z" fill="#F14984"/>
<path d="M194.231 560.514H217.568L217.948 566.512H194.439L194.231 560.514Z" fill="#8BC34A"/>
<path d="M135.257 585.312L121.277 577.419L120.207 560.514H96.8709L97.472 577.813L93.335 593.345H129.45C130.742 590.362 132.772 587.569 135.257 585.312Z" fill="#F79484"/>
<path d="M167.819 609.269C165.216 599.108 156.748 591.407 146.217 589.619L146.188 589.614C143.061 589.085 140.055 588.02 137.305 586.468L135.258 585.312C132.773 587.569 130.743 590.362 129.451 593.345H93.3356L89.0918 609.269H167.819Z" fill="#F14984"/>
<path d="M96.8711 560.514H120.207L120.587 566.512H97.0801L96.8711 560.514Z" fill="#8BC34A"/>
<path d="M190.123 74.5788C197.452 69.9967 203.511 63.25 206.411 55.2175C209.311 47.1851 208.831 37.8715 204.387 30.5492C199.942 23.2269 191.215 16.9615 182.534 17.4384C173.355 7.34444 158.726 2.31087 145.124 4.56378C131.52 6.81668 119.392 16.2813 114.107 28.7702C108.821 41.2591 110.552 56.3582 118.535 67.385C113.574 81.0041 103.702 93.9923 96.7852 106.767C89.8688 119.538 85.7044 135.306 92.2317 148.273C96.3077 156.368 104.135 162.248 112.735 165.478C121.336 168.709 130.696 169.51 139.906 169.412C150.493 169.298 161.258 167.981 170.887 163.666C180.517 159.35 188.945 151.726 192.374 141.909C195.658 132.51 194.147 122.231 192.6 112.412C190.779 100.851 191.944 86.1393 190.123 74.5788Z" fill="#6A3256"/>
<path d="M220.848 158.012L235.355 201.726L309.044 183.048C318.941 165.355 338.733 160.301 338.733 160.301C340.224 164.104 338.872 168.414 335.451 170.728C333.202 172.249 330.836 174.074 329.37 175.841C341.665 179.381 354.023 178.405 360.303 177.506C362.546 177.186 364.544 178.897 364.544 181.117C364.544 182.432 363.821 183.646 362.654 184.292L359.929 185.802C359.733 190.943 358.654 195.838 357.614 199.476C356.534 203.254 353.149 205.99 349.149 206.166C330.044 207.011 314.393 200.94 314.393 200.94L239.474 230.794C227.989 235.37 214.892 229.965 210.207 218.713L199.903 193.957L193.027 164.765L212.959 160.301L220.848 158.012Z" fill="#F46F7C"/>
<path d="M196.437 112.365C204.437 115.261 210.692 121.519 213.479 129.417L223.318 157.295L212.959 160.301L203.926 140.716L196.437 112.365Z" fill="#8BC34A"/>
<path d="M120.732 116.779C133.58 111.357 145.217 107.949 145.217 107.949H175.709C186.541 107.949 196.436 112.365 196.436 112.365L203.926 140.715L217.062 169.196C220.746 177.183 217.98 186.611 210.53 191.462C206.317 194.205 203.455 198.537 202.627 203.427C199.631 221.078 200.651 239.161 205.613 256.382L210.881 274.662C134.651 288.03 84.9004 271.91 84.9004 271.91L97.856 244.469C105.791 227.661 109.713 209.3 109.291 190.786C108.885 173.128 108.189 152.173 107.067 143.361C104.962 126.823 120.732 116.779 120.732 116.779Z" fill="#8BC34A"/>
<path d="M119.405 183.048L164.009 165.749L148.416 128.84C143.937 118.236 131.764 112.933 120.732 116.78C109.662 120.64 103.644 132.345 107.067 143.362L119.405 183.048Z" fill="#8BC34A"/>
<path d="M160.463 167.124L184.57 227.087L261.434 210.732C269.057 195.238 284.169 190.519 284.169 190.519C286.519 193.546 286.377 197.795 283.79 200.628C280.476 204.251 278.82 208.213 278.82 208.213C290.256 211.133 303.35 211.074 309.814 210.811C312.073 210.718 313.993 212.393 314.158 214.601C314.303 216.552 313.029 218.374 311.092 218.847C302.746 220.881 290.855 219.878 290.855 219.878C296.352 221.857 303.803 222.449 308.837 222.608C311.94 222.707 314.395 225.197 314.395 228.239V232.842C314.395 235.593 312.361 237.918 309.599 238.408C285.391 242.705 262.906 228.396 262.906 228.396L189.209 260.329C176.981 265.627 162.69 260.145 157.382 248.119L127.305 179.985L160.463 167.124Z" fill="#F79484"/>
<path d="M160.463 167.124L127.305 179.985L131.484 189.454L161.56 169.852L160.463 167.124Z" fill="#8BC34A"/>
<path d="M145.218 80.4253V107.949C155.248 122.76 170.9 116.738 175.71 107.949V96.677L145.218 80.4253Z" fill="#F79484"/>
<path d="M197.256 46.9545C197.219 45.9394 197.126 44.9407 196.987 43.9571C193.897 37.6513 189.754 31.8808 184.323 27.3571C177.636 43.4593 161.832 56.6508 144.387 59.8007C145.258 64.1077 144.681 68.6822 142.769 72.6514C142.129 73.9744 141.332 75.2212 140.421 76.3813C141.641 81.8812 144.999 86.7309 149.844 89.8479L160.357 96.6111C164.503 99.2796 169.414 100.576 174.367 100.314C182.947 99.8596 190.573 94.8022 194.191 87.1629C196.968 81.3012 198.29 74.8803 198.052 68.4236L197.256 46.9545Z" fill="#F79484"/>
<path d="M154.923 56.1069H172.331C171.895 54.1291 169.927 52.516 167.97 51.8747C166.011 51.2334 163.853 51.4083 161.87 51.9793C159.423 52.6835 156.749 54.3608 154.923 56.1069Z" fill="#6A3256"/>
<path d="M166.016 67.3911C167.125 67.3911 168.024 66.5091 168.024 65.4223V63.265C168.024 62.1782 167.125 61.2962 166.016 61.2962C164.907 61.2962 164.009 62.1782 164.009 63.265V65.4223C164.009 66.5091 164.907 67.3911 166.016 67.3911Z" fill="#3F244A"/>
<path d="M195.952 56.1069H185.19C185.46 54.1291 186.676 52.516 187.886 51.8747C189.097 51.2334 190.432 51.4083 191.657 51.9793C193.17 52.6835 194.824 54.3608 195.952 56.1069Z" fill="#6A3256"/>
<path d="M189.556 67.3911C188.789 67.3911 188.168 66.7812 188.168 66.0307V62.6566C188.168 61.9061 188.789 61.2962 189.556 61.2962C190.322 61.2962 190.943 61.9061 190.943 62.6566V66.0307C190.943 66.7812 190.322 67.3911 189.556 67.3911Z" fill="#3F244A"/>
<path d="M184.569 84.6623C177.09 84.5367 169.609 84.4126 162.13 84.2885C164.699 87.7225 168.973 90.1996 173.317 90.2788C177.662 90.3581 181.872 88.0005 184.569 84.6623Z" fill="white"/>
<path d="M135.237 65.7864C132.363 64.2466 128.336 64.4649 126.257 66.945C125 68.4429 124.626 70.497 124.765 72.4315C125.134 77.6265 129.202 82.367 134.363 83.6153C136.126 84.0414 138.109 84.0578 139.632 83.0876C141.11 82.1443 141.906 80.4101 142.098 78.6909C142.638 73.8966 139.568 68.1096 135.237 65.7864Z" fill="#F79484"/>
<path d="M128.393 69.6899C129.123 69.0097 130.171 68.7137 131.178 68.7675C132.185 68.8198 133.15 69.1936 134.015 69.7019C136.75 71.306 138.543 74.3512 138.59 77.4742C138.608 78.7389 138.233 80.18 137.082 80.7526C136.304 81.1383 135.33 81.0127 134.577 80.5822C133.823 80.1501 133.263 79.452 132.835 78.706C132.2 77.6027 131.816 76.2707 132.214 75.0643C132.613 73.8594 134.011 72.934 135.225 73.3675C134.769 72.173 133.832 71.1161 132.745 70.4165C131.657 69.7168 129.692 69.6241 128.393 69.6899Z" fill="#8BC34A"/>
</svg>
