<svg width="562" height="411" viewBox="0 0 562 411" fill="none" xmlns="http://www.w3.org/2000/svg">
<path d="M445.907 234.726L448.614 295.676L440.676 399.309L428.799 400.128L414.369 306.005L394.406 226.357L445.907 234.726Z" fill="#8BC34A"/>
<path d="M429.223 404.984L442.524 410.331L448.49 403.655L441.611 397.866L428.768 398.752L429.223 404.984Z" fill="#AED580"/>
<path d="M361.83 213.16L359.224 259.229L366.957 396.213L378.849 396.79L396.672 306.946L412.392 208.422L361.83 213.16Z" fill="#8BC34A"/>
<path d="M378.531 401.653L365.348 407.27L359.24 400.718L365.992 394.79L378.852 395.413L378.531 401.653Z" fill="#AED580"/>
<path d="M430.977 77.441L393.867 73.5827C393.867 73.5827 373.223 75.7232 359.214 123.305C351.421 149.778 349.049 191.485 348.478 223.283C349.354 227.818 354.446 247.687 375.977 244.316C412.95 238.528 432.629 232.741 448.731 235.635C462.446 238.528 461.286 220.201 459.78 206.215L454.314 162.941L430.977 77.441Z" fill="#688942"/>
<path d="M423.81 32.6103C414.457 30.6097 404.829 28.8162 395.466 30.6154C393.415 31.0102 391.214 31.7025 390.101 33.4212C389.671 34.0864 389.442 34.8544 389.232 35.6134C386.869 44.1374 383.872 56.7738 389.654 64.6277C390.756 66.1259 392.237 67.3141 393.829 68.2795C395.956 69.5705 398.311 70.4471 400.748 70.9142C400.244 73.0332 399.542 75.1087 398.652 77.1053C400.794 80.2383 410.783 80.6141 412.629 77.6102C412.733 75.0109 412.836 72.4108 412.939 69.8115C414.156 69.3345 415.33 68.7556 416.434 68.0501C420.703 65.3217 423.515 61.1806 425.15 56.5485C426.928 51.5037 429.431 46.7088 431.056 41.5677C431.649 39.6945 432.115 37.5565 431.1 35.8634C430.02 34.0609 427.687 33.4475 425.589 32.9936C424.997 32.8661 424.404 32.7378 423.81 32.6103Z" fill="#C1755D"/>
<path d="M392.677 37.4842C397.3 34.5987 404.236 33.3562 408.584 33.6629C421.726 34.5864 426.54 43.9533 427.242 55.6802C430.862 51.2151 437.657 45.597 438.068 39.85C438.403 35.1464 437.732 28.7324 435.018 24.6694C432.477 20.8687 425.98 18.7808 422.117 16.5787C418.475 14.5024 414.833 12.4261 411.19 10.3497C410.433 9.91804 409.655 9.47814 408.789 9.33259C407.765 9.1599 406.722 9.41396 405.716 9.66641C397.108 11.825 388.5 13.9843 379.893 16.1437C378.239 16.5582 376.354 17.1642 375.745 18.7126C375.376 19.655 375.593 20.7075 375.815 21.6918C376.791 26.0287 378.668 30.4617 379.133 34.8544C379.658 37.4069 381.226 50.4889 385.884 48.9792C387.25 46.8091 387.456 44.1366 388.521 41.8128C389.308 40.095 390.802 38.6543 392.677 37.4842Z" fill="#2E3644"/>
<path d="M304.02 247.906L289.147 312.019L285.988 372.565L262.406 372.052L255.994 202.694L301.708 203.499L304.02 247.906Z" fill="#8BC34A"/>
<path d="M216.49 243.984L214.57 306.222L224.634 369.159L248.622 369.854L247.563 301.741L260.256 245.255L264.518 208.281L226.456 203.924L216.49 243.984Z" fill="#8BC34A"/>
<path d="M246.6 76.5534L287.606 75.6028L311.381 118.516L302.931 158.709L301.426 206.81L242.932 207.584L223.686 204.553L228.796 153.158L225.866 84.5043L246.6 76.5534Z" fill="#688942"/>
<path d="M249.168 43.2096C255.349 25.7676 279.075 32.3041 283.968 47.835C287.158 57.9658 279.097 71.112 268.28 74.0222C268.232 74.421 268.196 74.7935 268.194 75.1092C268.188 76.7357 267.981 78.3392 267.733 79.9641C267.64 80.5693 258.174 78.8038 257.119 78.6024C256.749 78.5317 256.337 78.4346 256.138 78.1345C255.757 77.5572 256.377 75.8584 256.447 75.2178C256.529 74.4613 256.61 73.7047 256.692 72.9474C251.357 70.4204 247.991 65.0368 247.05 59.557C246.105 54.0508 247.31 48.4509 249.168 43.2096Z" fill="#EFC4B1"/>
<path d="M264.646 27.4486C265.919 28.7018 266.419 30.4509 266.786 32.1292C267.004 33.1324 267.193 34.1693 266.972 35.1627C266.091 39.1221 262.044 38.9148 258.915 40.1911C255.056 41.765 251.728 44.6628 249.567 47.9997C246.183 53.2255 247.706 59.9494 249.078 65.7138C249.561 67.7449 250.535 70.7652 248.912 72.5768C247.262 74.4179 243.45 74.1334 241.474 73.1861C239.669 72.321 238.186 70.72 236.203 70.3977C234.106 70.0564 231.271 70.9519 230.295 69.0836C230.024 68.5639 229.998 67.9291 229.656 67.453C228.496 65.8445 225.612 67.7285 223.98 66.5945C222.975 65.8972 222.982 64.4104 223.321 63.2337C223.662 62.0578 224.234 60.8663 223.996 59.669C223.793 58.6411 223.03 57.8287 222.557 56.8929C221.623 55.0444 221.946 52.6383 223.336 51.0776C225.919 48.1765 230.917 48.7266 233.685 45.9982C235.127 44.5764 235.687 42.5256 236.224 40.585C236.762 38.6443 237.407 36.5984 238.948 35.2836C240.853 33.6587 243.601 33.935 245.481 32.0083C246.584 30.876 247.32 29.4024 248.559 28.4173C250.191 27.1189 253.384 26.1206 255.414 25.4578C258.636 24.4077 262.239 25.0763 264.646 27.4486Z" fill="#2E3644"/>
<path d="M279.655 55.2827C279.766 61.024 276.827 67.23 279.552 72.2839C282.302 77.3838 289.157 78.3032 294.999 78.5688C295.961 78.6132 308.292 79.646 308.343 79.4198C309.267 75.4209 310.222 71.3423 312.375 67.8311C314.529 64.3199 318.129 61.4105 322.253 61.1613C321.063 60.9607 320.463 59.5472 320.6 58.3557C320.738 57.1642 321.374 56.0886 321.742 54.9439C322.645 52.13 321.765 48.8465 319.579 46.8697C315.218 42.9243 307.309 44.5623 303.57 40.0314C301.252 37.2207 301.528 33.1454 300.314 29.7147C297.963 23.0812 290.481 21.6932 284.888 18.6975C278.983 15.5357 273.423 13.8023 266.608 14.9042C258.161 16.2709 251.881 24.6181 255.139 32.472C259.319 42.5468 276.025 41.6777 279.152 51.9063C279.488 53.0041 279.633 54.1348 279.655 55.2827Z" fill="#2E3644"/>
<path d="M275.475 76.3256L262.754 93.7749L256.774 93.2996L246.807 75.6028L275.475 76.3256Z" fill="#E3E3E4"/>
<path d="M55.7067 231L51.8074 231.156L51 235.388L51.0997 235.418L51.075 235.423L57.7299 239.789L60.8103 240L61 235.542L60.1386 234.835L55.7067 231Z" fill="#AED580"/>
<path d="M522.287 317.114H320.422V190.695H522.287V317.114Z" fill="white"/>
<path d="M495.399 147.892H347.311L315.09 184.731H527.62L495.399 147.892Z" fill="white"/>
<path d="M527.62 198.012H315.09V184.731H527.62V198.012Z" fill="#CCCDCE"/>
<path d="M381.457 160.347L376.24 166.312H460.739L455.522 160.347H381.457Z" fill="#9D9D9E"/>
<path d="M320.422 198.012L522.287 216.274V198.012H320.422Z" fill="#EAEAEA"/>
<path d="M334.951 229.9L505.73 224.767L501.936 229.9L508.639 236.095L503.133 245.277L508.639 250.497L504.569 253.981L512.683 266.991L500.979 276.357L506.724 282.114L336.537 286.736L340.127 280.407H334.951L340.367 266.295L331.51 259.51L336.776 252.445L334.622 248.827L338.93 242.581L331.51 234.004L334.951 229.9Z" fill="#F7F7F7"/>
<path d="M363.645 267.019C362.861 268.398 361.87 269.674 360.693 270.761C359.855 271.545 358.932 272.215 357.922 272.772C357.606 272.864 357.337 272.949 357.097 273.028C355.397 262.666 353.367 252.366 350.978 242.132C358.63 241.886 364.859 251.112 365.572 257.72C365.918 260.935 365.258 264.183 363.645 267.019ZM370.596 257.607C369.608 247.108 359.425 234.746 347.517 237.735C346.635 237.957 346.128 238.49 345.907 239.12C345.566 239.628 345.41 240.273 345.588 241.019C348.361 252.598 350.697 264.26 352.554 276.011C352.786 277.48 354.066 278.219 355.281 278.256C359.099 279.488 364.128 274.638 366.154 272.132C369.458 268.045 371.084 262.783 370.596 257.607Z" fill="#8BC34A"/>
<path d="M387.06 271.933C375.215 269.089 376.744 239.338 388.778 245.334C392.72 247.298 393.387 253.916 393.621 257.671C393.902 262.195 394.213 273.65 387.06 271.933ZM387.908 240.024C384.312 238.97 380.39 239.752 377.481 243.343C373.183 248.65 373.141 256.705 374.677 262.969C376.162 269.026 380.057 276.211 387.159 277.013C397.373 278.166 398.587 267.445 398.679 260.072C398.732 255.95 398.009 251.639 396.414 247.811C394.832 244.016 391.537 241.086 387.908 240.024Z" fill="#8BC34A"/>
<path d="M420.212 240.792C420.188 241.088 420.164 241.383 420.14 241.678C420.115 241.984 420.153 242.25 420.22 242.494C420.245 248.078 420.271 253.663 420.295 259.248C419.589 257.709 418.844 256.183 418.072 254.666C415.278 249.17 412.589 243.396 408.158 238.942C406.611 237.388 403.884 238.718 403.91 240.763C404.05 251.678 404.416 262.586 405.008 273.487C405.178 276.616 410.203 276.517 410.032 273.375C409.578 265.007 409.259 256.637 409.071 248.261C410.83 251.167 412.297 254.285 413.792 257.225C416.688 262.913 419.084 268.708 420.469 274.921C421.083 277.674 425.4 276.836 425.388 274.162C425.338 263.001 425.288 251.84 425.237 240.679C425.222 237.483 420.461 237.727 420.212 240.792Z" fill="#8BC34A"/>
<path d="M438.271 256.772C439.037 253.273 439.898 249.793 440.859 246.333C442.029 249.696 443.132 253.079 444.197 256.474C442.217 256.498 440.242 256.598 438.271 256.772ZM453.386 270.196C450.487 259.169 447.04 248.308 443.043 237.609C442.185 235.315 438.948 235.387 438.198 237.719C434.566 249.016 432.002 260.538 430.507 272.283C430.115 275.363 434.986 276.58 435.382 273.47C435.883 269.539 436.513 265.635 437.255 261.755C440.058 261.466 442.865 261.33 445.684 261.344C446.695 264.749 447.669 268.165 448.572 271.602C449.372 274.642 454.186 273.239 453.386 270.196Z" fill="#8BC34A"/>
<path d="M471.371 234.915C464.018 235.955 456.717 237.242 449.461 238.809C446.307 239.49 447.76 244.162 450.908 243.481C454.001 242.812 457.104 242.199 460.213 241.63C460.388 251.514 460.825 261.386 461.546 271.248C461.773 274.369 466.799 274.274 466.57 271.137C465.831 261.022 465.385 250.896 465.223 240.759C467.307 240.415 469.393 240.087 471.488 239.79C474.647 239.344 474.57 234.463 471.371 234.915Z" fill="#8BC34A"/>
<path d="M494.798 268.758C490.827 268.928 486.858 269.097 482.887 269.267L482.646 258.56C484.607 258.463 486.569 258.47 488.533 258.592C489.889 258.676 491.016 257.332 490.988 256.097C490.954 254.684 489.777 253.801 488.418 253.716C486.455 253.594 484.497 253.588 482.536 253.683L482.228 240.005C485.699 240.05 489.165 240.163 492.63 240.386C495.856 240.594 495.721 235.716 492.512 235.509C489.098 235.29 485.68 235.156 482.26 235.109C477.814 235.048 477.144 237.441 477.228 241.207C477.305 244.644 477.383 248.08 477.461 251.516C477.608 258.045 477.755 264.573 477.901 271.101C477.904 271.206 477.906 271.31 477.908 271.414C477.94 272.845 478.498 274.335 480.352 274.256C485.207 274.049 490.06 273.842 494.915 273.635C498.141 273.497 498.036 268.62 494.798 268.758Z" fill="#8BC34A"/>
<path d="M349.33 174.095L349.728 180.719L358.197 190.37L363.299 185.405L359.236 176.634L361.279 173.419L357.899 169.849L349.33 174.095Z" fill="#C1755D"/>
<path d="M393.867 73.5821L380.15 77.6336L330.057 128.564L327.076 145.348L351.022 183.722L357.489 169.656L347.351 141.296L363.452 130.301L384.921 83.421L393.867 73.5821Z" fill="#688942"/>
<path d="M171.987 182C171.987 182 171.987 182 171.987 182C171.986 182 171.986 182 171.986 182C171.924 182 165.172 173.369 159 165C159.018 165.009 159.036 165.018 159.054 165.027C164.838 172.872 171.151 180.971 172 181.994C171.993 181.998 171.989 182 171.987 182Z" fill="#699AA4"/>
<path d="M255.07 214.85L261.091 218.16L258.532 230.521L250.318 233.658L243.44 229.596L246.652 223.775L245.25 222.704L245.187 220.139L255.07 214.85Z" fill="#E4D2B8"/>
<path d="M289.362 84.6229L303.409 107.64L302.755 164.292L266.091 220.879L252.971 214.313L281.861 164.281L276.564 125.333L289.362 84.6229Z" fill="#688942"/>
<path d="M427.656 81.0817L462.99 68.7446L485.17 17.7823L497.386 18.5511L482.911 74.5698L470.072 88.7505L426.518 109.951L427.656 81.0817Z" fill="#2B292A"/>
<path d="M494.772 18.3867L497.919 12.4966L495.728 -3.76062e-05L488.728 1.73419L487.598 11.2877L484.147 13.0368L485.17 17.7823L494.772 18.3867Z" fill="#C1755D"/>
<path d="M420.084 79.5712C420.016 41.5428 451.726 10.6612 490.91 10.5954C530.094 10.5296 561.915 41.3035 561.983 79.3327C562.051 117.361 530.341 148.243 491.157 148.308C451.973 148.375 420.152 117.6 420.084 79.5712Z" fill="#8BC34A"/>
<path d="M430.82 79.5541C430.763 47.2794 457.674 21.0708 490.929 21.0141C524.184 20.9582 551.189 47.0771 551.248 79.3509C551.308 111.625 524.394 137.834 491.138 137.89C457.883 137.946 430.877 111.828 430.82 79.5541Z" fill="#CCCDCE"/>
<path d="M522.448 29.5223C528.461 38.5973 531.956 49.3933 531.981 60.9837C532.032 93.2575 505.124 119.467 471.868 119.523C460.319 119.543 449.525 116.402 440.35 110.945C451.08 127.141 469.825 137.856 491.138 137.821C524.394 137.765 551.308 111.556 551.249 79.2816C551.206 58.2158 539.692 39.7764 522.448 29.5223Z" fill="#9D9D9E"/>
<path d="M441.378 84.8825C441.327 56.3929 465.084 33.2574 494.439 33.208C511.598 33.1792 526.869 41.0463 536.608 53.2764C527.402 37.8278 510.181 27.4461 490.472 27.479C461.117 27.5292 437.36 50.6639 437.411 79.1543C437.433 90.9914 441.564 101.888 448.487 110.582C443.98 103.02 441.395 94.2445 441.378 84.8825Z" fill="#F7F7F7"/>
<path d="M495.938 41.7263L495.951 49.1706C499.03 49.6468 501.55 50.6302 503.509 52.1211C505.469 53.6119 507.338 55.9004 509.118 58.9865L501.494 63.14C499.19 59.0917 496.186 57.0705 492.481 57.0771C490.185 57.0812 488.281 57.7432 486.771 59.0622C485.259 60.3811 484.506 62.029 484.51 64.0034C484.513 65.8018 485.128 67.2951 486.358 68.4825C487.559 69.6452 489.988 71.0217 493.644 72.6104C496.803 73.9985 499.415 75.3043 501.479 76.5288C503.542 77.754 505.096 78.9348 506.142 80.0721C509.096 83.1573 510.578 86.8898 510.585 91.2702C510.593 95.5758 509.269 99.3765 506.613 102.671C503.984 105.943 500.465 108.152 496.058 109.298L496.073 117.161L489.223 117.173L489.209 109.538C484.094 108.736 480.19 107.034 477.498 104.43C474.806 101.827 472.815 97.8034 471.527 92.3614L480.134 90.5992C481.315 94.4468 482.755 97.1916 484.455 98.8346C486.231 100.403 488.594 101.183 491.542 101.178C494.413 101.173 496.812 100.27 498.739 98.4695C500.64 96.6933 501.589 94.3999 501.584 91.5893C501.58 89.0829 500.779 87.0707 499.187 85.5536C498.376 84.8209 497.18 83.9945 495.6 83.0718C494.02 82.1508 492.002 81.1476 489.549 80.0622C484.482 77.8683 481.151 75.8479 479.557 74.0018C477.02 71.2463 475.749 67.9439 475.744 64.0947C475.74 62.2716 476.036 60.5744 476.633 59.0029C477.231 57.4323 478.096 56.0064 479.229 54.7253C480.362 53.445 481.762 52.3349 483.431 51.395C485.098 50.4559 486.989 49.7175 489.101 49.1822L489.088 41.737L495.938 41.7263Z" fill="#A9A9AA"/>
<path d="M43.6729 144.236C43.9171 145.681 45.6047 148.718 46.6675 148.95C49.1206 149.487 47.1965 145.528 46.7368 143.935C47.1577 143.864 47.5661 143.814 47.9618 143.625C48.3249 143.452 45.992 139.389 45.5256 139.164C44.4059 138.624 43.9641 139.527 43 140.31C43.2441 141.607 43.452 142.926 43.6729 144.236Z" fill="#F4D0C1"/>
<path d="M120.797 136.914L125.706 140L127 137.758L124.066 134.829L125.127 134.079L120.633 132L119 134.132L120.797 136.914Z" fill="#F4D0C1"/>
<path d="M119.391 118L114 119H171L165.976 118H119.391Z" fill="#A74E38"/>
<path d="M121.235 118.383H168L166.065 118H119.401L114 119H117.901L121.235 118.383Z" fill="#712F26"/>
<path d="M170.392 110.483C162.767 111.422 148 110.795 148 110.795L148.315 108.12L171.184 107C171.184 107 178.019 109.544 170.392 110.483Z" fill="#BD7055"/>
<path d="M177.166 107.763C172.079 108.799 160.172 109 160.172 109L159 106.575L175.144 105C175.144 105 182.253 106.726 177.166 107.763Z" fill="#BD7055"/>
<path d="M183.166 106.453C178.079 107.748 166.173 108 166.173 108L165 104.968L181.145 103C181.145 103 188.252 105.158 183.166 106.453Z" fill="#BD7055"/>
<path d="M192.375 95L208 98.6646L173.758 103.322L155.328 106.074C155.328 106.074 154.495 108.409 158.755 109.036C165.796 110.073 158.857 112.633 149.861 111.855C140.865 111.077 126.419 108.518 128.141 106.775C129.863 105.032 144.518 100.203 148.475 99.3919C155.695 97.9124 192.375 95 192.375 95Z" fill="#F8A680"/>
<path d="M196.009 99.0641C188.64 99.137 181.311 99.2325 173.977 99.4298C172.701 99.4642 171.808 99.3124 171.358 99.1011C167.205 99.5064 163.873 100.166 161.051 101.085C157.56 102.221 154.363 103.325 150.108 104.309C146.773 105.08 142.311 105.981 142.027 107.18C142.001 107.291 141.852 107.965 142.665 107.993C143.923 108.034 145.236 107.891 146.351 107.767C149.244 107.445 151.838 106.997 154.681 106.654C154.813 106.638 154.943 106.626 155.072 106.615C155.058 106.289 155.132 106.066 155.132 106.066L172.651 103.283L202 99.0361C201.604 99.0247 201.208 99.0121 200.811 99C199.174 99.0207 197.558 99.0487 196.009 99.0641Z" fill="#D8906F"/>
<path d="M154 102L162.576 105L165 104.684L154 102Z" fill="#BD7055"/>
<path d="M134 107.628L150.513 108L151 107L134 107.628Z" fill="#BD7055"/>
<path d="M136.436 108.057L159 115.816C159 115.816 141.34 116.55 130.963 115.085C120.318 113.583 117.05 111.332 122.817 109.328C127.816 107.59 136.436 108.057 136.436 108.057Z" fill="#AE2022"/>
<path d="M137 108.256L161.785 116C161.785 116 170.228 111.844 167.433 108.871C164.566 105.822 156.367 104.384 146.392 105.248C137.746 105.996 137 108.256 137 108.256Z" fill="#871819"/>
<path d="M171.954 98.1194L207 98C207 98 194.02 99.932 192.19 100.75C189.368 102.01 190.946 102.869 182.417 104.418C174.542 105.849 162.912 107.642 153.138 108.739C145.495 109.597 138.302 108.182 144.122 106.749C148.709 105.62 154.935 104.503 158.787 103.695C162.642 102.888 161.986 99.7555 171.954 98.1194Z" fill="#F8A680"/>
<path d="M229.058 88L233 96.3008L201.738 100L185 94.448L229.058 88Z" fill="#8BC34A"/>
<path d="M238.736 363.125H203.33C202.577 363.125 201.968 363.627 201.968 364.248C201.968 364.867 202.577 365.369 203.33 365.369H238.736C239.487 365.369 240.099 364.867 240.099 364.248C240.099 363.627 239.487 363.125 238.736 363.125Z" fill="white"/>
<path d="M232.585 353.144L207.553 373.765C207.021 374.203 207.021 374.914 207.553 375.352C208.085 375.79 208.948 375.79 209.477 375.352L234.509 354.73C235.043 354.293 235.043 353.583 234.509 353.144C233.977 352.706 233.117 352.706 232.585 353.144Z" fill="white"/>
<path d="M234.509 373.765L209.477 353.144C208.948 352.706 208.085 352.706 207.553 353.144C207.021 353.583 207.021 354.293 207.553 354.73L232.585 375.352C233.117 375.79 233.977 375.79 234.509 375.352C235.043 374.914 235.043 374.203 234.509 373.765Z" fill="white"/>
<path d="M311.576 172.475V201.642C311.576 202.261 312.188 202.765 312.939 202.765C313.69 202.765 314.299 202.261 314.299 201.642V172.475C314.299 171.855 313.69 171.353 312.939 171.353C312.188 171.353 311.576 171.855 311.576 172.475Z" fill="white"/>
<path d="M330.639 185.937H295.231C294.481 185.937 293.871 186.439 293.871 187.059C293.871 187.678 294.481 188.18 295.231 188.18H330.639C331.39 188.18 332 187.678 332 187.059C332 186.439 331.39 185.937 330.639 185.937Z" fill="white"/>
<path d="M324.492 175.952L299.46 196.576C298.928 197.014 298.928 197.725 299.462 198.163C299.994 198.601 300.855 198.601 301.389 198.163L326.418 177.537C326.95 177.099 326.95 176.388 326.418 175.95C325.887 175.512 325.026 175.512 324.492 175.952Z" fill="white"/>
<path d="M326.418 196.576L301.389 175.952C300.855 175.512 299.994 175.512 299.462 175.95C298.928 176.388 298.928 177.099 299.46 177.537L324.492 198.163C325.026 198.601 325.887 198.601 326.418 198.163C326.95 197.725 326.95 197.014 326.418 196.576Z" fill="white"/>
<path d="M187.591 286.001H191.583C192.147 286.001 192.603 285.625 192.603 285.161C192.603 284.696 192.147 284.32 191.583 284.32H187.591C187.027 284.32 186.568 284.696 186.568 285.161C186.568 285.625 187.027 286.001 187.591 286.001Z" fill="white"/>
<path d="M197.809 286.001H204.031C204.594 286.001 205.053 285.625 205.053 285.161C205.053 284.696 204.594 284.32 204.031 284.32H197.809C197.243 284.32 196.786 284.696 196.786 285.161C196.786 285.625 197.243 286.001 197.809 286.001Z" fill="white"/>
<path d="M210.254 286.001H214.246C214.81 286.001 215.266 285.625 215.266 285.161C215.266 284.696 214.81 284.32 214.246 284.32H210.254C209.688 284.32 209.231 284.696 209.231 285.161C209.231 285.625 209.688 286.001 210.254 286.001Z" fill="white"/>
<path d="M196.852 277.333H200.844C201.407 277.333 201.864 276.957 201.864 276.492C201.864 276.026 201.407 275.65 200.844 275.65H196.852C196.286 275.65 195.829 276.026 195.829 276.492C195.829 276.957 196.286 277.333 196.852 277.333Z" fill="white"/>
<path d="M207.065 277.333H213.289C213.853 277.333 214.31 276.957 214.31 276.492C214.31 276.026 213.853 275.65 213.289 275.65H207.065C206.501 275.65 206.045 276.026 206.045 276.492C206.045 276.957 206.501 277.333 207.065 277.333Z" fill="white"/>
<path d="M219.512 277.333H223.504C224.071 277.333 224.527 276.957 224.527 276.492C224.527 276.026 224.071 275.65 223.504 275.65H219.512C218.949 275.65 218.492 276.026 218.492 276.492C218.492 276.957 218.949 277.333 219.512 277.333Z" fill="white"/>
<path d="M226.236 105.351H230.228C230.792 105.351 231.249 104.975 231.249 104.51C231.249 104.046 230.792 103.668 230.228 103.668H226.236C225.67 103.668 225.214 104.046 225.214 104.51C225.214 104.975 225.67 105.351 226.236 105.351Z" fill="white"/>
<path d="M66 315.536V329.464C66 329.759 66.224 330 66.5003 330C66.7764 330 67 329.759 67 329.464V315.536C67 315.24 66.7764 315 66.5003 315C66.224 315 66 315.24 66 315.536Z" fill="white"/>
<path d="M59.5003 323H72.5004C72.7761 323 73 322.776 73 322.5C73 322.224 72.7761 322 72.5004 322H59.5003C59.2239 322 59 322.224 59 322.5C59 322.776 59.2239 323 59.5003 323Z" fill="white"/>
<path d="M61.1435 317.921L70.1621 327.842C70.3542 328.053 70.6644 328.053 70.8559 327.842C71.048 327.631 71.048 327.289 70.8562 327.079L61.8376 317.159C61.6459 316.947 61.3356 316.947 61.1442 317.158C60.9521 317.369 60.9521 317.711 61.1435 317.921Z" fill="white"/>
<path d="M61.8376 327.842L70.8562 317.921C71.048 317.711 71.048 317.369 70.8559 317.158C70.6644 316.947 70.3542 316.947 70.1621 317.159L61.1435 327.079C60.9521 327.289 60.9521 327.631 61.1442 327.842C61.3356 328.053 61.6459 328.053 61.8376 327.842Z" fill="white"/>
<path d="M110.493 286H108.508C108.227 286 108 286.224 108 286.5C108 286.776 108.227 287 108.508 287H110.493C110.773 287 111 286.776 111 286.5C111 286.224 110.773 286 110.493 286Z" fill="white"/>
<path d="M106.629 286H104.371C104.166 286 104 286.224 104 286.5C104 286.776 104.166 287 104.371 287H106.629C106.834 287 107 286.776 107 286.5C107 286.224 106.834 286 106.629 286Z" fill="white"/>
<path d="M101.662 286H100.339C100.151 286 100 286.224 100 286.5C100 286.776 100.151 287 100.339 287H101.662C101.849 287 102 286.776 102 286.5C102 286.224 101.849 286 101.662 286Z" fill="white"/>
<path d="M106.661 281H105.339C105.151 281 105 281.225 105 281.501C105 281.777 105.151 282 105.339 282H106.661C106.848 282 107 281.777 107 281.501C107 281.225 106.848 281 106.661 281Z" fill="white"/>
<path d="M102.63 281H100.371C100.166 281 100 281.225 100 281.501C100 281.777 100.166 282 100.371 282H102.63C102.834 282 103 281.777 103 281.501C103 281.225 102.834 281 102.63 281Z" fill="white"/>
<path d="M98.6616 281H97.3387C97.1513 281 97 281.225 97 281.501C97 281.777 97.1513 282 97.3387 282H98.6616C98.8483 282 99 281.777 99 281.501C99 281.225 98.8483 281 98.6616 281Z" fill="white"/>
<path d="M5 284H189V168H5V284Z" fill="#8BC34A"/>
<path d="M189 183H5V168H189V183Z" fill="#B26343"/>
<path d="M194 172H0V158H194V172Z" fill="#8BC34A"/>
<path d="M194 158H0L41.2368 111H155.575L194 158Z" fill="#CF8F51"/>
<path d="M70.2428 130L64 137H130L124.183 130H70.2428Z" fill="#A74E38"/>
<path d="M72.307 132.678H126L123.779 130H70.2008L64 137H68.4789L72.307 132.678Z" fill="#712F26"/>
<path d="M108.275 202.776C97.3744 199.216 89.5 209.058 89.5 209.058C89.5 209.058 81.6239 199.216 70.7254 202.776C58.15 206.884 54.5978 220.19 61.4007 236.619C68.0357 252.637 89.5 265 89.5 265C89.5 265 110.965 252.637 117.599 236.619C124.403 220.19 120.848 206.884 108.275 202.776Z" fill="#712F26"/>
<path d="M94 206.058V262C94 262 72.1944 249.638 65.4556 233.619C58.5428 217.189 62.1532 203.884 74.9269 199.776C86.0003 196.216 94 206.058 94 206.058Z" fill="#AE2022"/>
<path d="M94 206.058V262C94 262 115.806 249.638 122.545 233.619C129.457 217.189 125.846 203.884 113.073 199.776C101.999 196.216 94 206.058 94 206.058Z" fill="#871819"/>
<path d="M186 242.903L133.959 290L111 259.095L163.042 212L186 242.903Z" fill="#E7E4B9"/>
<path d="M178.889 241.789L133.735 282.502L117.113 260.211L162.267 219.499L178.889 241.789ZM114 259.484L133.774 286L182 242.516L162.23 216L114 259.484Z" fill="#688942"/>
<path d="M119.186 256L115 259.941L118.612 265C119.29 264.872 119.95 264.548 120.521 264.012C122.247 262.386 122.499 259.46 121.083 257.476C120.569 256.756 119.904 256.264 119.186 256Z" fill="#688942"/>
<path d="M177.58 238L181 242.832L176.611 247C175.97 246.722 175.379 246.254 174.913 245.595C173.503 243.601 173.754 240.66 175.474 239.026C176.1 238.433 176.833 238.096 177.58 238Z" fill="#688942"/>
<path d="M138 281.092L133.706 285L130 279.984C130.249 279.251 130.664 278.577 131.249 278.044C133.021 276.432 135.635 276.719 137.087 278.685C137.615 279.4 137.914 280.237 138 281.092Z" fill="#688942"/>
<path d="M166 221.783L162.058 217L157 221.128C157.126 221.903 157.45 222.657 157.987 223.309C159.613 225.282 162.539 225.57 164.524 223.952C165.244 223.365 165.737 222.607 166 221.783Z" fill="#688942"/>
<path d="M158.331 242.116C163.549 248.79 163.154 258.178 157.448 263.085C151.742 267.991 142.887 266.558 137.669 259.885C132.45 253.21 132.847 243.821 138.552 238.914C144.257 234.008 153.113 235.442 158.331 242.116Z" fill="#688942"/>
<path d="M169.207 232.464C170.432 234.172 170.214 236.692 168.719 238.093C167.225 239.493 165.019 239.245 163.794 237.537C162.568 235.828 162.786 233.307 164.281 231.907C165.775 230.506 167.981 230.756 169.207 232.464Z" fill="#688942"/>
<path d="M133.093 264.463C134.494 266.172 134.244 268.693 132.536 270.093C130.828 271.493 128.307 271.245 126.906 269.537C125.507 267.828 125.755 265.307 127.463 263.907C129.172 262.506 131.693 262.757 133.093 264.463Z" fill="#688942"/>
<path d="M155.445 263L153.402 260.354C151.949 261.573 150.103 262.391 148.733 262.488L147.97 260.216C149.345 260.072 151.013 259.452 152.394 258.248C154.148 256.723 154.503 254.617 153.349 253.123C152.235 251.681 150.585 251.628 148.151 252.432C144.823 253.576 142.337 253.724 140.575 251.443C138.894 249.269 139.076 246.35 141.044 243.979L139 241.332L140.53 240L142.494 242.542C144.016 241.306 145.351 240.843 146.412 240.665L147.131 242.933C146.369 243.069 144.911 243.373 143.332 244.75C141.43 246.405 141.645 248.232 142.456 249.281C143.509 250.645 144.947 250.53 147.824 249.603C151.217 248.491 153.552 248.736 155.355 251.069C156.954 253.14 157.096 256.261 154.896 258.921L157 261.646L155.445 263Z" fill="#E7E4B9"/>
<path d="M140.415 284H140.414L160 266.509V266.51L140.415 284Z" fill="#A05F3E"/>
<path d="M133.969 290L129.635 284.217L111 259.352L137.031 236L138.594 238.086L114.395 259.795L134.238 286.27L158.437 264.561L160 266.648L140.414 284.217L133.969 290ZM138.045 279.327C137.98 279.225 137.911 279.125 137.838 279.027C136.987 277.892 135.754 277.305 134.51 277.305C133.55 277.305 132.584 277.654 131.784 278.372C131.604 278.534 131.439 278.709 131.29 278.894L120.429 264.403C120.624 264.279 120.814 264.136 120.994 263.974C122.831 262.326 123.099 259.361 121.593 257.351C121.519 257.253 121.443 257.16 121.365 257.07L135.908 244.023C133.971 249.033 134.78 255.371 138.449 260.267C141.483 264.315 145.783 266.458 149.935 266.458C150.896 266.458 151.85 266.343 152.778 266.11L138.045 279.327ZM130.445 263.489C129.639 263.489 128.827 263.783 128.154 264.386C126.611 265.771 126.386 268.264 127.651 269.953C128.365 270.906 129.403 271.4 130.449 271.4C131.256 271.4 132.068 271.106 132.74 270.503C134.284 269.119 134.51 266.626 133.244 264.936C132.529 263.984 131.492 263.489 130.445 263.489Z" fill="#B2B78D"/>
<path d="M133.825 286L114 259.626L138.176 238L138.887 238.946C137.363 240.309 136.23 242.016 135.493 243.914L120.963 256.912C120.454 256.336 119.836 255.931 119.174 255.701L114.725 259.68L118.564 264.787C119.071 264.697 119.567 264.509 120.028 264.217L130.879 278.652C130.526 279.088 130.259 279.583 130.078 280.108L133.917 285.215L138.366 281.235C138.289 280.481 138.046 279.741 137.627 279.083L152.346 265.917C154.098 265.48 155.759 264.621 157.21 263.323L158 264.374L133.825 286Z" fill="#517135"/>
<path d="M118.612 265L115 259.941L119.186 256C119.808 256.228 120.39 256.629 120.869 257.199C120.943 257.287 121.014 257.38 121.083 257.476C122.499 259.46 122.247 262.386 120.521 264.012C120.351 264.171 120.173 264.313 119.989 264.435C119.556 264.724 119.089 264.91 118.612 265Z" fill="#517135"/>
<path d="M133.706 285L130 279.984C130.174 279.469 130.432 278.983 130.773 278.555C130.917 278.373 131.076 278.202 131.249 278.044C132.021 277.342 132.953 277 133.878 277C135.077 277 136.267 277.574 137.087 278.685C137.158 278.78 137.225 278.879 137.287 278.978C137.691 279.624 137.926 280.351 138 281.092L133.706 285Z" fill="#517135"/>
<path d="M149.208 266C145.011 266 140.665 263.891 137.599 259.904C133.89 255.085 133.073 248.844 135.031 243.912C135.776 242.035 136.923 240.348 138.465 239L139.67 240.568L138.934 241.211L140.932 243.809C139.008 246.135 138.831 248.999 140.473 251.133C141.443 252.393 142.637 252.897 144.076 252.897C145.192 252.897 146.457 252.593 147.878 252.103C148.061 252.042 148.241 251.986 148.415 251.936L152.541 257.298C152.385 257.474 152.213 257.645 152.026 257.809C150.675 258.991 149.045 259.599 147.701 259.74L148.447 261.97C149.786 261.875 151.59 261.072 153.01 259.876L155.007 262.472L155.913 261.681L157 263.094C155.533 264.377 153.852 265.225 152.08 265.658C151.142 265.887 150.179 266 149.208 266ZM144.382 250.014C143.491 250.014 142.85 249.711 142.312 249.011C141.556 248.03 141.33 246.355 142.92 244.793L146.628 249.612C145.729 249.87 144.996 250.014 144.382 250.014Z" fill="#517135"/>
<path d="M130.001 271C128.845 271 127.697 270.501 126.906 269.537C125.507 267.829 125.755 265.308 127.463 263.907C128.207 263.297 129.106 263 129.997 263C131.155 263 132.302 263.5 133.093 264.464C134.494 266.172 134.244 268.693 132.536 270.093C131.793 270.703 130.894 271 130.001 271Z" fill="#517135"/>
<path d="M155.093 263L153.094 260.274C151.672 261.53 149.866 262.373 148.525 262.472L147.778 260.132C149.123 259.983 150.756 259.345 152.108 258.104C152.296 257.932 152.468 257.752 152.624 257.567L156 262.17L155.093 263ZM144.148 252.946C142.707 252.946 141.512 252.416 140.541 251.093C138.897 248.853 139.074 245.846 141 243.403L139 240.676L139.737 240L142.991 244.436C141.399 246.077 141.626 247.835 142.382 248.865C142.92 249.6 143.563 249.919 144.455 249.919C145.069 249.919 145.803 249.767 146.704 249.497L148.493 251.937C148.318 251.989 148.139 252.048 147.955 252.112C146.532 252.626 145.266 252.946 144.148 252.946Z" fill="#B2B78D"/>
<path d="M211 217.068L198.837 289L163 281.932L175.163 210L211 217.068Z" fill="#E7E4B9"/>
<path d="M205.19 220.752L194.671 283.381L168.811 278.247L179.329 215.619L205.19 220.752ZM166 279.892L196.765 286L208 219.108L177.237 213L166 279.892Z" fill="#688942"/>
<path d="M167.035 273.376L166 279.771L171.971 281C172.447 280.37 172.788 279.599 172.929 278.728C173.357 276.089 171.806 273.561 169.465 273.079C168.614 272.904 167.779 273.026 167.035 273.376Z" fill="#688942"/>
<path d="M182.671 215.184L177.075 214L176 220.823C176.551 221.366 177.226 221.757 177.987 221.919C180.296 222.408 182.509 220.635 182.931 217.96C183.084 216.987 182.976 216.032 182.671 215.184Z" fill="#688942"/>
<path d="M188.843 235.295C196.746 236.892 202.101 244.548 200.807 252.392C199.514 260.239 192.06 265.304 184.157 263.705C176.255 262.107 170.898 254.453 172.193 246.607C173.486 238.761 180.94 233.696 188.843 235.295Z" fill="#688942"/>
<path d="M191.718 220.066C193.891 220.463 195.331 222.546 194.934 224.719C194.536 226.892 192.453 228.331 190.281 227.934C188.109 227.539 186.67 225.455 187.065 223.282C187.464 221.108 189.545 219.669 191.718 220.066Z" fill="#688942"/>
<path d="M183.128 271.066C185.03 271.462 186.29 273.545 185.942 275.718C185.595 277.89 183.772 279.331 181.871 278.934C179.97 278.537 178.711 276.453 179.057 274.281C179.405 272.107 181.228 270.669 183.128 271.066Z" fill="#688942"/>
<path d="M198.654 253.794L195.616 253.181C195.267 255.103 194.396 256.989 193.453 258L191.569 256.796C192.489 255.745 193.347 254.132 193.653 252.27C194.043 249.911 193.074 248.066 191.36 247.72C189.705 247.388 188.469 248.477 187.16 250.754C185.396 253.902 183.667 255.716 181.051 255.188C178.555 254.684 176.984 252.341 177.039 249.193L174 248.579L174.341 246.519L177.258 247.107C177.648 245.125 178.354 243.86 179.025 243L180.873 244.231C180.396 244.856 179.508 246.085 179.158 248.212C178.734 250.771 179.96 252.014 181.162 252.257C182.726 252.573 183.711 251.501 185.272 248.827C187.101 245.66 188.951 244.247 191.628 244.787C194.004 245.266 195.926 247.544 195.872 251.07L199 251.701L198.654 253.794Z" fill="#E7E4B9"/>
<path d="M198.941 289L204.999 253H205L198.941 289Z" fill="#9FA37D"/>
<path d="M198.906 289L170.804 283.472L163 281.937L169.095 246L171.537 246.48L165.872 279.889L196.892 285.99L202.557 252.582L205 253.062L198.906 289ZM190.232 282.48L173.254 279.141C173.33 278.909 173.391 278.668 173.433 278.419C173.863 275.882 172.304 273.452 169.949 272.988C169.835 272.966 169.72 272.949 169.606 272.936L173.011 252.859C174.505 258.008 178.902 262.234 184.638 263.362C185.623 263.555 186.601 263.649 187.562 263.649C192.295 263.649 196.591 261.383 199.129 257.727L195.682 278.065C195.571 278.033 195.458 278.006 195.343 277.983C195.08 277.932 194.819 277.906 194.56 277.906C192.508 277.906 190.684 279.484 190.301 281.736C190.26 281.985 190.237 282.234 190.232 282.48ZM182.76 270.485C181.035 270.485 179.502 271.811 179.181 273.704C178.82 275.835 180.131 277.879 182.11 278.269C182.332 278.313 182.552 278.334 182.769 278.334C184.494 278.334 186.028 277.007 186.349 275.113C186.71 272.982 185.399 270.938 183.419 270.55C183.198 270.506 182.978 270.485 182.76 270.485Z" fill="#B2B78D"/>
<path d="M196.441 286L166 279.978L171.559 247L172.652 247.216C172.652 247.218 172.652 247.218 172.652 247.218C172.301 249.297 172.447 251.363 173.005 253.297L169.664 273.115C169.521 273.099 169.379 273.091 169.237 273.091C168.666 273.091 168.113 273.218 167.603 273.448L166.581 279.516L172.474 280.682C172.804 280.262 173.068 279.777 173.244 279.239L189.906 282.535C189.896 283.106 189.985 283.662 190.155 284.18L196.049 285.347L197.073 279.278C196.572 278.767 195.955 278.38 195.253 278.177L198.636 258.102C199.703 256.558 200.453 254.762 200.787 252.782L202 253.023L196.441 286Z" fill="#517135"/>
<path d="M171.971 281L166 279.771L167.035 273.376C167.552 273.134 168.112 273 168.692 273C168.835 273 168.979 273.008 169.124 273.025C169.238 273.038 169.351 273.056 169.465 273.079C171.806 273.561 173.357 276.089 172.929 278.729C172.887 278.988 172.827 279.238 172.751 279.479C172.573 280.046 172.305 280.557 171.971 281Z" fill="#517135"/>
<path d="M187.176 264C186.211 264 185.228 263.906 184.238 263.712C178.475 262.581 174.058 258.342 172.556 253.177C171.985 251.212 171.835 249.113 172.194 247L174.067 247.367L173.895 248.376L177.002 248.986C176.945 252.117 178.552 254.448 181.103 254.95C181.413 255.011 181.71 255.04 181.996 255.04C184.187 255.04 185.754 253.308 187.349 250.539C187.453 250.364 187.555 250.197 187.658 250.036L194.069 251.294C194.058 251.538 194.03 251.79 193.987 252.047C193.674 253.899 192.797 255.504 191.856 256.549L193.782 257.747C194.747 256.741 195.637 254.865 195.994 252.954L199.1 253.563L199.31 252.323L201 252.655C200.659 254.667 199.89 256.491 198.799 258.06C196.248 261.728 191.932 264 187.176 264ZM181.737 252.087C181.571 252.087 181.398 252.069 181.217 252.034C180.045 251.804 178.852 250.669 179.119 248.359L184.882 249.49C183.746 251.254 182.878 252.087 181.737 252.087Z" fill="#517135"/>
<path d="M182.504 279C182.295 279 182.084 278.978 181.871 278.934C179.97 278.537 178.711 276.453 179.057 274.281C179.366 272.352 180.838 271 182.495 271C182.705 271 182.916 271.021 183.128 271.066C185.03 271.463 186.29 273.545 185.942 275.718C185.634 277.648 184.161 279 182.504 279Z" fill="#517135"/>
<path d="M193.562 258L191.668 256.73C192.593 255.623 193.455 253.923 193.763 251.96C193.806 251.688 193.833 251.42 193.844 251.162L199 252.253L198.793 253.567L195.738 252.921C195.387 254.947 194.511 256.934 193.562 258ZM181.968 255.132C181.687 255.132 181.395 255.1 181.091 255.036C178.581 254.505 177 252.034 177.056 248.716L174 248.069L174.169 247L179.138 248.051C178.876 250.5 180.049 251.702 181.202 251.946C181.38 251.983 181.55 252.002 181.714 252.002C182.836 252.002 183.69 251.119 184.807 249.25L187.538 249.828C187.437 249.999 187.336 250.176 187.234 250.361C185.666 253.296 184.124 255.132 181.968 255.132Z" fill="#B2B78D"/>
<path d="M168 278.5C168 289.27 160.165 298 150.5 298C140.834 298 133 289.27 133 278.5C133 267.731 140.834 259 150.5 259C160.165 259 168 267.731 168 278.5Z" fill="#F9A72B"/>
<path d="M151.982 296.58C142.476 296.58 134.773 287.876 134.773 277.138C134.773 271.02 137.278 265.563 141.19 262C136.277 265.422 133 271.557 133 278.558C133 289.296 140.704 298 150.209 298C154.295 298 158.048 296.386 161 293.697C158.378 295.523 155.289 296.58 151.982 296.58Z" fill="#FBC829"/>
<path d="M151.913 291.975C144.446 291.975 138.392 285.69 138.392 277.933C138.392 273.515 140.36 269.575 143.435 267C139.573 269.472 137 273.903 137 278.959C137 286.713 143.053 293 150.52 293C153.732 293 156.68 291.834 159 289.894C156.939 291.213 154.512 291.975 151.913 291.975Z" fill="#FBC829"/>
<path d="M163.483 278.5H162.965C162.965 282.466 161.515 286.05 159.168 288.65C156.82 291.248 153.582 292.853 150 292.853C146.418 292.853 143.18 291.248 140.832 288.65C138.484 286.05 137.035 282.466 137.035 278.5C137.035 274.534 138.485 270.949 140.832 268.35C143.18 265.752 146.418 264.146 150 264.146C153.582 264.146 156.82 265.752 159.168 268.35C161.515 270.949 162.965 274.534 162.965 278.5H163.483H164C164 269.939 157.732 263 150 263C142.267 263 136 269.939 136 278.5C136 287.061 142.267 293.999 150 294C157.732 293.999 164 287.061 164 278.5H163.483Z" fill="#F6862D"/>
<path d="M151 262.422C151 262.74 150.777 263 150.5 263C150.224 263 150 262.74 150 262.422V260.577C150 260.259 150.224 260 150.5 260C150.777 260 151 260.259 151 260.577V262.422Z" fill="#F6862D"/>
<path d="M165.384 279C165.172 279 165 278.776 165 278.499C165 278.223 165.172 278 165.384 278H166.616C166.828 278 167 278.223 167 278.499C167 278.776 166.828 279 166.616 279H165.384Z" fill="#F6862D"/>
<path d="M133.578 279C133.258 279 133 278.776 133 278.499C133 278.223 133.258 278 133.578 278H135.423C135.742 278 136 278.223 136 278.499C136 278.776 135.742 279 135.423 279H133.578Z" fill="#F6862D"/>
<path d="M160.802 267.862C160.618 268.046 160.321 268.046 160.136 267.862C159.955 267.679 159.955 267.382 160.136 267.199L161.199 266.138C161.381 265.954 161.679 265.954 161.862 266.138C162.046 266.32 162.046 266.619 161.862 266.802L160.802 267.862Z" fill="#F6862D"/>
<path d="M138.138 266.802C137.954 266.619 137.954 266.32 138.138 266.138C138.321 265.954 138.619 265.954 138.8 266.138L139.862 267.199C140.046 267.382 140.046 267.679 139.862 267.862C139.679 268.046 139.382 268.046 139.198 267.862L138.138 266.802Z" fill="#F6862D"/>
<path d="M156.602 263.748C156.537 263.955 156.355 264.054 156.195 263.97C156.036 263.887 155.958 263.651 156.023 263.447L156.399 262.252C156.463 262.045 156.645 261.946 156.805 262.03C156.966 262.113 157.042 262.348 156.977 262.554L156.602 263.748Z" fill="#F6862D"/>
<path d="M135.251 272.602C135.046 272.537 134.946 272.356 135.029 272.195C135.114 272.035 135.348 271.958 135.554 272.023L136.748 272.399C136.954 272.463 137.053 272.645 136.971 272.805C136.887 272.965 136.651 273.042 136.446 272.977L135.251 272.602Z" fill="#F6862D"/>
<path d="M164.562 272.951C164.357 273.084 164.119 272.938 164.031 272.624C163.945 272.311 164.042 271.95 164.247 271.816L165.439 271.049C165.643 270.917 165.881 271.063 165.968 271.375C166.055 271.688 165.96 272.049 165.753 272.183L164.562 272.951Z" fill="#F6862D"/>
<path d="M143.049 262.562C142.917 262.357 143.062 262.12 143.375 262.032C143.689 261.945 144.049 262.041 144.181 262.246L144.951 263.437C145.084 263.643 144.936 263.88 144.622 263.967C144.31 264.056 143.948 263.958 143.816 263.753L143.049 262.562Z" fill="#F6862D"/>
<path d="M158.981 265.709C158.822 266.005 158.491 266.089 158.243 265.897C157.996 265.704 157.926 265.307 158.086 265.011L159.019 263.291C159.178 262.995 159.51 262.911 159.756 263.103C160.005 263.297 160.074 263.694 159.913 263.99L158.981 265.709Z" fill="#F6862D"/>
<path d="M136.194 268.981C135.997 268.821 135.941 268.491 136.068 268.244C136.198 267.995 136.463 267.926 136.659 268.086L137.806 269.018C138.004 269.18 138.059 269.51 137.931 269.757C137.802 270.005 137.538 270.074 137.34 269.913L136.194 268.981Z" fill="#F6862D"/>
<path d="M165.47 275.992C165.26 276.034 165.055 275.906 165.008 275.702C164.964 275.5 165.099 275.3 165.309 275.258L166.529 275.008C166.74 274.966 166.947 275.095 166.991 275.298C167.037 275.501 166.901 275.701 166.691 275.743L165.47 275.992Z" fill="#F6862D"/>
<path d="M146.016 261.471C145.931 261.26 146.19 261.052 146.595 261.008C147.001 260.964 147.399 261.098 147.486 261.309L147.984 262.529C148.068 262.74 147.811 262.947 147.404 262.991C146.998 263.036 146.6 262.902 146.515 262.69L146.016 261.471Z" fill="#F6862D"/>
<path d="M153.775 262.68C153.736 262.891 153.534 263.032 153.321 262.994C153.108 262.956 152.968 262.755 153.006 262.543L153.226 261.32C153.264 261.109 153.467 260.968 153.678 261.006C153.891 261.044 154.031 261.245 153.994 261.456L153.775 262.68Z" fill="#F6862D"/>
<path d="M134.319 275.774C134.109 275.736 133.968 275.533 134.006 275.321C134.044 275.11 134.245 274.968 134.457 275.006L135.68 275.226C135.892 275.263 136.031 275.467 135.994 275.679C135.956 275.891 135.754 276.032 135.543 275.994L134.319 275.774Z" fill="#F6862D"/>
<path d="M162.679 269.906C162.484 270.071 162.214 270.013 162.077 269.776C161.942 269.539 161.989 269.213 162.185 269.048L163.32 268.093C163.517 267.929 163.785 267.987 163.922 268.224C164.059 268.46 164.011 268.786 163.816 268.951L162.679 269.906Z" fill="#F6862D"/>
<path d="M140.093 264.68C139.93 264.484 139.987 264.214 140.223 264.078C140.462 263.941 140.786 263.989 140.95 264.185L141.905 265.321C142.071 265.516 142.014 265.786 141.775 265.923C141.539 266.059 141.214 266.011 141.049 265.815L140.093 264.68Z" fill="#F6862D"/>
<path d="M151.152 280.331V285.166C152.342 284.831 152.937 284.067 152.937 282.874C152.937 281.83 152.342 280.983 151.152 280.331ZM149.874 276.419V271.863C148.666 272.18 148.062 272.906 148.062 274.043C148.062 275.047 148.666 275.841 149.874 276.419ZM151.339 288.184V289.442C151.339 289.815 151.152 290 150.779 290H150.248C149.874 290 149.687 289.815 149.687 289.442V288.184C149.023 288.184 148.125 288.045 146.993 287.765C145.664 287.429 145 287.075 145 286.703C145 286.648 145.017 286.563 145.054 286.452L145.835 284.104C145.906 283.955 145.988 283.88 146.077 283.88C146.041 283.88 146.468 284.075 147.356 284.466C148.245 284.858 149.023 285.091 149.687 285.166V279.687C148.161 278.98 147.175 278.44 146.731 278.066C145.576 277.115 145 275.85 145 274.266C145 272.477 145.63 271.08 146.891 270.074C147.797 269.348 148.729 268.966 149.687 268.929V267.56C149.687 267.186 149.874 267 150.248 267H150.779C151.152 267 151.339 267.186 151.339 267.56V268.929C152.014 268.984 152.803 269.142 153.709 269.403C154.916 269.758 155.52 270.14 155.52 270.55C155.52 270.624 155.494 270.727 155.441 270.857L154.615 272.757C154.545 272.906 154.463 272.981 154.375 272.981C154.41 272.981 154.029 272.795 153.23 272.422C152.431 272.049 151.8 271.863 151.339 271.863V277.034C152.829 277.797 153.825 278.403 154.321 278.85C155.441 279.874 156 281.16 156 282.706C156 284.439 155.441 285.8 154.321 286.786C153.522 287.513 152.528 287.979 151.339 288.184Z" fill="#F6862D"/>
<path d="M152.284 289.319C153.476 289.11 155.302 288.07 156.166 287.327C157.484 286.192 158.079 283.558 157.611 281.823C157.184 280.237 155.938 278.519 154.653 277.663C152.852 276.463 152.055 275.994 152.737 273.871C153.053 272.883 152.997 273.127 153.87 273.397C154.754 273.672 155.117 274.005 155.433 273.093C155.976 271.54 156.827 270.297 156.022 269.585C155.252 268.903 152.444 268.347 152.191 267.598C151.975 266.962 152.001 265 152.001 265C152.001 265 162.364 267.952 162.971 277.707C163.405 284.686 158.94 292.195 152.299 291.996C152.27 291.377 152.284 289.319 152.284 289.319Z" fill="#FAB92A"/>
<path d="M149 288.727V291C149 291 138.81 288.04 139.003 278.14C139.003 266.947 149 265 149 265V268.153C149 268.153 144.695 268.254 144.503 273.44C144.268 279.727 148.331 279.601 148.687 280.085C149.045 280.571 149.088 283.384 148.777 283.723C148.465 284.063 145.758 282.912 145.238 283.197C144.715 283.482 143.822 286.825 144.268 287.335C144.715 287.847 149 288.727 149 288.727Z" fill="#FAB92A"/>
<path d="M173.5 276C182.614 276 190 279.134 190 283.001C190 286.867 182.614 290 173.5 290C164.389 290 157 286.867 157 283.001C157 279.134 164.389 276 173.5 276Z" fill="#F9A72B"/>
<path d="M188.78 282.543C188.78 286.277 181.283 289.303 172.037 289.303C166.767 289.303 162.068 288.32 159 286.782C161.947 288.713 167.23 290 173.258 290C182.505 290 190 286.974 190 283.24C190 281.633 188.612 280.16 186.296 279C187.869 280.03 188.78 281.243 188.78 282.543Z" fill="#FCD528"/>
<path d="M173 277.353V277.706C176.476 277.705 179.623 278.335 181.876 279.338C183.002 279.837 183.902 280.432 184.504 281.065C185.109 281.704 185.402 282.355 185.402 283.001C185.402 283.646 185.109 284.297 184.504 284.935C183.601 285.887 182.026 286.742 180.028 287.34C178.029 287.94 175.608 288.294 173 288.294C169.524 288.295 166.377 287.664 164.124 286.662C162.998 286.163 162.098 285.568 161.497 284.935C160.891 284.297 160.598 283.646 160.598 283.001C160.598 282.355 160.891 281.704 161.497 281.065C162.399 280.113 163.974 279.258 165.972 278.66C167.971 278.059 170.392 277.705 173 277.706V277.353V277C169.462 277.001 166.258 277.635 163.914 278.677C162.741 279.199 161.781 279.821 161.098 280.539C160.417 281.251 160 282.087 160 283.001C160 283.914 160.417 284.748 161.098 285.462C162.123 286.535 163.769 287.405 165.825 288.025C167.88 288.641 170.347 289 173 289C176.538 288.999 179.742 288.365 182.087 287.323C183.259 286.801 184.219 286.179 184.902 285.462C185.583 284.748 186 283.914 186 283.001C186 282.087 185.583 281.251 184.902 280.539C183.877 279.465 182.231 278.595 180.175 277.975C178.12 277.357 175.653 277 173 277V277.353Z" fill="#F6862D"/>
<path d="M174 276.808C174 276.914 173.778 277 173.5 277C173.223 277 173 276.914 173 276.808V276.193C173 276.086 173.223 276 173.5 276C173.778 276 174 276.086 174 276.193V276.808Z" fill="#F6862D"/>
<path d="M163.862 278.599C164.046 278.691 164.046 278.839 163.862 278.931C163.68 279.023 163.383 279.023 163.199 278.931L162.138 278.401C161.954 278.31 161.954 278.161 162.138 278.069C162.32 277.977 162.617 277.977 162.802 278.069L163.862 278.599Z" fill="#F6862D"/>
<path d="M183.802 278.931C183.619 279.023 183.322 279.023 183.139 278.931C182.954 278.839 182.954 278.691 183.139 278.599L184.199 278.069C184.384 277.977 184.679 277.977 184.862 278.069C185.046 278.161 185.046 278.31 184.862 278.401L183.802 278.931Z" fill="#F6862D"/>
<path d="M179.203 277.875C179.074 277.978 178.709 278.027 178.389 277.985C178.069 277.943 177.917 277.826 178.046 277.723L178.796 277.126C178.925 277.024 179.29 276.973 179.61 277.015C179.93 277.056 180.083 277.174 179.954 277.277L179.203 277.875Z" fill="#F6862D"/>
<path d="M167.975 277.718C168.042 277.823 167.969 277.94 167.813 277.984C167.656 278.027 167.475 277.979 167.409 277.877L167.025 277.281C166.958 277.178 167.031 277.059 167.188 277.016C167.345 276.972 167.525 277.02 167.59 277.123L167.975 277.718Z" fill="#F6862D"/>
<path d="M161.805 279.51C162.003 279.59 162.06 279.755 161.932 279.878C161.802 280.004 161.537 280.036 161.34 279.957L160.194 279.49C159.997 279.411 159.94 279.245 160.07 279.121C160.198 278.999 160.462 278.963 160.66 279.043L161.805 279.51Z" fill="#F6862D"/>
<path d="M181.491 277.903C181.41 278.002 181.245 278.029 181.122 277.965C180.998 277.9 180.963 277.768 181.043 277.669L181.509 277.097C181.59 276.998 181.755 276.97 181.879 277.034C182.002 277.099 182.037 277.232 181.957 277.33L181.491 277.903Z" fill="#F6862D"/>
<path d="M170.992 276.764C171.035 276.87 170.904 276.973 170.702 276.996C170.498 277.018 170.3 276.951 170.257 276.845L170.008 276.236C169.966 276.129 170.095 276.026 170.298 276.004C170.499 275.982 170.7 276.049 170.743 276.154L170.992 276.764Z" fill="#F6862D"/>
<path d="M175.774 276.84C175.736 276.946 175.535 277.015 175.322 276.997C175.11 276.979 174.969 276.877 175.006 276.772L175.227 276.161C175.264 276.054 175.467 275.985 175.678 276.003C175.891 276.021 176.032 276.122 175.994 276.229L175.774 276.84Z" fill="#F6862D"/>
<path d="M165.906 277.66C166.071 277.757 166.014 277.892 165.776 277.961C165.54 278.029 165.213 278.005 165.048 277.908L164.094 277.341C163.93 277.243 163.986 277.109 164.224 277.039C164.461 276.971 164.786 276.995 164.95 277.092L165.906 277.66Z" fill="#F6862D"/>
<path d="M185.68 279.954C185.485 280.035 185.214 280.006 185.077 279.888C184.941 279.771 184.989 279.608 185.185 279.524L186.321 279.046C186.516 278.964 186.786 278.994 186.921 279.112C187.059 279.229 187.011 279.393 186.815 279.475L185.68 279.954Z" fill="#F6862D"/>
<path d="M182.618 281.896C182.431 281.462 181.506 280.799 180.845 280.485C179.837 280.005 177.496 279.788 175.953 279.959C174.543 280.114 173.016 280.569 172.256 281.034C171.189 281.689 170.772 281.979 168.885 281.732C168.008 281.616 168.225 281.637 168.464 281.319C168.708 280.998 169.003 280.867 168.193 280.751C166.813 280.553 165.708 280.244 165.076 280.536C164.469 280.816 163.976 281.838 163.308 281.931C162.743 282.009 161 282 161 282C161 282 163.624 278.23 172.295 278.011C178.496 277.853 185.172 279.476 184.997 281.891C184.445 281.902 182.618 281.896 182.618 281.896Z" fill="#FAB92A"/>
<path d="M191 266.999C191 277.494 183.165 286 173.5 286C163.835 286 156 277.494 156 266.999C156 256.506 163.835 248 173.5 248C183.165 248 191 256.506 191 266.999Z" fill="#F9A72B"/>
<path d="M174.98 284.581C165.478 284.581 157.773 275.878 157.773 265.14C157.773 259.02 160.277 253.564 164.19 250C159.277 253.423 156 259.556 156 266.558C156 277.296 163.704 286 173.208 286C177.296 286 181.047 284.387 184 281.698C181.378 283.525 178.289 284.581 174.98 284.581Z" fill="#FBC829"/>
<path d="M174.913 279.976C167.447 279.976 161.395 273.69 161.395 265.935C161.395 261.515 163.362 257.574 166.436 255C162.576 257.473 160 261.904 160 266.959C160 274.714 166.054 281 173.521 281C176.732 281 179.68 279.836 182 277.894C179.939 279.213 177.512 279.976 174.913 279.976Z" fill="#FBC829"/>
<path d="M186.483 266.5H185.965C185.964 270.465 184.515 274.05 182.168 276.649C179.82 279.249 176.582 280.853 173 280.854C169.418 280.853 166.18 279.249 163.833 276.649C161.485 274.05 160.036 270.465 160.035 266.5C160.036 262.534 161.485 258.95 163.833 256.35C166.18 253.751 169.418 252.146 173 252.146C176.582 252.146 179.82 253.751 182.168 256.35C184.515 258.95 185.964 262.534 185.965 266.5H186.483H187C186.999 257.94 180.732 251.001 173 251C165.268 251.001 159.001 257.94 159 266.5C159.001 275.06 165.268 281.999 173 282C180.732 281.999 186.999 275.06 187 266.5H186.483Z" fill="#F6862D"/>
<path d="M174 250.422C174 250.74 173.775 251 173.499 251C173.224 251 173 250.74 173 250.422V248.576C173 248.258 173.224 248 173.499 248C173.775 248 174 248.258 174 248.576V250.422Z" fill="#F6862D"/>
<path d="M188.385 267C188.172 267 188 266.777 188 266.501C188 266.224 188.172 266 188.385 266H189.616C189.829 266 190 266.224 190 266.501C190 266.777 189.829 267 189.616 267H188.385Z" fill="#F6862D"/>
<path d="M156.578 267C156.259 267 156 266.777 156 266.501C156 266.224 156.259 266 156.578 266H158.425C158.743 266 159 266.224 159 266.501C159 266.777 158.743 267 158.425 267H156.578Z" fill="#F6862D"/>
<path d="M184.401 255.863C184.309 256.046 184.161 256.046 184.069 255.862C183.977 255.679 183.977 255.383 184.069 255.198L184.599 254.137C184.692 253.955 184.839 253.954 184.932 254.137C185.023 254.321 185.023 254.617 184.932 254.801L184.401 255.863Z" fill="#F6862D"/>
<path d="M161.8 279.863C161.617 280.046 161.32 280.046 161.138 279.863C160.954 279.679 160.954 279.382 161.138 279.198L162.2 278.138C162.381 277.954 162.679 277.954 162.863 278.138C163.046 278.321 163.046 278.618 162.863 278.801L161.8 279.863Z" fill="#F6862D"/>
<path d="M184.069 278.801C183.977 278.618 183.977 278.321 184.069 278.138C184.161 277.954 184.309 277.954 184.401 278.138L184.932 279.198C185.023 279.382 185.023 279.679 184.932 279.862C184.839 280.046 184.692 280.046 184.599 279.862L184.069 278.801Z" fill="#F6862D"/>
<path d="M161.138 254.801C160.954 254.618 160.954 254.321 161.138 254.138C161.32 253.954 161.617 253.954 161.8 254.138L162.863 255.199C163.046 255.383 163.046 255.68 162.863 255.862C162.679 256.046 162.381 256.046 162.199 255.862L161.138 254.801Z" fill="#F6862D"/>
<path d="M179.602 251.748C179.538 251.955 179.355 252.054 179.195 251.97C179.035 251.887 178.959 251.652 179.023 251.446L179.398 250.252C179.463 250.045 179.645 249.946 179.806 250.03C179.964 250.113 180.042 250.348 179.977 250.554L179.602 251.748Z" fill="#F6862D"/>
<path d="M187.252 273.603C187.045 273.537 186.946 273.356 187.03 273.195C187.113 273.035 187.347 272.958 187.554 273.023L188.748 273.399C188.955 273.463 189.054 273.645 188.97 273.805C188.886 273.964 188.652 274.042 188.445 273.977L187.252 273.603Z" fill="#F6862D"/>
<path d="M158.251 260.602C158.045 260.537 157.946 260.355 158.03 260.195C158.113 260.036 158.347 259.958 158.554 260.023L159.748 260.398C159.954 260.463 160.054 260.645 159.971 260.805C159.887 260.965 159.653 261.042 159.446 260.977L158.251 260.602Z" fill="#F6862D"/>
<path d="M187.562 260.95C187.356 261.085 187.119 260.936 187.032 260.625C186.946 260.311 187.041 259.95 187.246 259.817L188.437 259.048C188.643 258.917 188.879 259.063 188.968 259.375C189.055 259.689 188.959 260.051 188.752 260.181L187.562 260.95Z" fill="#F6862D"/>
<path d="M158.562 273.975C158.357 274.042 158.12 273.969 158.032 273.812C157.945 273.655 158.04 273.475 158.247 273.408L159.438 273.024C159.644 272.958 159.882 273.031 159.968 273.188C160.055 273.345 159.959 273.525 159.754 273.592L158.562 273.975Z" fill="#F6862D"/>
<path d="M166.05 250.562C165.916 250.356 166.062 250.119 166.375 250.032C166.688 249.945 167.05 250.041 167.182 250.246L167.95 251.438C168.085 251.643 167.938 251.881 167.623 251.968C167.311 252.055 166.95 251.959 166.818 251.753L166.05 250.562Z" fill="#F6862D"/>
<path d="M181.983 253.709C181.822 254.005 181.491 254.089 181.242 253.896C180.995 253.704 180.926 253.306 181.087 253.011L182.02 251.291C182.18 250.995 182.511 250.91 182.758 251.104C183.005 251.297 183.074 251.694 182.913 251.991L181.983 253.709Z" fill="#F6862D"/>
<path d="M185.291 275.982C184.995 275.819 184.911 275.49 185.103 275.243C185.296 274.995 185.694 274.926 185.989 275.086L187.708 276.018C188.005 276.179 188.09 276.511 187.895 276.757C187.702 277.005 187.306 277.074 187.01 276.914L185.291 275.982Z" fill="#F6862D"/>
<path d="M159.194 257.491C158.997 257.41 158.94 257.245 159.069 257.121C159.199 256.998 159.463 256.963 159.66 257.043L160.806 257.509C161.004 257.589 161.059 257.755 160.931 257.878C160.802 258.002 160.539 258.037 160.341 257.957L159.194 257.491Z" fill="#F6862D"/>
<path d="M188.47 263.992C188.26 264.035 188.054 263.905 188.009 263.702C187.963 263.499 188.098 263.301 188.309 263.257L189.529 263.008C189.739 262.965 189.947 263.095 189.991 263.299C190.036 263.501 189.901 263.7 189.69 263.743L188.47 263.992Z" fill="#F6862D"/>
<path d="M157.471 270.992C157.26 271.034 157.052 270.906 157.009 270.702C156.963 270.499 157.098 270.3 157.308 270.258L158.529 270.008C158.741 269.966 158.946 270.095 158.991 270.298C159.036 270.501 158.901 270.7 158.691 270.743L157.471 270.992Z" fill="#F6862D"/>
<path d="M169.017 249.471C168.93 249.26 169.19 249.053 169.596 249.009C170.001 248.964 170.4 249.099 170.486 249.309L170.984 250.529C171.07 250.74 170.808 250.947 170.404 250.991C169.999 251.036 169.6 250.901 169.513 250.691L169.017 249.471Z" fill="#F6862D"/>
<path d="M176.775 250.68C176.737 250.891 176.534 251.032 176.321 250.994C176.109 250.956 175.968 250.754 176.006 250.544L176.226 249.32C176.265 249.109 176.467 248.969 176.679 249.006C176.891 249.044 177.032 249.246 176.994 249.457L176.775 250.68Z" fill="#F6862D"/>
<path d="M188.32 270.549C188.109 270.473 187.969 270.068 188.006 269.643C188.044 269.219 188.246 268.936 188.458 269.013L189.68 269.452C189.891 269.529 190.032 269.933 189.994 270.356C189.956 270.781 189.754 271.064 189.544 270.988L188.32 270.549Z" fill="#F6862D"/>
<path d="M157.319 263.774C157.109 263.736 156.968 263.534 157.006 263.321C157.044 263.109 157.246 262.968 157.457 263.006L158.68 263.226C158.891 263.264 159.032 263.467 158.994 263.679C158.957 263.891 158.754 264.032 158.543 263.994L157.319 263.774Z" fill="#F6862D"/>
<path d="M185.679 257.906C185.483 258.071 185.214 258.012 185.077 257.776C184.941 257.54 184.989 257.214 185.185 257.049L186.322 256.093C186.516 255.929 186.787 255.987 186.922 256.223C187.059 256.46 187.01 256.786 186.815 256.951L185.679 257.906Z" fill="#F6862D"/>
<path d="M159.679 277.906C159.483 278.072 159.213 278.012 159.078 277.776C158.941 277.54 158.99 277.215 159.185 277.048L160.32 276.094C160.516 275.929 160.786 275.987 160.923 276.223C161.059 276.46 161.011 276.786 160.815 276.951L159.679 277.906Z" fill="#F6862D"/>
<path d="M163.093 252.679C162.93 252.484 162.987 252.214 163.224 252.078C163.461 251.941 163.787 251.989 163.951 252.185L164.905 253.32C165.071 253.516 165.014 253.785 164.777 253.922C164.541 254.059 164.214 254.011 164.049 253.815L163.093 252.679Z" fill="#F6862D"/>
<path d="M174.153 268.331V273.166C175.343 272.831 175.936 272.067 175.936 270.874C175.936 269.831 175.343 268.983 174.153 268.331ZM172.873 264.419V259.863C171.667 260.18 171.063 260.906 171.063 262.043C171.063 263.049 171.667 263.842 172.873 264.419ZM174.339 276.184V277.441C174.339 277.815 174.153 278 173.779 278H173.247C172.873 278 172.687 277.815 172.687 277.441V276.184C172.023 276.184 171.125 276.044 169.993 275.765C168.663 275.429 168 275.076 168 274.703C168 274.647 168.017 274.563 168.055 274.45L168.835 272.104C168.906 271.955 168.989 271.88 169.077 271.88C169.042 271.88 169.468 272.076 170.358 272.466C171.245 272.858 172.023 273.091 172.687 273.166V267.688C171.161 266.981 170.175 266.44 169.731 266.067C168.577 265.116 168 263.85 168 262.266C168 260.478 168.631 259.08 169.891 258.074C170.797 257.349 171.729 256.966 172.687 256.929V255.56C172.687 255.186 172.873 255 173.247 255H173.779C174.153 255 174.339 255.186 174.339 255.56V256.929C175.014 256.983 175.804 257.142 176.709 257.404C177.916 257.758 178.52 258.14 178.52 258.55C178.52 258.624 178.494 258.727 178.441 258.857L177.614 260.757C177.544 260.906 177.465 260.981 177.375 260.981C177.41 260.981 177.029 260.795 176.229 260.422C175.43 260.049 174.8 259.863 174.339 259.863V265.033C175.829 265.798 176.825 266.403 177.321 266.849C178.441 267.875 179 269.16 179 270.707C179 272.439 178.441 273.799 177.321 274.786C176.523 275.514 175.527 275.979 174.339 276.184Z" fill="#F6862D"/>
<path d="M175.285 277.32C176.477 277.111 178.302 276.07 179.165 275.327C180.484 274.192 181.079 271.559 180.61 269.823C180.184 268.235 178.936 266.518 177.653 265.663C175.852 264.464 175.056 263.995 175.737 261.872C176.054 260.884 175.997 261.127 176.871 261.397C177.754 261.671 178.115 262.004 178.434 261.093C178.975 259.541 179.827 258.298 179.023 257.585C178.252 256.903 175.444 256.348 175.189 255.598C174.975 254.962 175.001 253 175.001 253C175.001 253 185.365 255.951 185.971 265.709C186.405 272.686 181.941 280.195 175.299 279.996C175.268 279.376 175.285 277.32 175.285 277.32Z" fill="#FAB92A"/>
<path d="M172 276.728V279C172 279 161.809 276.041 162.003 266.141C162.003 254.947 172 253 172 253V256.153C172 256.153 167.696 256.254 167.502 261.441C167.269 267.727 171.331 267.601 171.688 268.087C172.045 268.571 172.089 271.386 171.777 271.725C171.465 272.064 168.757 270.913 168.236 271.197C167.715 271.482 166.822 274.826 167.269 275.337C167.715 275.847 172 276.728 172 276.728Z" fill="#FAB92A"/>
<path d="M149 286.501C149 297.271 140.942 306 131 306C121.059 306 113 297.271 113 286.501C113 275.729 121.059 267 131 267C140.942 267 149 275.729 149 286.501Z" fill="#F9A72B"/>
<path d="M132.66 304.582C122.817 304.582 114.837 295.878 114.837 285.14C114.837 279.021 117.431 273.565 121.484 270C116.394 273.425 113 279.558 113 286.56C113 297.297 120.98 306 130.823 306C135.056 306 138.942 304.387 142 301.699C139.284 303.526 136.085 304.582 132.66 304.582Z" fill="#FBC829"/>
<path d="M132.236 299.936C125.108 299.936 119.33 293.409 119.33 285.355C119.33 280.766 121.209 276.674 124.143 274C120.458 276.568 118 281.169 118 286.42C118 294.472 123.778 301 130.906 301C133.971 301 136.786 299.791 139 297.773C137.033 299.144 134.717 299.936 132.236 299.936Z" fill="#FBC829"/>
<path d="M144.483 286.501H143.965C143.964 290.466 142.515 294.05 140.168 296.65C137.821 299.248 134.582 300.854 131 300.854C127.419 300.854 124.181 299.248 121.833 296.65C119.485 294.05 118.036 290.466 118.035 286.501C118.036 282.534 119.485 278.95 121.833 276.35C124.181 273.752 127.419 272.146 131 272.146C134.582 272.146 137.821 273.752 140.168 276.35C142.515 278.95 143.964 282.534 143.965 286.501H144.483H145C144.999 277.939 138.733 271 131 271C123.269 271 117.001 277.939 117 286.501C117.001 295.061 123.269 302 131 302C138.733 302 144.999 295.06 145 286.501H144.483Z" fill="#F6862D"/>
<path d="M132 270.423C132 270.742 131.775 271 131.499 271C131.224 271 131 270.742 131 270.423V268.576C131 268.257 131.224 268 131.499 268C131.775 268 132 268.257 132 268.576V270.423Z" fill="#F6862D"/>
<path d="M141.801 275.793C141.618 276.069 141.321 276.069 141.138 275.793C140.954 275.521 140.954 275.073 141.138 274.797L142.198 273.206C142.382 272.931 142.679 272.931 142.864 273.206C143.045 273.481 143.045 273.926 142.864 274.201L141.801 275.793Z" fill="#F6862D"/>
<path d="M119.138 274.201C118.954 273.926 118.954 273.481 119.138 273.206C119.321 272.931 119.618 272.931 119.801 273.206L120.862 274.797C121.046 275.073 121.046 275.521 120.862 275.793C120.679 276.069 120.382 276.069 120.199 275.793L119.138 274.201Z" fill="#F6862D"/>
<path d="M137.203 271.749C137.075 271.954 136.71 272.054 136.391 271.971C136.071 271.886 135.915 271.652 136.047 271.446L136.797 270.252C136.926 270.045 137.29 269.946 137.611 270.03C137.929 270.112 138.084 270.348 137.954 270.554L137.203 271.749Z" fill="#F6862D"/>
<path d="M144.843 280.951C144.535 281.084 144.179 280.937 144.048 280.623C143.918 280.31 144.061 279.949 144.37 279.817L146.157 279.05C146.464 278.916 146.821 279.062 146.952 279.374C147.082 279.688 146.938 280.05 146.629 280.182L144.843 280.951Z" fill="#F6862D"/>
<path d="M124.05 270.563C123.916 270.357 124.061 270.12 124.376 270.032C124.688 269.945 125.05 270.042 125.183 270.246L125.95 271.438C126.085 271.644 125.938 271.882 125.624 271.968C125.313 272.055 124.949 271.959 124.818 271.754L124.05 270.563Z" fill="#F6862D"/>
<path d="M139.491 272.806C139.411 273.004 139.245 273.059 139.121 272.931C138.997 272.802 138.963 272.538 139.043 272.34L139.509 271.195C139.589 270.996 139.755 270.941 139.878 271.069C140.002 271.198 140.038 271.462 139.956 271.66L139.491 272.806Z" fill="#F6862D"/>
<path d="M117.193 276.983C116.996 276.821 116.941 276.491 117.069 276.243C117.198 275.995 117.463 275.926 117.66 276.087L118.805 277.018C119.004 277.18 119.06 277.509 118.93 277.757C118.802 278.003 118.537 278.075 118.339 277.914L117.193 276.983Z" fill="#F6862D"/>
<path d="M127.008 269.471C126.965 269.26 127.095 269.052 127.298 269.009C127.501 268.964 127.699 269.099 127.743 269.309L127.992 270.53C128.034 270.741 127.904 270.947 127.703 270.991C127.499 271.036 127.3 270.902 127.257 270.691L127.008 269.471Z" fill="#F6862D"/>
<path d="M133.776 270.52C133.737 270.837 133.535 271.048 133.321 270.991C133.11 270.935 132.968 270.632 133.006 270.315L133.226 268.48C133.263 268.163 133.467 267.953 133.679 268.009C133.892 268.066 134.032 268.369 133.994 268.685L133.776 270.52Z" fill="#F6862D"/>
<path d="M143.68 277.906C143.483 278.071 143.215 278.013 143.077 277.775C142.941 277.539 142.989 277.214 143.185 277.048L144.321 276.093C144.516 275.929 144.785 275.987 144.922 276.225C145.059 276.459 145.01 276.786 144.815 276.951L143.68 277.906Z" fill="#F6862D"/>
<path d="M121.093 272.021C120.928 271.726 120.988 271.322 121.224 271.117C121.46 270.912 121.785 270.984 121.949 271.278L122.906 272.981C123.071 273.274 123.014 273.679 122.776 273.884C122.54 274.088 122.214 274.017 122.048 273.723L121.093 272.021Z" fill="#F6862D"/>
<path d="M132.153 288.33V293.165C133.342 292.83 133.937 292.066 133.937 290.873C133.937 289.831 133.342 288.983 132.153 288.33ZM130.873 284.418V279.864C129.665 280.18 129.063 280.906 129.063 282.043C129.063 283.048 129.665 283.84 130.873 284.418ZM132.339 296.183V297.441C132.339 297.813 132.153 298 131.779 298H131.247C130.873 298 130.687 297.813 130.687 297.441V296.183C130.022 296.183 129.124 296.043 127.994 295.765C126.665 295.428 126 295.076 126 294.702C126 294.646 126.018 294.562 126.055 294.451L126.835 292.103C126.907 291.954 126.987 291.879 127.077 291.879C127.042 291.879 127.468 292.076 128.358 292.467C129.246 292.858 130.022 293.091 130.687 293.165V287.688C129.16 286.98 128.176 286.439 127.731 286.067C126.577 285.117 126 283.85 126 282.266C126 280.477 126.63 279.08 127.892 278.075C128.797 277.348 129.729 276.967 130.687 276.929V275.559C130.687 275.187 130.873 275 131.247 275H131.779C132.153 275 132.339 275.187 132.339 275.559V276.929C133.014 276.985 133.804 277.143 134.71 277.404C135.916 277.757 136.519 278.141 136.519 278.55C136.519 278.624 136.493 278.727 136.441 278.857L135.615 280.757C135.544 280.906 135.464 280.981 135.375 280.981C135.41 280.981 135.029 280.795 134.229 280.422C133.43 280.05 132.8 279.864 132.339 279.864V285.033C133.83 285.797 134.824 286.402 135.321 286.849C136.441 287.874 137 289.16 137 290.705C137 292.438 136.441 293.799 135.321 294.786C134.523 295.513 133.527 295.979 132.339 296.183Z" fill="#F6862D"/>
<path d="M133.26 297.321C134.343 297.112 136.003 296.07 136.786 295.327C137.985 294.193 138.526 291.559 138.1 289.823C137.712 288.236 136.578 286.519 135.412 285.664C133.776 284.463 133.052 283.994 133.67 281.871C133.958 280.883 133.907 281.127 134.701 281.397C135.505 281.672 135.834 282.004 136.122 281.094C136.614 279.541 137.388 278.298 136.658 277.585C135.957 276.902 133.405 276.347 133.173 275.597C132.978 274.962 133.001 273 133.001 273C133.001 273 142.422 275.952 142.974 285.709C143.367 292.686 139.308 300.195 133.271 299.996C133.244 299.376 133.26 297.321 133.26 297.321Z" fill="#FAB92A"/>
<path d="M130 296.727V299C130 299 119.811 296.042 120.003 286.14C120.003 274.946 130 273 130 273V276.153C130 276.153 125.697 276.254 125.503 281.441C125.269 287.726 129.331 287.601 129.688 288.086C130.045 288.571 130.089 291.385 129.776 291.723C129.465 292.064 126.757 290.912 126.237 291.197C125.715 291.482 124.824 294.825 125.269 295.336C125.715 295.847 130 296.727 130 296.727Z" fill="#FAB92A"/>
<path d="M204.501 279C213.614 279 221 281.91 221 285.5C221 289.09 213.614 292 204.501 292C195.388 292 188 289.09 188 285.5C188 281.91 195.388 279 204.501 279Z" fill="#F9A72B"/>
<path d="M221 271V275.036C221 278.882 213.612 282 204.5 282C195.386 282 188 278.882 188 275.036V271H221Z" fill="#CE7625"/>
<path d="M221 271V275.036C221 278.882 213.612 282 204.5 282C195.386 282 188 278.882 188 275.036V271H221Z" fill="#CE7625"/>
<path d="M204.5 265C213.612 265 221 267.911 221 271.501C221 275.091 213.612 278 204.5 278C195.386 278 188 275.091 188 271.501C188 267.911 195.386 265 204.5 265Z" fill="#F9A72B"/>
<path d="M189.616 271C189.827 271 190 271.227 190 271.503C190 271.779 189.827 272 189.616 272H188.386C188.172 272 188 271.779 188 271.503C188 271.227 188.172 271 188.386 271H189.616Z" fill="#F6862D"/>
<path d="M190.52 270.225C190.837 270.263 191.047 270.466 190.991 270.679C190.934 270.891 190.631 271.031 190.315 270.994L188.479 270.774C188.163 270.735 187.953 270.532 188.009 270.322C188.065 270.108 188.367 269.968 188.685 270.006L190.52 270.225Z" fill="#F6862D"/>
<path d="M219 265V269.036C219 272.881 211.613 276 202.5 276C193.387 276 186 272.881 186 269.036V265H219Z" fill="#CE7625"/>
<path d="M219 265V269.036C219 272.881 211.613 276 202.5 276C193.387 276 186 272.881 186 269.036V265H219Z" fill="#CE7625"/>
<path d="M202.5 258C211.613 258 219 261.135 219 265.002C219 268.867 211.613 272 202.5 272C193.387 272 186 268.867 186 265.002C186 261.135 193.387 258 202.5 258Z" fill="#F9A72B"/>
<path d="M217.78 264.544C217.78 268.277 210.283 271.303 201.038 271.303C195.767 271.303 191.069 270.32 188 268.784C190.949 270.713 196.23 272 202.259 272C211.505 272 219 268.974 219 265.241C219 263.634 217.611 262.16 215.296 261C216.868 262.03 217.78 263.245 217.78 264.544Z" fill="#FCD528"/>
<path d="M202.5 260.324V260.648C206.11 260.646 209.377 261.224 211.717 262.143C212.885 262.601 213.82 263.146 214.446 263.727C215.073 264.312 215.379 264.909 215.378 265.501C215.379 266.093 215.073 266.688 214.446 267.274C213.508 268.147 211.873 268.93 209.798 269.478C207.722 270.029 205.207 270.352 202.5 270.352C198.89 270.354 195.622 269.776 193.283 268.857C192.113 268.399 191.179 267.854 190.554 267.274C189.926 266.688 189.621 266.093 189.621 265.501C189.621 264.909 189.926 264.312 190.554 263.727C191.491 262.854 193.127 262.07 195.202 261.522C197.277 260.972 199.792 260.648 202.5 260.648V260.324V260C198.825 260.001 195.499 260.582 193.064 261.538C191.846 262.016 190.85 262.587 190.141 263.244C189.433 263.899 189 264.663 189 265.501C189 266.338 189.433 267.103 190.141 267.757C191.205 268.741 192.914 269.537 195.049 270.106C197.184 270.671 199.744 271 202.5 271C206.175 270.999 209.5 270.417 211.936 269.463C213.153 268.985 214.15 268.414 214.859 267.757C215.566 267.103 215.999 266.338 216 265.501C215.999 264.663 215.566 263.899 214.859 263.244C213.794 262.26 212.085 261.463 209.951 260.894C207.816 260.329 205.255 260 202.5 260V260.324Z" fill="#F6862D"/>
<path d="M188.562 267.974C188.357 268.043 188.119 267.969 188.032 267.812C187.945 267.656 188.041 267.476 188.247 267.408L189.438 267.024C189.643 266.959 189.88 267.032 189.967 267.187C190.056 267.345 189.959 267.526 189.753 267.592L188.562 267.974Z" fill="#F6862D"/>
<path d="M190.805 261.508C191.004 261.589 191.059 261.755 190.932 261.879C190.803 262.003 190.537 262.036 190.34 261.958L189.195 261.492C188.997 261.41 188.94 261.244 189.07 261.121C189.198 260.996 189.463 260.964 189.66 261.043L190.805 261.508Z" fill="#F6862D"/>
<path d="M187.47 266.991C187.26 267.036 187.053 266.905 187.008 266.702C186.964 266.499 187.099 266.299 187.308 266.257L188.529 266.008C188.74 265.965 188.946 266.093 188.991 266.299C189.036 266.499 188.901 266.701 188.69 266.74L187.47 266.991Z" fill="#F6862D"/>
<path d="M189.681 268.953C189.484 269.035 189.214 269.008 189.078 268.888C188.941 268.769 188.99 268.606 189.185 268.526L190.322 268.047C190.516 267.963 190.787 267.995 190.922 268.113C191.059 268.23 191.011 268.394 190.815 268.475L189.681 268.953Z" fill="#F6862D"/>
<path d="M215.517 260.698C209.057 268.504 197.993 269.146 190.804 262.133C183.614 255.119 183.024 243.106 189.483 235.301C195.944 227.496 207.007 226.854 214.196 233.867C221.386 240.88 221.976 252.893 215.517 260.698Z" fill="#F9A72B"/>
<path d="M193.139 262.436C185.824 255.418 185.222 243.394 191.795 235.582C195.54 231.131 200.808 229.01 206 229.306C200.123 228.168 193.847 230.212 189.561 235.304C182.989 243.116 183.59 255.14 190.905 262.16C194.05 265.178 197.925 266.775 201.843 267C198.706 266.392 195.683 264.88 193.139 262.436Z" fill="#FBC829"/>
<path d="M195.202 258.639C189.628 253.465 189.169 244.606 194.176 238.85C197.031 235.569 201.043 234.008 205 234.226C200.523 233.386 195.739 234.893 192.475 238.645C187.468 244.402 187.926 253.261 193.498 258.433C195.895 260.658 198.847 261.836 201.833 262C199.443 261.553 197.14 260.439 195.202 258.639Z" fill="#FBC829"/>
<path d="M213.03 257.476L212.644 257.094C210.083 260.249 206.548 261.853 202.995 261.853C199.906 261.853 196.812 260.642 194.335 258.178C191.484 255.342 190.036 251.429 190.035 247.495C190.035 244.076 191.128 240.65 193.356 237.907C195.917 234.751 199.451 233.147 203.004 233.147C206.092 233.147 209.186 234.358 211.666 236.824C214.516 239.659 215.964 243.571 215.965 247.506C215.965 250.924 214.87 254.349 212.644 257.094L213.03 257.476L213.414 257.86C215.816 254.9 217 251.193 217 247.506C217.001 243.262 215.433 239.031 212.358 235.971C209.684 233.311 206.336 232 203.004 232C199.171 232 195.35 233.735 192.586 237.141C190.183 240.1 188.999 243.807 189 247.495C188.999 251.738 190.566 255.97 193.643 259.03C196.316 261.689 199.663 263 202.995 263C206.828 263 210.65 261.265 213.414 257.86L213.03 257.476Z" fill="#F6862D"/>
<path d="M186.404 248.999C186.191 249.012 186.011 248.818 186.001 248.565C185.988 248.309 186.151 248.093 186.365 248.079L187.594 248.001C187.807 247.988 187.989 248.183 187.999 248.436C188.011 248.691 187.847 248.908 187.636 248.921L186.404 248.999Z" fill="#F6862D"/>
<path d="M187.59 255.97C187.387 256.042 187.141 255.981 187.042 255.835C186.942 255.689 187.026 255.514 187.229 255.442L188.41 255.03C188.613 254.959 188.859 255.019 188.959 255.165C189.057 255.311 188.973 255.487 188.769 255.557L187.59 255.97Z" fill="#F6862D"/>
<path d="M187.267 242.64C187.062 242.581 186.95 242.394 187.022 242.222C187.093 242.05 187.32 241.959 187.528 242.018L188.731 242.36C188.94 242.419 189.05 242.606 188.978 242.778C188.907 242.95 188.68 243.041 188.472 242.982L187.267 242.64Z" fill="#F6862D"/>
<path d="M186.494 252.988C186.285 253.038 186.07 252.927 186.014 252.738C185.957 252.55 186.082 252.356 186.291 252.304L187.505 252.012C187.715 251.962 187.93 252.073 187.987 252.262C188.042 252.451 187.917 252.645 187.708 252.695L186.494 252.988Z" fill="#F6862D"/>
<path d="M188.21 239.038C188.009 238.883 187.94 238.543 188.056 238.279C188.173 238.013 188.428 237.92 188.629 238.075L189.791 238.964C189.989 239.117 190.06 239.456 189.945 239.722C189.828 239.988 189.572 240.079 189.371 239.925L188.21 239.038Z" fill="#F6862D"/>
<path d="M189.713 258.894C189.521 259.065 189.244 259.025 189.095 258.806C188.943 258.587 188.977 258.27 189.169 258.098L190.287 257.107C190.479 256.935 190.758 256.975 190.907 257.194C191.057 257.414 191.022 257.73 190.83 257.902L189.713 258.894Z" fill="#F6862D"/>
<path d="M186.338 245.832C186.126 245.804 185.977 245.595 186.003 245.365C186.029 245.138 186.222 244.975 186.433 245.003L187.661 245.168C187.873 245.197 188.023 245.405 187.997 245.633C187.971 245.862 187.777 246.025 187.566 245.997L186.338 245.832Z" fill="#F6862D"/>
<path d="M128.254 93.2842C120.335 98.2153 105 94.9246 105 94.9246L105.327 80.8785L129.076 75C129.076 75 136.173 88.3549 128.254 93.2842Z" fill="#BD7055"/>
<path d="M87 77.5133L105.456 79L106 75L87 77.5133Z" fill="#BD7055"/>
<path d="M91.807 80.2924L119 120.057C119 120.057 97.7175 123.82 85.212 116.313C72.3838 108.613 68.4451 97.076 75.3949 86.8035C81.4199 77.8996 91.807 80.2924 91.807 80.2924Z" fill="#AE2022"/>
<path d="M91 80.5739L118.183 120C118.183 120 127.443 98.8434 124.378 83.7069C121.234 68.1837 112.241 60.8654 101.3 65.2615C91.8179 69.0703 91 80.5739 91 80.5739Z" fill="#871819"/>
</svg>
